<?xml version="1.0" encoding="utf-8"?>
<!-- Generator: Adobe Illustrator 23.0.2, SVG Export Plug-In . SVG Version: 6.00 Build 0)  -->
<svg version="1.1" id="Layer_1" xmlns="http://www.w3.org/2000/svg" xmlns:xlink="http://www.w3.org/1999/xlink" x="0px" y="0px"
	 viewBox="0 0 500 500" enable-background="new 0 0 500 500" xml:space="preserve">
<g>
	
		<radialGradient id="SVGID_1_" cx="306" cy="627.0394" r="245.6898" gradientTransform="matrix(1 0 0 -0.84 -56 821.23)" gradientUnits="userSpaceOnUse">
		<stop  offset="9.000000e-02" style="stop-color:#F89622"/>
		<stop  offset="0.55" style="stop-color:#F79421"/>
		<stop  offset="0.71" style="stop-color:#F78C21"/>
		<stop  offset="0.83" style="stop-color:#F58220"/>
		<stop  offset="0.93" style="stop-color:#F37124"/>
		<stop  offset="0.93" style="stop-color:#F36F24"/>
	</radialGradient>
	<path fill="url(#SVGID_1_)" d="M187.2,122.6c-64.4-14.4-125.9,65.9-142.6,118.5S30,365.3,62.9,411.9c22.1,31.3,58.8,50.4,94,53.9
		c57.4,5.8,115.3,5.5,172.6-0.9c68.9-7.9,111.6-32.3,129.5-105.4c14.2-57.8,5.5-122.7-29.6-171.6c-26.4-36.8-73.5-71-119.8-63.1
		C266.9,132.1,231.3,132.5,187.2,122.6z"/>
	<path fill="#F4762C" d="M317.3,127c29.6,11,56,29.1,76.8,52.9c10.5,11.9,19.4,25.2,26.4,39.4c6.9,14.3,11.9,29.5,15,45.1
		c3.1,15.6,3.8,31.5,3.4,47.3l-0.8,11.8c-0.3,3.9-1,7.8-1.4,11.7c-0.8,7.9-2.6,15.5-4.2,23.2c-6.8,30.7-18.9,59.9-33.4,87.3
		c11.5-28.9,21.3-58.4,26.9-88.7s7-61.2,1.2-91.1c-5.7-30-18.8-58.1-38-81.9c-9.7-11.9-20.6-22.8-32.6-32.3
		C344.3,142.1,331.2,133.8,317.3,127z"/>
	<path fill="#F4762C" d="M286.6,133.9c26.8,14.5,49.2,36.7,66.1,62.3c8.5,12.9,15.4,26.7,20.7,41.2c5.2,14.5,9,29.5,11.2,44.8
		c2.3,15.3,2.5,30.7,2,46c-0.5,7.7-1,15.3-2.1,22.9c-0.6,3.8-0.9,7.6-1.6,11.4l-2.2,11.3c-0.7,3.8-1.6,7.5-2.6,11.2l-2.9,11.1
		c-2.1,7.3-4.6,14.5-6.9,21.8l-8.3,21.2c-3.1,6.9-6.2,13.8-9.5,20.7c10.3-28.5,18.6-57.6,23.5-87.2s6.3-59.7,2-89.1
		c-4-29.5-13.9-58-29.1-83.6c-7.7-12.8-16.6-24.8-26.6-35.9C310.3,152.5,299,142.5,286.6,133.9z"/>
	<path fill="#F4762C" d="M270.1,143.3c20.1,20,34.5,45.5,44.6,72.1s15.5,55.1,17.6,83.6l0.5,21.4c0.1,3.6,0,7.1-0.3,10.7l-0.6,10.7
		c-0.5,14.3-3.1,28.3-5.3,42.4c-0.9,7.1-3,13.9-4.6,20.8l-5.3,20.6c-4.6,13.4-9.3,26.8-14.2,40c3.1-13.8,7-27.4,10.1-41.1l3.8-20.7
		c1.2-6.9,3-13.7,3.5-20.7c1.4-13.9,3.8-27.8,3.8-41.8l0.5-10.5c0.3-3.5,0.3-7,0.2-10.5l-0.7-20.9c-1.8-27.8-6.6-55.4-15.3-81.9
		l-3.4-9.9c-1.1-3.3-2.6-6.4-3.9-9.7s-2.6-6.5-4.1-9.7l-4.6-9.4C286.3,166.2,278.8,154.3,270.1,143.3z"/>
	<path fill="#F4762C" d="M208.9,131.4c-15.1,5.7-29.6,13.1-43.1,21.8c-13.6,8.5-26.2,18.4-37.6,29.7c-22.7,22.4-39.3,50.5-46.6,81.3
		c-3.5,15.5-5.1,31.3-4.8,47.1l0.5,11.9c0.1,4,0.8,7.9,1.2,11.9c0.7,8,2.4,15.8,3.9,23.7s3.9,15.5,5.8,23.4c2.4,7.7,4.8,15.4,7.4,23
		c2.9,7.5,5.6,15.2,8.6,22.7c3.3,7.4,6.5,14.8,9.6,22.3c-16.2-28.1-30.1-58-37.9-89.9c-1.8-8-3.9-16-4.8-24.2
		c-0.5-4.1-1.4-8.1-1.6-12.2l-0.9-12.3c-0.5-16.6,1-33.2,4.6-49.4c4-16.2,10.4-31.7,18.9-45.9c8.6-14.2,19.2-27,31.5-38.2
		c12.1-11.1,25.6-20.7,40.1-28.5c7.2-3.9,14.6-7.4,22.1-10.5C193.3,136,201,133.4,208.9,131.4z"/>
	<path fill="#F4762C" d="M225.9,138.2c-12.7,8.3-24.5,18-34.9,29.1c-10.4,10.9-19.7,22.8-27.6,35.6c-15.8,25.6-25.9,54.2-29.8,84
		c-4.2,29.7-2.1,60,3.1,89.7s14.4,58.9,25.2,87.4c-13.9-27.2-25.2-56-31.8-86.1c-1.6-7.5-3.3-15.1-4.2-22.7
		c-0.5-3.8-1.2-7.6-1.5-11.5l-1-11.6c-0.7-15.5-0.6-31,1.6-46.4c2.1-15.4,5.9-30.6,11.3-45.2c5.4-14.6,12.6-28.4,21.4-41.3
		C175.2,173.7,198.5,151.9,225.9,138.2z"/>
	<path fill="#F4762C" d="M242.4,147.6c-8.7,11-16.2,23-22.4,35.6l-4.6,9.4c-1.5,3.2-2.7,6.5-4.1,9.7s-2.8,6.4-3.9,9.7l-3.4,9.9
		c-8.7,26.5-13.5,54.1-15.3,81.9l-0.7,20.9c-0.1,3.5-0.1,7,0.2,10.5l0.5,10.5c0,14,2.4,27.8,3.8,41.8c0.5,7,2.3,13.8,3.5,20.7
		l3.8,20.7c3.2,13.7,7,27.2,10.1,41.1c-5-13.2-9.6-26.6-14.2-40l-5.3-20.6c-1.6-6.9-3.7-13.7-4.6-20.8c-2.2-14-4.9-28.1-5.3-42.4
		l-0.7-10.7c-0.3-3.6-0.4-7.1-0.3-10.7l0.6-21.4c2-28.5,7.4-56.9,17.6-83.6S222.3,167.6,242.4,147.6z"/>
	<path fill="#F4762C" d="M261.9,142.4c1.7,27.1,2.8,54.2,3.4,81.3c0.7,27.1,0.9,54.2,1,81.3c-0.1,27.1-0.3,54.2-1,81.3
		s-1.7,54.2-3.4,81.3c-1.7-27.1-2.8-54.2-3.4-81.3c-0.7-27.1-0.9-54.2-0.9-81.3c0.1-27.1,0.3-54.2,1-81.3S260.3,169.6,261.9,142.4z"
		/>
	
		<linearGradient id="SVGID_2_" gradientUnits="userSpaceOnUse" x1="279.3984" y1="866.7313" x2="370.1884" y2="692.1813" gradientTransform="matrix(1 0 0 -1 -56 854)">
		<stop  offset="0.4" style="stop-color:#A97D51"/>
		<stop  offset="0.52" style="stop-color:#A77B4E"/>
		<stop  offset="0.61" style="stop-color:#9D7349"/>
		<stop  offset="0.69" style="stop-color:#8E6742"/>
		<stop  offset="0.76" style="stop-color:#785536"/>
		<stop  offset="0.82" style="stop-color:#5C3E27"/>
		<stop  offset="0.88" style="stop-color:#3C2517"/>
	</linearGradient>
	<path fill="url(#SVGID_2_)" d="M205.4,135.4c-6.4-3.1,13.6-5,17.3-11.1s5.3-13.3,6.9-20.3c2.4-11,4.8-22,7.2-33.1
		c1.5-6.8,3.1-14,7.9-19.1c5.2-5.6,52.4-21.9,66.5-21.8c18,0.2,35,13.1,44.9,28.1c-11.6-1.2-23.7-1.6-34.6,2.5s-20.5,13.7-21.3,25.4
		c-1,15,11.9,26.8,17.1,40.9C317.3,127,271.1,167.4,205.4,135.4z"/>
	<path fill="#603B17" d="M315.9,126.8c-4.9-9.2-12.6-16.2-19.7-23.8s-13.8-16.3-15.7-26.9c-1.9-10.6,0.8-21.5,7.3-30.1
		c3.2-4.2,7.5-7.6,12.3-9.8c4.8-2,10.1-2.8,15.3-2.2c-10.4-0.4-20.3,4.5-26.3,13c-6,8.3-8.4,18.6-6.5,28.7
		c1.7,10,8.1,18.5,14.8,26.2S311.6,117.2,315.9,126.8z"/>
	<path fill="#603B17" d="M212.6,136.5c5.3-1.2,10.1-4.1,13.6-8.2c3.4-4.1,5.4-9.3,6.7-14.5c2.6-10.5,2.9-21.5,6.3-32.2
		c3.5-10.7,10.3-19.9,19.5-26.3c9.1-6.4,19.5-10.2,29.9-13.4c-10.1,3.9-20.3,8.3-28.9,14.7c-8.7,6.4-15.2,15.3-18.5,25.6
		c-3.5,10.1-3.7,21.3-6.8,31.9c-1.5,5.3-3.7,10.6-7.5,14.7C223.2,133,218.1,135.6,212.6,136.5z"/>
	<path fill="#603B17" d="M228.2,143.4c7.4-3.4,13.2-9.6,16.1-17.3c3.1-7.4,4.6-15.5,6.3-23.5c1.9-7.9,4.1-16.2,9-23
		c2.5-3.4,5.6-6.3,9.1-8.5c3.6-2.1,7.5-3.6,11.6-4.4c-7.8,2.4-15,7-19.3,13.8s-6.5,14.7-8.3,22.6c-1.9,7.9-3.4,16.1-6.9,23.7
		c-1.7,3.8-4.1,7.3-7.1,10.2C235.7,139.9,232.1,142.1,228.2,143.4z"/>
	<path fill="#603B17" d="M258.4,146.5c3.8-3.7,5.9-8.4,7.3-13.3c1.2-5,2.2-10.1,3-15.2c0.7-5.2,1.9-10.3,3.5-15.3
		c1.7-5,4.2-9.8,8-13.4c-3,4.2-5.2,8.9-6.4,13.9c-1.3,5-2.1,10-2.9,15.2c-0.7,5.2-1.9,10.3-3.5,15.3
		C265.5,138.6,262.7,143.5,258.4,146.5z"/>
	<path fill="#603B17" d="M285.8,99.5c1.8,14.8-0.8,29.7-7.5,43c1.8-7.1,3.6-14.1,4.8-21.3S285.1,106.8,285.8,99.5z"/>
	<path fill="#603B17" d="M298,135.6c-1-3.9-1.6-7.8-2.3-11.6s-1.6-7.6-2.3-11.6c2.2,3.4,3.7,7.2,4.4,11.2
		C298.5,127.6,298.6,131.7,298,135.6z"/>
	<path fill="#603B17" d="M290.6,54.7c4.1-3.5,8.8-6,14-7.5c5.2-1.5,10.6-2,16-1.5c5.3,0.4,10.6,1.6,15.6,3.6c5,1.9,9.7,4.4,14,7.5
		c-9.4-4.7-19.4-8.1-29.7-8.9c-5.1-0.4-10.3-0.1-15.4,1C300,50,295.1,51.9,290.6,54.7z"/>
	<path fill="#603B17" d="M342.3,45.5c-3.1-1.7-6.4-3.2-9.8-4.4c-3.3-1.3-6.7-2.4-10.2-3.3c1.8-0.4,3.7-0.4,5.6-0.1
		c1.8,0.3,3.7,0.7,5.4,1.4c1.8,0.7,3.4,1.5,5,2.5C339.9,42.6,341.3,43.9,342.3,45.5z"/>
	<path fill="#603B17" d="M288.6,78.7c4.8-11.8,15.8-19.8,28.4-20.9C305.6,61.6,295.6,68.9,288.6,78.7z"/>
	<path fill="#603B17" d="M296.4,96c-1.2-2.2-1.4-4.9-0.6-7.2c0.8-2.3,2.1-4.4,3.8-6.1c-0.3,2.3-0.9,4.6-1.8,6.8
		C297.2,91.6,296.7,93.8,296.4,96z"/>
	
		<radialGradient id="SVGID_3_" cx="239.7296" cy="659.2219" r="108.75" gradientTransform="matrix(1 0 0 -1 -56 854)" gradientUnits="userSpaceOnUse">
		<stop  offset="0" style="stop-color:#231F20"/>
		<stop  offset="0.4" style="stop-color:#252122"/>
		<stop  offset="0.57" style="stop-color:#2B2829"/>
		<stop  offset="0.69" style="stop-color:#383535"/>
		<stop  offset="0.8" style="stop-color:#484648"/>
		<stop  offset="0.88" style="stop-color:#5C5C5F"/>
		<stop  offset="0.94" style="stop-color:#6E6F72"/>
	</radialGradient>
	<path fill="url(#SVGID_3_)" d="M202.4,285.9c0,0-3.2-46.5-11.2-73c-1.3-4.1-1.4-8.6-3.5-12.3c-0.6-1.2-1.6-2.2-2.9-2.7
		c-1.8-0.5-3.5,0.7-5,1.8c-22.9,18.1-37,44.9-50.4,70.8c-0.8,1.6-1.7,3.4-1.1,5.1c0.8,2.2,3.4,2.9,5.6,3.4
		C157.1,283.8,179.9,287.8,202.4,285.9z"/>
	
		<radialGradient id="SVGID_4_" cx="381.5996" cy="634.2619" r="110.46" gradientTransform="matrix(1 0 0 -1 -56 854)" gradientUnits="userSpaceOnUse">
		<stop  offset="0" style="stop-color:#231F20"/>
		<stop  offset="0.24" style="stop-color:#252223"/>
		<stop  offset="0.4" style="stop-color:#2E2A2C"/>
		<stop  offset="0.53" style="stop-color:#3C3A3C"/>
		<stop  offset="0.65" style="stop-color:#504F51"/>
		<stop  offset="0.76" style="stop-color:#69696C"/>
		<stop  offset="0.78" style="stop-color:#6E6F72"/>
	</radialGradient>
	<path fill="url(#SVGID_4_)" d="M300.7,285.9c0,0,3.2-46.5,11.2-73c1.2-4.1,1.3-8.6,3.5-12.3c0.6-1.2,1.6-2.2,2.9-2.7
		c1.8-0.5,3.5,0.7,5,1.8c22.9,18.1,37,44.9,50.4,70.8c0.8,1.6,1.7,3.4,1.1,5.1c-0.8,2.2-3.4,2.9-5.6,3.4
		C346,283.8,323.2,287.8,300.7,285.9z"/>
	
		<radialGradient id="SVGID_5_" cx="313.4996" cy="586.5419" r="68.12" gradientTransform="matrix(1 0 0 -1 -56 854)" gradientUnits="userSpaceOnUse">
		<stop  offset="0" style="stop-color:#231F20"/>
		<stop  offset="0.33" style="stop-color:#252122"/>
		<stop  offset="0.49" style="stop-color:#2C292A"/>
		<stop  offset="0.61" style="stop-color:#393638"/>
		<stop  offset="0.71" style="stop-color:#4A484A"/>
		<stop  offset="0.8" style="stop-color:#5F5F62"/>
		<stop  offset="0.85" style="stop-color:#6E6F72"/>
	</radialGradient>
	<path fill="url(#SVGID_5_)" d="M235.5,317.4c0,0,15.6-39.2,17.1-40.9c0.4-0.6,1-1,1.7-1.1c1,0.1,1.8,0.6,2.4,1.4
		c10,11.5,13.3,25.1,17.7,39.7c0.3,0.9,0.9,2.3,0.1,2.7C272.7,320.3,246.4,318.6,235.5,317.4z"/>
	
		<linearGradient id="SVGID_6_" gradientUnits="userSpaceOnUse" x1="309.1566" y1="618.9319" x2="309.1566" y2="373.2019" gradientTransform="matrix(1 0 0 -1 -56 854)">
		<stop  offset="0.61" style="stop-color:#231F20"/>
		<stop  offset="0.81" style="stop-color:#535254"/>
		<stop  offset="0.94" style="stop-color:#6E6F72"/>
	</linearGradient>
	<path fill="url(#SVGID_6_)" d="M368,363.7c-10.8,2.2-23.3,0.6-33.5-0.4l1.4-20.5c-13.6-0.1-29.3,2-40,4c-0.2,7.3-1.3,20.3-1.5,27.5
		c-10.2-1-20.4-1.4-30.6-1.1c-0.6-6.9-1-20.6-1.3-21s-22.5-0.6-32.7,1.3c0.3,6.9-0.1,12.5,0.6,19.4c-11.1-0.8-22.2-0.3-33.2,1.4
		c-1.6-6.8-1.6-17.6-1.9-24.5c-5.2-3.5-24.6-6.4-30.9-5.7c-0.1,6.7-2.7,13.4-2.1,20.1c-8.9,0.9-17.2-1.1-26.1-0.4
		c0.5-7,1.6-13.9,3.4-20.7l-0.6,0.8c-13.5,1.2-27-2-38.6-9c-2.2,15.5-2.3,32.4,3.7,47.1c5.1,12.4,13.2,23.4,23.5,32
		c5.8,5,12.4,9,19.4,11.9c0.6-1.2,1.7-7.2,2-10.8c0.2-1.8,0.5-7.4,1-9.7l0.1,0.1c8.9,0.8,17.8,1.6,26.6,2.5
		c-0.6,6.7-0.8,13.4-0.7,20.1l18.9,2c0.3-7,1.2-13.9,2.8-20.8c11,1.7,22.1,2.2,33.2,1.4c-0.8,6.8-1.3,13.7-1.6,20.5
		c10.3,1.8,20.8,2.4,31.2,1.8c0.9,0.2,1.8-0.4,2-1.3c0-0.2,0-0.4,0-0.6l1.8-20.8c10.2,0.2,20.5-0.1,30.6-1.1l0.5,21.8
		c10.8-1.2,21.6-2.7,32.3-4.5l-1.4-20.5l30.2-0.5l-0.1-0.2c0.5,2.3,0.8,8,1,9.7c0.3,3.6,1.5,9.6,2,10.8c7.1-2.9,13.6-6.9,19.5-11.9
		c10.3-8.6,18.4-19.6,23.5-32c6-14.7,5.9-31.6,3.7-47.1c-11.6,7-25.1,10.2-38.6,9l-0.6-0.8c1.8,6.8,3,13.7,3.5,20.7"/>
	
		<linearGradient id="SVGID_7_" gradientUnits="userSpaceOnUse" x1="273.945" y1="724.3875" x2="216.965" y2="779.3674" gradientTransform="matrix(1 0 0 -1 -56 854)">
		<stop  offset="9.000000e-02" style="stop-color:#046938"/>
		<stop  offset="9.000000e-02" style="stop-color:#046B38"/>
		<stop  offset="0.14" style="stop-color:#198642"/>
		<stop  offset="0.2" style="stop-color:#299A48"/>
		<stop  offset="0.27" style="stop-color:#31A949"/>
		<stop  offset="0.35" style="stop-color:#37B24A"/>
		<stop  offset="0.47" style="stop-color:#3DB54A"/>
		<stop  offset="0.58" style="stop-color:#37B24A"/>
		<stop  offset="0.65" style="stop-color:#31A949"/>
		<stop  offset="0.72" style="stop-color:#299A48"/>
		<stop  offset="0.78" style="stop-color:#178542"/>
		<stop  offset="0.84" style="stop-color:#046938"/>
		<stop  offset="0.84" style="stop-color:#046938"/>
	</linearGradient>
	<path fill="url(#SVGID_7_)" d="M221.9,132.4c-0.1-3.2-1-6.3-2.6-9.1c-1.5-2.7-3.4-5.3-5.5-7.6c-2.1-2.3-4.4-4.4-6.9-6.2
		c-2.4-1.7-5.1-2.9-8-3.4c-1.2-0.2-2.5-0.1-3.7,0.3c-0.5,0.2-1,0.5-1.4,0.9c-0.4,0.3-0.7,0.8-1,1.2c-0.5,1-0.7,2.1-0.6,3.1
		c0.1,1,0.6,1.9,1.4,2.6c0.8,0.7,1.8,1.1,2.8,1.1c0.5,0,1,0,1.4-0.2c0.5-0.1,0.9-0.4,1.3-0.7c0.9-0.7,1.7-1.6,2.1-2.6
		c0.5-1.1,0.8-2.4,0.9-3.6c0.1-1.4,0.1-2.8-0.1-4.2c-0.2-1.5-0.4-3-0.7-4.5c-0.5-2.9-1.5-5.6-2.8-8.2c-1.3-2.4-3.2-4.4-5.6-5.8
		c-2.5-1.4-5.3-2.2-8.1-2.4c-3-0.2-6,0-9,0.6c-3.1,0.6-6,1.5-8.9,2.7c-3,1.2-6.1,2.3-9.2,3.2c-1.6,0.4-3.2,0.7-4.9,0.8
		c-1.6,0.1-3.3-0.1-4.9-0.4c3.2,0,6.3-0.6,9.2-1.9c2.9-1.2,5.7-2.8,8.5-4.3c2.9-1.6,6-2.9,9.2-3.9c3.3-0.9,6.7-1.4,10.1-1.4
		c3.6,0,7.1,0.9,10.4,2.5c3.3,1.7,6.1,4.3,7.9,7.5c1.7,3.1,3,6.4,3.6,9.9c0.3,1.7,0.6,3.3,0.8,5c0.2,1.8,0.2,3.6,0.1,5.4
		c-0.2,2-0.7,3.9-1.6,5.6c-0.9,1.9-2.3,3.5-4,4.7c-0.9,0.6-1.9,1.1-3,1.4c-1.1,0.3-2.2,0.4-3.4,0.3c-2.2-0.2-4.2-1.2-5.8-2.7
		c-1.6-1.5-2.6-3.6-2.8-5.9c-0.2-2.1,0.3-4.3,1.5-6.1c0.6-0.9,1.3-1.7,2.2-2.3c0.8-0.6,1.8-1.1,2.8-1.4c1.9-0.5,3.9-0.6,5.8-0.1
		c1.8,0.4,3.4,1.1,5,2c1.5,0.8,2.9,1.8,4.2,2.9c2.5,2.1,4.8,4.6,6.8,7.2c2,2.6,3.6,5.5,4.9,8.5C221.7,125.8,222.2,129.1,221.9,132.4
		z"/>
	
		<linearGradient id="SVGID_8_" gradientUnits="userSpaceOnUse" x1="341.1075" y1="712.9623" x2="372.6075" y2="676.8423" gradientTransform="matrix(1 0 0 -1 -56 854)">
		<stop  offset="6.000000e-02" style="stop-color:#046938"/>
		<stop  offset="0.12" style="stop-color:#127C3F"/>
		<stop  offset="0.24" style="stop-color:#299A48"/>
		<stop  offset="0.34" style="stop-color:#34AE4A"/>
		<stop  offset="0.41" style="stop-color:#3DB54A"/>
		<stop  offset="0.52" style="stop-color:#36AF4A"/>
		<stop  offset="0.66" style="stop-color:#2A9F48"/>
		<stop  offset="0.81" style="stop-color:#178441"/>
		<stop  offset="0.94" style="stop-color:#046938"/>
	</linearGradient>
	<path fill="url(#SVGID_8_)" d="M288.2,135.2c-1.6,2.1-2.9,4.4-3.8,6.9c-0.9,2.4-1.5,4.9-1.6,7.4c-0.2,2.3,0.3,4.7,1.4,6.7
		c0.6,0.9,1.3,1.6,2.2,2.2c0.9,0.6,1.9,0.9,3,1.1c2.3,0.4,4.6,0.4,6.9-0.2c2.2-0.4,4.4-1.4,6.2-2.7c0.8-0.6,1.4-1.3,1.9-2.1
		c0.4-0.7,0.6-1.5,0.5-2.3c-0.1-0.9-0.3-1.8-0.8-2.6c-0.4-0.9-1-1.7-1.8-2.3c-0.2-0.2-0.5-0.4-0.8-0.5c-0.2-0.1-0.4-0.1-0.6-0.1
		c-0.7,0.2-1.3,0.6-1.8,1.1c-1.5,1.7-2.6,3.6-3.2,5.8c-0.7,2.2-1,4.5-0.8,6.7c0.1,1,0.4,2,0.9,2.8c0.3,0.5,0.6,0.9,1,1.4
		c0.4,0.5,0.8,0.9,1.2,1.4c3.4,3.6,7.8,6.2,12.7,7.2c2.5,0.5,5.1,0.7,7.6,0.5l1.9-0.2c0.6-0.1,1.3-0.3,1.9-0.4l1-0.2l1-0.3l1.9-0.5
		c-2.3,1.4-4.9,2.4-7.5,3.1c-2.7,0.7-5.5,0.9-8.3,0.7c-5.8-0.5-11.2-2.9-15.4-6.8c-0.5-0.5-1-1-1.5-1.5c-0.5-0.6-1-1.2-1.5-1.8
		c-0.9-1.4-1.5-3-1.8-4.6c-0.5-3-0.3-6.1,0.5-9.1c0.4-1.5,0.9-2.9,1.6-4.2c0.7-1.4,1.6-2.8,2.7-3.9c0.6-0.7,1.3-1.2,2.1-1.7
		c0.4-0.3,0.9-0.5,1.3-0.7c0.5-0.2,1-0.3,1.6-0.4c1.1-0.2,2.3-0.1,3.4,0.3c1,0.4,1.8,0.9,2.6,1.6c0.3,0.3,0.7,0.6,1,1
		c0.3,0.3,0.6,0.7,0.8,1l0.7,1l0.6,1.1c0.8,1.5,1.3,3.3,1.4,5c0,1.9-0.4,3.7-1.4,5.3c-0.9,1.4-2.1,2.7-3.5,3.6
		c-2.5,1.7-5.4,2.9-8.5,3.3c-3,0.5-6,0.4-8.9-0.4c-1.5-0.4-3-1.2-4.3-2.1c-1.3-1-2.3-2.3-3.1-3.8c-1.2-2.8-1.6-5.9-0.9-8.8
		c0.6-2.7,1.6-5.4,3-7.8C284.4,139.1,286.1,137,288.2,135.2z"/>
	
		<linearGradient id="SVGID_9_" gradientUnits="userSpaceOnUse" x1="201.7874" y1="783.5217" x2="204.7374" y2="745.7817" gradientTransform="matrix(1 0 0 -1 -56 854)">
		<stop  offset="9.000000e-02" style="stop-color:#046938"/>
		<stop  offset="0.15" style="stop-color:#127C3F"/>
		<stop  offset="0.28" style="stop-color:#299A48"/>
		<stop  offset="0.39" style="stop-color:#34AE4A"/>
		<stop  offset="0.47" style="stop-color:#3DB54A"/>
		<stop  offset="0.54" style="stop-color:#36AF4A"/>
		<stop  offset="0.64" style="stop-color:#2A9F48"/>
		<stop  offset="0.75" style="stop-color:#178441"/>
		<stop  offset="0.84" style="stop-color:#046938"/>
	</linearGradient>
	<path fill="url(#SVGID_9_)" d="M172.1,84.5c0,0-11.1-13.6-25.9-4.3s-22.8-0.9-24.9-1.6C121.2,78.5,145.1,120.5,172.1,84.5z"/>
	
		<linearGradient id="SVGID_10_" gradientUnits="userSpaceOnUse" x1="321.3399" y1="703.6719" x2="328.3599" y2="682.4119" gradientTransform="matrix(1 0 0 -1 -56 854)">
		<stop  offset="9.000000e-02" style="stop-color:#046938"/>
		<stop  offset="0.15" style="stop-color:#127C3F"/>
		<stop  offset="0.28" style="stop-color:#299A48"/>
		<stop  offset="0.39" style="stop-color:#34AE4A"/>
		<stop  offset="0.47" style="stop-color:#3DB54A"/>
		<stop  offset="0.54" style="stop-color:#36AF4A"/>
		<stop  offset="0.64" style="stop-color:#2A9F48"/>
		<stop  offset="0.75" style="stop-color:#178441"/>
		<stop  offset="0.84" style="stop-color:#046938"/>
	</linearGradient>
	<path fill="url(#SVGID_10_)" d="M281.4,152.5c0,0-8.8-4.9-14.6,3.2s-12.3,4.3-13.5,4.4C253.2,160.1,274.6,177.3,281.4,152.5z"/>
	
		<linearGradient id="SVGID_11_" gradientUnits="userSpaceOnUse" x1="388.7665" y1="694.4221" x2="385.4665" y2="657.1621" gradientTransform="matrix(1 0 0 -1 -56 854)">
		<stop  offset="9.000000e-02" style="stop-color:#046938"/>
		<stop  offset="0.14" style="stop-color:#127C3F"/>
		<stop  offset="0.25" style="stop-color:#299A48"/>
		<stop  offset="0.35" style="stop-color:#34AE4A"/>
		<stop  offset="0.41" style="stop-color:#3DB54A"/>
		<stop  offset="0.5" style="stop-color:#36AF4A"/>
		<stop  offset="0.61" style="stop-color:#2A9F48"/>
		<stop  offset="0.74" style="stop-color:#178441"/>
		<stop  offset="0.84" style="stop-color:#046938"/>
	</linearGradient>
	<path fill="url(#SVGID_11_)" d="M308.8,174.9c0,0,8.6-14,23.5-7.4s21-3.8,22.9-4.8C355.1,162.8,338.5,204.8,308.8,174.9z"/>
	
		<linearGradient id="SVGID_12_" gradientUnits="userSpaceOnUse" x1="266.9696" y1="770.6319" x2="279.1996" y2="754.1819" gradientTransform="matrix(1 0 0 -1 -56 854)">
		<stop  offset="9.000000e-02" style="stop-color:#046938"/>
		<stop  offset="0.15" style="stop-color:#127C3F"/>
		<stop  offset="0.28" style="stop-color:#299A48"/>
		<stop  offset="0.39" style="stop-color:#34AE4A"/>
		<stop  offset="0.47" style="stop-color:#3DB54A"/>
		<stop  offset="0.54" style="stop-color:#36AF4A"/>
		<stop  offset="0.64" style="stop-color:#2A9F48"/>
		<stop  offset="0.75" style="stop-color:#178441"/>
		<stop  offset="0.84" style="stop-color:#046938"/>
	</linearGradient>
	<path fill="url(#SVGID_12_)" d="M205.9,98.5c0,0-0.4-9.2,8.6-10.7s8.6-8.3,9.2-9.3C223.7,78.5,229,103.3,205.9,98.5z"/>
</g>
</svg>
