<?xml version="1.0" encoding="UTF-8"?>
<svg xmlns="http://www.w3.org/2000/svg" viewBox="0 0 100 100">
  <defs>
    <style>
      .cls-1 {
        fill: none;
        stroke: #231f20;
        stroke-miterlimit: 10;
      }

      .cls-2 {
        fill: #39b8c9;
        stroke-width: 0px;
      }
    </style>
  </defs>
  <g id="Layer_2" data-name="Layer 2">
    <rect class="cls-2" x="0" y="0" width="100" height="100"/>
  </g>
  <g id="Layer_1" data-name="Layer 1">
    <line class="cls-1" x1="10" y1="0" x2="10.00" y2="100"/>
    <line class="cls-1" x1="20" y1="0" x2="20.00" y2="100"/>
    <line class="cls-1" x1="30" y1="0" x2="30.00" y2="100"/>
    <line class="cls-1" x1="40" y1="0" x2="40.00" y2="100"/>
    <line class="cls-1" x1="50" y1="0" x2="50.00" y2="100"/>
    <line class="cls-1" x1="60" y1="0" x2="60.00" y2="100"/>
    <line class="cls-1" x1="70" y1="0" x2="70.00" y2="100"/>
    <line class="cls-1" x1="80" y1="0" x2="80.00" y2="100"/>
    <line class="cls-1" x1="90" y1="0" x2="90.00" y2="100"/>
    <line class="cls-1" x1="99.50" y1="0" x2="99.50" y2="100"/>
    <line class="cls-1" x1=".50" y1="0" x2=".50" y2="100"/>
    <line class="cls-1" x1="100.00" y1=".50" x2="0" y2=".50"/>
    <line class="cls-1" x1="100.00" y1="99.50" x2="0" y2="99.50"/>
    <line class="cls-1" x1="100" y1="10" x2="0" y2="10"/>
    <line class="cls-1" x1="100" y1="20" x2="0" y2="20"/>
    <line class="cls-1" x1="100" y1="30" x2="0" y2="30"/>
    <line class="cls-1" x1="100" y1="40" x2="0" y2="40"/>
    <line class="cls-1" x1="100" y1="50" x2="0" y2="50"/>
    <line class="cls-1" x1="100" y1="60" x2="0" y2="60"/>
    <line class="cls-1" x1="100" y1="70" x2="0" y2="70"/>
    <line class="cls-1" x1="100" y1="80" x2="0" y2="80"/>
    <line class="cls-1" x1="100" y1="90" x2="0" y2="90"/>
  </g>
</svg>