<?xml version="1.0" encoding="UTF-8"?>
<svg id="Layer_2" data-name="Layer 2" xmlns="http://www.w3.org/2000/svg" viewBox="0 0 300 100">
  <defs>
    <style>
      .cls-1 {
        fill: #4f6d8c;
      }

      .cls-1, .cls-2, .cls-3, .cls-4, .cls-5, .cls-6, .cls-7, .cls-8, .cls-9 {
        stroke-width: 0px;
      }

      .cls-2 {
        fill: #19313d;
      }

      .cls-3 {
        fill: #e4355c;
      }

      .cls-4 {
        fill: #36556e;
      }

      .cls-5 {
        fill: #5c789a;
      }

      .cls-6 {
        fill: #04090d;
      }

      .cls-7 {
        fill: #f2736d;
      }

      .cls-8 {
        fill: #396384;
      }

      .cls-9 {
        fill: #274152;
      }
    </style>
  </defs>
  <g id="Layer_2-2" data-name="Layer 2">
    <g id="Layer">
      <g>
        <path class="cls-1" d="m42.91,59.32c0,.72-.57,1.35-1.28,1.35h-7.34c-.71,0-.94-.63-.55-1.35l2.25-4.19c.2-.38.74-.68,1.21-.68h4.86c.46,0,.84.29.84.68v4.19h0Z"/>
        <rect class="cls-1" x="1.72" y="64.27" width="19.97" height="4.85"/>
        <rect class="cls-4" x="115.66" y="6.49" width="4.26" height="4.6"/>
        <path class="cls-1" d="m121.54,6.67c0,.16-.1.27-.2.27h-6.98c-.12,0-.2-.13-.2-.27v-3.42c0-.16.1-.27.2-.27h6.98c.12,0,.2.13.2.27v3.42Z"/>
        <rect class="cls-4" x="176.13" y="43.92" width="3.5" height="3.79"/>
        <path class="cls-1" d="m180.97,44.07c0,.13-.08.23-.16.23h-5.76c-.1,0-.16-.1-.16-.23v-2.81c0-.13.08-.23.16-.23h5.76c.1,0,.16.1.16.23v2.81Z"/>
        <rect class="cls-4" x="54.55" y="45.45" width="1.87" height="2.02"/>
        <path class="cls-1" d="m57.13,45.53c0,.07-.04.12-.09.12h-3.07s-.09-.06-.09-.12v-1.5c0-.07.04-.12.09-.12h3.07s.09.06.09.12v1.5Z"/>
        <polygon class="cls-1" points="144.07 30.98 146.5 30.98 146.5 24.31 145.43 24.31 144.07 30.98"/>
        <polygon class="cls-1" points="149.3 30.98 146.88 30.98 146.88 24.31 147.95 24.31 149.3 30.98"/>
        <polygon class="cls-1" points="197.44 60.54 202.65 60.54 202.65 51.25 200.36 51.25 197.44 60.54"/>
        <polygon class="cls-4" points="207.37 60.54 202.16 60.54 202.16 51.25 204.45 51.25 207.37 60.54"/>
        <rect class="cls-4" x="86.53" y="6.49" width="4.26" height="4.6"/>
        <path class="cls-5" d="m136.78,49.27l-13.86-38.38c-.19-.36-1.19-.66-2.22-.66h-35.55c-1.04,0-2.03.29-2.22.66l-17.79,38.38h71.66,0Z"/>
        <path class="cls-8" d="m135.86,46.72l-12.94-35.83c-.12-.23-6.37-.42-6.93-.54l11.13,36.37h8.73Z"/>
        <path class="cls-1" d="m166.04,67.23l-11.19-35.73c-.19-.42-1.19-.76-2.22-.76h-30.65l11.43,36.49h32.65,0Z"/>
        <path class="cls-4" d="m189.3,61.94l-6.5-13.89c-.19-.42-1.19-.76-2.22-.76H55.67c-1.04,0-2.03.33-2.22.76l-6.5,13.89s142.36,0,142.36,0Z"/>
        <g>
          <g>
            <g>
              <polygon class="cls-4" points="247.01 58.74 256.66 48.86 256.49 48.56 246.85 58.44 247.01 58.74"/>
              <polygon class="cls-1" points="249.48 56.99 252.76 53.62 251.98 52.25 248.7 55.6 249.48 56.99"/>
              <path class="cls-5" d="m251.53,64.46l-9.64,2.15c-1.86-1.74-1.17-4.46-.4-7.31.79-2.94,1.56-5.04,3.41-5.04h3.14c1.54,0,2.27,1.41,3.29,3.72.93,2.1,1.05,4.59.19,6.48Z"/>
            </g>
            <g>
              <polygon class="cls-4" points="220 55.09 229.65 45.22 229.47 44.92 219.84 54.8 220 55.09"/>
              <polygon class="cls-1" points="222.47 53.35 225.75 49.98 224.98 48.6 221.7 51.97 222.47 53.35"/>
              <path class="cls-5" d="m224.51,60.82l-9.64,2.15c-1.86-1.74-1.17-4.46-.4-7.31.79-2.94,1.56-5.04,3.41-5.04h3.14c1.54,0,2.27,1.41,3.29,3.72.93,2.1,1.05,4.59.19,6.48h0Z"/>
            </g>
            <rect class="cls-1" x="32.13" y="59.75" width="207.01" height="19.66"/>
            <path class="cls-9" d="m247.17,58.48l-2.2,3.32H43.96c-1.21,3.89-7.04,6.83-14.05,6.83H.42l2.44,9.56h281.94l15.21-22.94-52.83,3.24h0Z"/>
            <path class="cls-3" d="m284.72,77.7H2.64l1.23,6.12c.22,0,3.06,0,3.37.02l1.59,10.41h4.81l1.5-9.84c2.72.24,5.91.53,9.44.86v3.22h-3.73v1.8h50.88c10.38,1.61,12.36,3.24,12.36,3.24h167.56c5.53,0,12.7,6.47,20.55,6.47,10.67,0,11.74.36,9.07-6.12-2.67-6.47,3.47-16.18,3.47-16.18h0Zm-257.22,7.85c8.64.84,18.87,1.89,28.87,2.94h-28.87s0-2.94,0-2.94Z"/>
            <polygon class="cls-6" points="39.13 67.13 .19 67.13 0 65.89 39.13 65.89 39.13 67.13"/>
          </g>
          <path class="cls-7" d="m280.59,89.9c.13-5.85,4.14-12.2,4.14-12.2H2.64l.77,3.86,277.16,8.35h0Z"/>
          <polygon class="cls-2" points=".96 70.74 2.85 78.18 284.79 78.18 298.78 57.07 219.77 71.11 .96 70.74"/>
        </g>
        <path class="cls-1" d="m124.17,9.79c0,.49-.29.88-.66.88h-42.23c-.36,0-.66-.39-.66-.88h0c0-.49.29-.88.66-.88h42.23c.36,0,.66.39.66.88h0Z"/>
        <path class="cls-4" d="m155.81,30.83c0,.49-.29.88-.66.88h-33.42c-.36,0-.66-.39-.66-.88h0c0-.49.29-.88.66-.88h33.42c.36,0,.66.39.66.88h0Z"/>
        <path class="cls-1" d="m183.51,47.76c0,.49-.29.88-.66.88H53.5c-.36,0-.66-.39-.66-.88h0c0-.49.29-.88.66-.88h129.35c.36,0,.66.39.66.88h0Z"/>
        <path class="cls-1" d="m114.68,19.71c0,.36-.22.66-.49.66h-23.9c-.27,0-.49-.29-.49-.66v-4.85c0-.36.22-.66.49-.66h23.9c.27,0,.49.29.49.66v4.85Z"/>
        <path class="cls-1" d="m114.68,31.4c0,.36-.22.66-.49.66h-23.9c-.27,0-.49-.29-.49-.66v-8.16c0-.36.22-.66.49-.66h23.9c.27,0,.49.29.49.66,0,0,0,8.16,0,8.16Z"/>
        <path class="cls-1" d="m92.41,6.67c0,.16-.1.27-.2.27h-6.98c-.12,0-.2-.13-.2-.27v-3.42c0-.16.1-.27.2-.27h6.98c.12,0,.2.13.2.27v3.42Z"/>
        <rect class="cls-1" x="82.92" y="15.08" width="4.59" height="4.85"/>
        <rect class="cls-1" x="82.92" y="22.14" width="4.59" height="4.85"/>
        <rect class="cls-1" x="82.92" y="28.42" width="2.62" height="6.41"/>
        <polygon class="cls-4" points="124.2 20.38 121.58 20.38 120.22 13.97 122.84 13.97 124.2 20.38"/>
        <polygon class="cls-4" points="126.17 28 123.54 28 122.18 21.59 124.8 21.59 126.17 28"/>
        <rect class="cls-4" x="133.01" y="34.5" width="20.3" height="1.33"/>
        <polygon class="cls-1" points="98.27 9.35 101.66 9.35 101.66 0 100.17 0 98.27 9.35"/>
        <polygon class="cls-1" points="105.6 9.35 102.2 9.35 102.2 0 103.7 0 105.6 9.35"/>
        <path class="cls-4" d="m205.75,46.35c.08.34.12.71.12,1.09,0,1.89-.98,3.43-2.18,3.43h-2.52c-1.2,0-2.18-1.53-2.18-3.43,0-.38.04-.75.12-1.09-.44.62-.71,1.45-.71,2.37,0,1.89,1.14,3.43,2.54,3.43h2.96c1.4,0,2.54-1.53,2.54-3.43,0-.92-.27-1.75-.71-2.37h0Z"/>
        <ellipse class="cls-5" cx="202.51" cy="46.68" rx="3.16" ry="4.27"/>
        <rect class="cls-4" x="103.22" y="34.94" width="9.17" height="2.65"/>
        <rect class="cls-4" x="93.07" y="38.46" width="7.21" height="1.77"/>
        <rect class="cls-4" x="106.49" y="41.56" width="14.73" height="1.77"/>
        <rect class="cls-4" x="75.06" y="31.85" width="12.11" height="3.97"/>
        <rect class="cls-6" x="45.83" y="63.1" width="4.12" height="1.89"/>
        <rect class="cls-6" x="52.05" y="63.1" width="4.12" height="1.89"/>
        <rect class="cls-6" x="58.27" y="63.1" width="4.12" height="1.89"/>
        <rect class="cls-6" x="64.49" y="63.1" width="4.12" height="1.89"/>
        <rect class="cls-6" x="70.71" y="63.1" width="4.11" height="1.89"/>
        <rect class="cls-6" x="76.93" y="63.1" width="4.12" height="1.89"/>
        <rect class="cls-4" x="81.61" y="65.37" width="14.4" height="5.52"/>
        <rect class="cls-5" x="79.49" y="64.58" width="18.33" height=".88"/>
        <rect class="cls-4" x="103.22" y="65.37" width="14.4" height="5.52"/>
        <rect class="cls-5" x="101.1" y="64.58" width="18.33" height=".88"/>
      </g>
    </g>
  </g>
</svg>