<?xml version="1.0" encoding="UTF-8"?>
<svg id="Layer_2" data-name="Layer 2" xmlns="http://www.w3.org/2000/svg" viewBox="0 0 280.08 79.97">
  <defs>
    <style>
      .cls-1 {
        fill: #4f6d8c;
      }

      .cls-1, .cls-2, .cls-3, .cls-4, .cls-5, .cls-6, .cls-7, .cls-8, .cls-9 {
        stroke-width: 0px;
      }

      .cls-2 {
        fill: #19313d;
      }

      .cls-3 {
        fill: #e4355c;
      }

      .cls-4 {
        fill: #36556e;
      }

      .cls-5 {
        fill: #5c789a;
      }

      .cls-6 {
        fill: #04090d;
      }

      .cls-7 {
        fill: #f2736d;
      }

      .cls-8 {
        fill: #396384;
      }

      .cls-9 {
        fill: #274152;
      }
    </style>
  </defs>
  <g id="Layer_2-2" data-name="Layer 2-2">
    <g id="Layer">
      <g>
        <path class="cls-1" d="m40.06,47.44c0,.58-.53,1.08-1.19,1.08h-6.85c-.66,0-.88-.5-.51-1.08l2.1-3.35c.19-.3.69-.54,1.13-.54h4.54c.43,0,.78.23.78.54v3.35h0Z"/>
        <rect class="cls-1" x="1.61" y="51.4" width="18.64" height="3.88"/>
        <rect class="cls-4" x="107.98" y="5.19" width="3.98" height="3.68"/>
        <path class="cls-1" d="m113.47,5.33c0,.13-.09.22-.19.22h-6.52c-.11,0-.19-.1-.19-.22v-2.73c0-.13.09-.22.19-.22h6.52c.11,0,.19.1.19.22v2.73Z"/>
        <rect class="cls-4" x="164.43" y="35.12" width="3.27" height="3.03"/>
        <path class="cls-1" d="m168.95,35.24c0,.1-.07.18-.15.18h-5.38c-.09,0-.15-.08-.15-.18v-2.25c0-.1.07-.18.15-.18h5.38c.09,0,.15.08.15.18v2.25Z"/>
        <rect class="cls-4" x="50.93" y="36.35" width="1.75" height="1.62"/>
        <path class="cls-1" d="m53.34,36.41c0,.06-.04.1-.08.1h-2.87s-.08-.05-.08-.1v-1.2c0-.06.04-.1.08-.1h2.87s.08.05.08.1v1.2Z"/>
        <polygon class="cls-1" points="134.5 24.77 136.77 24.77 136.77 19.44 135.77 19.44 134.5 24.77"/>
        <polygon class="cls-1" points="139.38 24.77 137.12 24.77 137.12 19.44 138.12 19.44 139.38 24.77"/>
        <polygon class="cls-1" points="184.33 48.41 189.19 48.41 189.19 40.98 187.05 40.98 184.33 48.41"/>
        <polygon class="cls-4" points="193.6 48.41 188.73 48.41 188.73 40.98 190.87 40.98 193.6 48.41"/>
        <rect class="cls-4" x="80.78" y="5.19" width="3.98" height="3.68"/>
        <path class="cls-5" d="m127.7,39.4l-12.94-30.69c-.18-.29-1.11-.53-2.07-.53h-33.19c-.97,0-1.9.23-2.07.53l-16.61,30.69h66.9-.02Z"/>
        <path class="cls-8" d="m126.84,37.36l-12.08-28.65c-.11-.18-5.95-.34-6.47-.43l10.39,29.08h8.16Z"/>
        <path class="cls-1" d="m155.01,53.76l-10.45-28.57c-.18-.34-1.11-.61-2.07-.61h-28.61l10.67,29.18h30.48-.02Z"/>
        <path class="cls-4" d="m176.73,49.53l-6.07-11.11c-.18-.34-1.11-.61-2.07-.61H51.97c-.97,0-1.9.26-2.07.61l-6.07,11.11h132.9,0Z"/>
        <g>
          <g>
            <g>
              <polygon class="cls-4" points="230.6 46.97 239.61 39.07 239.45 38.83 230.45 46.73 230.6 46.97"/>
              <polygon class="cls-1" points="232.91 45.57 235.97 42.88 235.24 41.78 232.18 44.46 232.91 45.57"/>
              <path class="cls-5" d="m234.82,51.55l-9,1.72c-1.74-1.39-1.09-3.57-.37-5.85.74-2.35,1.46-4.03,3.18-4.03h2.93c1.44,0,2.12,1.13,3.07,2.97.87,1.68.98,3.67.18,5.18h0Z"/>
            </g>
            <g>
              <polygon class="cls-4" points="205.39 44.06 214.4 36.16 214.23 35.92 205.24 43.82 205.39 44.06"/>
              <polygon class="cls-1" points="207.69 42.66 210.76 39.97 210.04 38.87 206.97 41.56 207.69 42.66"/>
              <path class="cls-5" d="m209.6,48.64l-9,1.72c-1.74-1.39-1.09-3.57-.37-5.85.74-2.35,1.46-4.03,3.18-4.03h2.93c1.44,0,2.12,1.13,3.07,2.97.87,1.68.98,3.67.18,5.18h0Z"/>
            </g>
            <rect class="cls-1" x="30" y="47.78" width="193.26" height="15.72"/>
            <path class="cls-9" d="m230.75,46.77l-2.05,2.65H41.04c-1.13,3.11-6.57,5.46-13.12,5.46H.39l2.28,7.65h263.21l14.2-18.34-49.32,2.59h0Z"/>
            <path class="cls-3" d="m265.81,62.14H2.46l1.15,4.89c.21,0,2.86,0,3.15.02l1.48,8.32h4.49l1.4-7.87c2.54.19,5.52.42,8.81.69v2.58h-3.48v1.44h47.5c9.69,1.29,11.54,2.59,11.54,2.59h156.43c5.16,0,11.86,5.17,19.19,5.17,9.96,0,10.96.29,8.47-4.89-2.49-5.17,3.24-12.94,3.24-12.94h-.02Zm-240.14,6.28c8.07.67,17.62,1.51,26.95,2.35h-26.95s0-2.35,0-2.35Z"/>
            <polygon class="cls-6" points="36.53 53.68 .18 53.68 0 52.69 36.53 52.69 36.53 53.68"/>
          </g>
          <path class="cls-7" d="m261.95,71.89c.12-4.68,3.87-9.76,3.87-9.76H2.46l.72,3.09,258.75,6.68h.02Z"/>
          <polygon class="cls-2" points=".9 56.57 2.66 62.52 265.87 62.52 278.94 45.64 205.17 56.87 .9 56.57"/>
        </g>
        <path class="cls-1" d="m115.92,7.83c0,.39-.27.7-.62.7h-39.43c-.34,0-.62-.31-.62-.7h0c0-.39.27-.7.62-.7h39.43c.34,0,.62.31.62.7h0Z"/>
        <path class="cls-4" d="m145.46,24.65c0,.39-.27.7-.62.7h-31.2c-.34,0-.62-.31-.62-.7h0c0-.39.27-.7.62-.7h31.2c.34,0,.62.31.62.7h0Z"/>
        <path class="cls-1" d="m171.32,38.19c0,.39-.27.7-.62.7H49.95c-.34,0-.62-.31-.62-.7h0c0-.39.27-.7.62-.7h120.76c.34,0,.62.31.62.7h0Z"/>
        <path class="cls-1" d="m107.06,15.76c0,.29-.21.53-.46.53h-22.31c-.25,0-.46-.23-.46-.53v-3.88c0-.29.21-.53.46-.53h22.31c.25,0,.46.23.46.53v3.88Z"/>
        <path class="cls-1" d="m107.06,25.11c0,.29-.21.53-.46.53h-22.31c-.25,0-.46-.23-.46-.53v-6.53c0-.29.21-.53.46-.53h22.31c.25,0,.46.23.46.53,0,0,0,6.53,0,6.53Z"/>
        <path class="cls-1" d="m86.27,5.33c0,.13-.09.22-.19.22h-6.52c-.11,0-.19-.1-.19-.22v-2.73c0-.13.09-.22.19-.22h6.52c.11,0,.19.1.19.22v2.73Z"/>
        <rect class="cls-1" x="77.41" y="12.06" width="4.29" height="3.88"/>
        <rect class="cls-1" x="77.41" y="17.71" width="4.29" height="3.88"/>
        <rect class="cls-1" x="77.41" y="22.73" width="2.45" height="5.13"/>
        <polygon class="cls-4" points="115.95 16.3 113.5 16.3 112.23 11.17 114.68 11.17 115.95 16.3"/>
        <polygon class="cls-4" points="117.79 22.39 115.33 22.39 114.06 17.27 116.51 17.27 117.79 22.39"/>
        <rect class="cls-4" x="124.18" y="27.59" width="18.95" height="1.06"/>
        <polygon class="cls-1" points="91.74 7.48 94.91 7.48 94.91 0 93.52 0 91.74 7.48"/>
        <polygon class="cls-1" points="98.59 7.48 95.41 7.48 95.41 0 96.81 0 98.59 7.48"/>
        <path class="cls-4" d="m192.08,37.07c.07.27.11.57.11.87,0,1.51-.91,2.74-2.04,2.74h-2.35c-1.12,0-2.04-1.22-2.04-2.74,0-.3.04-.6.11-.87-.41.5-.66,1.16-.66,1.9,0,1.51,1.06,2.74,2.37,2.74h2.76c1.31,0,2.37-1.22,2.37-2.74,0-.74-.25-1.4-.66-1.9h.02Z"/>
        <ellipse class="cls-5" cx="189.06" cy="37.33" rx="2.95" ry="3.41"/>
        <rect class="cls-4" x="96.36" y="27.94" width="8.56" height="2.12"/>
        <rect class="cls-4" x="86.89" y="30.76" width="6.73" height="1.42"/>
        <rect class="cls-4" x="99.42" y="33.24" width="13.75" height="1.42"/>
        <rect class="cls-4" x="70.07" y="25.47" width="11.31" height="3.17"/>
        <rect class="cls-6" x="42.79" y="50.46" width="3.85" height="1.51"/>
        <rect class="cls-6" x="48.59" y="50.46" width="3.85" height="1.51"/>
        <rect class="cls-6" x="54.4" y="50.46" width="3.85" height="1.51"/>
        <rect class="cls-6" x="60.21" y="50.46" width="3.85" height="1.51"/>
        <rect class="cls-6" x="66.01" y="50.46" width="3.84" height="1.51"/>
        <rect class="cls-6" x="71.82" y="50.46" width="3.85" height="1.51"/>
        <rect class="cls-4" x="76.19" y="52.28" width="13.44" height="4.41"/>
        <rect class="cls-5" x="74.21" y="51.64" width="17.11" height=".7"/>
        <rect class="cls-4" x="96.36" y="52.28" width="13.44" height="4.41"/>
        <rect class="cls-5" x="94.38" y="51.64" width="17.11" height=".7"/>
      </g>
    </g>
  </g>
</svg>