<?xml version="1.0" encoding="UTF-8"?>
<svg id="Layer_2" data-name="Layer 2" xmlns="http://www.w3.org/2000/svg" viewBox="0 0 509.4 121.76">
  <defs>
    <style>
      .cls-1 {
        fill: #e4355c;
      }

      .cls-1, .cls-2, .cls-3, .cls-4, .cls-5 {
        stroke-width: 0px;
      }

      .cls-2 {
        fill: #254254;
      }

      .cls-3 {
        fill: #3b5972;
      }

      .cls-4 {
        fill: #466480;
      }

      .cls-5 {
        fill: #f2736d;
      }
    </style>
  </defs>
  <g id="Layer">
    <g>
      <g>
        <g>
          <path class="cls-2" d="m174.63,31.09c0,.86-.67,1.55-1.5,1.55h-5.26c-.83,0-1.5-.69-1.5-1.55v-7.75c0-.86.67-1.55,1.5-1.55h5.26c.83,0,1.5.69,1.5,1.55v7.75Z"/>
          <rect class="cls-2" x="167.82" y="29.71" width="3.07" height="5.39"/>
          <polygon class="cls-2" points="134.92 46.94 129.65 46.94 130.97 24.8 133.6 24.8 134.92 46.94"/>
          <polygon class="cls-2" points="154.47 34.67 144.23 34.67 148.05 2.26 150.64 2.26 154.47 34.67"/>
          <g>
            <rect class="cls-4" x="127.68" y="44.27" width="49.5" height="33.88"/>
            <rect class="cls-2" x="130.9" y="64.23" width="15.27" height="5.88"/>
            <polygon class="cls-2" points="163.48 52.1 163.48 61.92 127.68 61.92 127.68 72.14 128.6 72.14 128.6 62.63 164.4 62.63 164.4 52.82 177.17 52.82 177.17 52.1 163.48 52.1"/>
          </g>
          <g>
            <rect class="cls-3" x="133.28" y="40.68" width="48.83" height="3.73"/>
            <rect class="cls-2" x="133.28" y="39.37" width="48.83" height="1.6"/>
          </g>
          <g>
            <rect class="cls-3" x="139.26" y="34.74" width="48.2" height="1.15"/>
            <rect class="cls-2" x="139.26" y="34.34" width="48.2" height=".49"/>
          </g>
          <g>
            <rect class="cls-3" x="139.26" y="36.74" width="45.44" height="2.66"/>
            <rect class="cls-2" x="139.26" y="35.8" width="45.44" height="1.14"/>
          </g>
          <polygon class="cls-3" points="185.23 56.99 176.58 64.18 176.58 55 185.23 55 185.23 56.99"/>
          <polygon class="cls-3" points="122.53 44.99 128.24 47.61 128.24 44.26 122.53 44.26 122.53 44.99"/>
          <polygon class="cls-3" points="122.53 47.52 128.24 50.15 128.24 46.8 122.53 46.8 122.53 47.52"/>
          <polygon class="cls-3" points="122.53 50.06 128.24 52.68 128.24 49.33 122.53 49.33 122.53 50.06"/>
          <path class="cls-2" d="m126.14,25.61l3.75,3.95h4.31l3.75-3.95h-11.82Zm7.91,3.78h-4l-3.42-3.6h10.84l-3.42,3.6Z"/>
          <path class="cls-2" d="m133.35,24.32c0,.39-.31.71-.69.71h0c-.38,0-.69-.32-.69-.71v-3.96c0-.39.31-.71.69-.71h0c.38,0,.69.32.69.71v3.96Z"/>
          <polygon class="cls-2" points="143.64 4.75 143.64 1.7 142.72 1.7 142.72 5.7 154.47 5.7 154.47 4.75 143.64 4.75"/>
          <path class="cls-2" d="m150.99,0h-5.06c-.46,0-.83.38-.83.86v1.41c0,.47.37.86.83.86h5.06c.46,0,.83-.38.83-.86V.86c0-.47-.37-.86-.83-.86Zm.56,2.26c0,.32-.25.57-.56.57h-5.06c-.31,0-.56-.26-.56-.57V.86c0-.32.25-.57.56-.57h5.06c.31,0,.56.26.56.57v1.41Z"/>
          <rect class="cls-2" x="153.66" y="3.74" width=".58" height="1.66"/>
          <path class="cls-3" d="m156.23,2.9c0-.23-.18-.41-.4-.41h-3.61c-.22,0-.4.18-.4.41v1c0,.23.18.41.4.41h3.61c.22,0,.4-.18.4-.41v-1Z"/>
          <path class="cls-4" d="m130.63,25.25c-.38,0-.69-.32-.69-.71h0c0-.39.31-.71.69-.71h3.84c.38,0,.69.32.69.71h0c0,.39-.31.71-.69.71h-3.84Z"/>
          <path class="cls-4" d="m126.33,26.22c-.23,0-.42-.2-.42-.44h0c0-.24.19-.44.42-.44h4.3c.23,0,.42.2.42.44h0c0,.24-.19.44-.42.44h-4.3Z"/>
          <g>
            <rect class="cls-4" x="138.57" y="12.28" width="21.65" height="1.27"/>
            <path class="cls-2" d="m138.65,13.51l6.1,4.71h9.3l6.1-4.71h-21.5Zm15.31,4.43h-9.12l-5.36-4.14h19.84l-5.36,4.14Z"/>
          </g>
          <g>
            <rect class="cls-4" x="135.56" y="21.04" width="27.68" height="1.62"/>
            <path class="cls-2" d="m135.66,22.61l7.8,6.03h11.89l7.8-6.03h-27.49Zm19.57,5.66h-11.66l-6.85-5.3h25.36l-6.85,5.3Z"/>
          </g>
          <path class="cls-4" d="m175.55,28.68c0,1.09-.85,1.97-1.91,1.97h-6.67c-1.05,0-1.91-.88-1.91-1.97v-9.84c0-1.09.85-1.97,1.91-1.97h6.67c1.05,0,1.91.88,1.91,1.97v9.84Z"/>
          <path class="cls-2" d="m179.83,34.83c0,.23-.18.43-.41.43h0c-.23,0-.41-.19-.41-.43v-14.17c0-.23.18-.42.41-.42h0c.23,0,.41.19.41.42v14.17Z"/>
          <path class="cls-2" d="m182.62,34.93c0,.18-.18.32-.41.32h0c-.23,0-.41-.14-.41-.32v-10.76c0-.18.18-.32.41-.32h0c.23,0,.41.14.41.32v10.76Z"/>
        </g>
        <rect class="cls-4" x="171.99" y="41.72" width="11.89" height="4.21"/>
        <rect class="cls-2" x="171.99" y="43.53" width="11.89" height="1.68"/>
        <rect class="cls-4" x="171.99" y="45.81" width="11.89" height="4.21"/>
        <rect class="cls-2" x="171.99" y="47.62" width="11.89" height="1.68"/>
        <rect class="cls-4" x="171.99" y="49.91" width="11.89" height="4.21"/>
        <rect class="cls-2" x="171.99" y="51.71" width="11.89" height="1.68"/>
      </g>
      <g>
        <path class="cls-4" d="m493.66,92.86c-6.43,5.86-4.03,9.64-7.08,9.64H5.55c-3.05,0-5.53-2.55-5.53-5.7v-20.85c1.59-.91,2.47-.56,5.53-.56h503.36c.53,0,1.14,4.4-1.28,7.09-2.96,3.29-5.96,3.08-13.98,10.39Z"/>
        <g>
          <path class="cls-1" d="m497.48,102.75H12.28c-4.88,0-8.86,3.92-9.18,8.87h9.8v2.54c0,2.1,1.65,3.8,3.69,3.8h4.3c2.04,0,3.69-1.7,3.69-3.8v-2.54h30.09c2.04,0,5.34,1.7,7.37,3.8l6.15,6.34h429.31c5.09,0,9.21-4.26,9.21-9.51s-4.12-9.51-9.21-9.51Z"/>
          <path class="cls-5" d="m506.32,109.6c-1.11-3.96-4.65-6.85-8.84-6.85H12.28c-4.19,0-7.72,2.9-8.83,6.85h502.87Z"/>
        </g>
        <rect class="cls-3" x="157.84" y="75.38" width="79.84" height="24.2"/>
        <rect class="cls-3" x="355.91" y="72.01" width="38.54" height="22.34"/>
        <rect class="cls-3" x="70.02" y="75.38" width="31.94" height="24.2"/>
        <g>
          <rect class="cls-3" x="17.2" y="76.77" width="7.37" height="16.48"/>
          <rect class="cls-3" x="27.02" y="76.77" width="7.37" height="16.48"/>
          <rect class="cls-3" x="36.85" y="76.77" width="7.37" height="16.48"/>
          <rect class="cls-3" x="46.68" y="76.77" width="7.37" height="16.48"/>
          <rect class="cls-3" x="56.5" y="76.77" width="7.37" height="16.48"/>
        </g>
        <path class="cls-2" d="m238.97,99.51c0,1.65-1.3,2.99-2.9,2.99H2.9c-1.6,0-2.9-1.34-2.9-2.99v-.5c0-1.65,1.3-2.99,2.9-2.99h233.17c1.6,0,2.9,1.34,2.9,2.99v.5Z"/>
        <path class="cls-2" d="m158.05,91.52c0,1.24-.97,2.24-2.17,2.24h-52.36c-1.2,0-2.17-1-2.17-2.24v-.37c0-1.24.97-2.24,2.17-2.24h52.36c1.2,0,2.17,1,2.17,2.24v.37Z"/>
        <path class="cls-2" d="m72.06,94.69c0,1.24-.97,2.24-2.17,2.24H17.53c-1.2,0-2.17-1-2.17-2.24v-.37c0-1.24.97-2.24,2.17-2.24h52.36c1.2,0,2.17,1,2.17,2.24v.37Z"/>
        <rect class="cls-4" x="72.47" y="78.67" width="3.07" height="8.87"/>
        <rect class="cls-4" x="78.31" y="78.67" width="3.07" height="8.87"/>
        <rect class="cls-4" x="84.14" y="78.67" width="3.07" height="8.87"/>
        <rect class="cls-4" x="89.98" y="78.67" width="3.07" height="8.87"/>
        <rect class="cls-4" x="95.81" y="78.67" width="3.07" height="8.87"/>
        <rect class="cls-2" x="157.74" y="78.67" width="79.64" height="4.75"/>
        <ellipse class="cls-2" cx="161.79" cy="89.82" rx="1.47" ry="1.51"/>
        <path class="cls-2" d="m169.91,89.82c0,.84-.66,1.51-1.47,1.51s-1.47-.68-1.47-1.51.66-1.51,1.47-1.51,1.47.68,1.47,1.51Z"/>
        <ellipse class="cls-2" cx="175.11" cy="89.82" rx="1.47" ry="1.51"/>
        <path class="cls-2" d="m183.23,89.82c0,.84-.66,1.51-1.47,1.51s-1.47-.68-1.47-1.51.66-1.51,1.47-1.51,1.47.68,1.47,1.51Z"/>
        <ellipse class="cls-2" cx="188.42" cy="89.82" rx="1.47" ry="1.51"/>
        <path class="cls-2" d="m196.54,89.82c0,.84-.66,1.51-1.47,1.51s-1.47-.68-1.47-1.51.66-1.51,1.47-1.51,1.47.68,1.47,1.51Z"/>
        <ellipse class="cls-2" cx="201.74" cy="89.82" rx="1.47" ry="1.51"/>
        <path class="cls-2" d="m209.86,89.82c0,.84-.66,1.51-1.47,1.51s-1.47-.68-1.47-1.51.66-1.51,1.47-1.51,1.47.68,1.47,1.51Z"/>
        <ellipse class="cls-2" cx="215.05" cy="89.82" rx="1.47" ry="1.51"/>
        <path class="cls-2" d="m223.18,89.82c0,.84-.66,1.51-1.47,1.51s-1.47-.68-1.47-1.51.66-1.51,1.47-1.51,1.47.68,1.47,1.51Z"/>
        <ellipse class="cls-2" cx="228.37" cy="89.82" rx="1.47" ry="1.51"/>
        <path class="cls-2" d="m245.04,96.1c0,.84-.66,1.51-1.47,1.51s-1.47-.68-1.47-1.51.66-1.51,1.47-1.51,1.47.68,1.47,1.51Z"/>
        <ellipse class="cls-2" cx="250.24" cy="96.1" rx="1.47" ry="1.51"/>
        <path class="cls-2" d="m258.36,96.1c0,.84-.66,1.51-1.47,1.51s-1.47-.68-1.47-1.51.66-1.51,1.47-1.51,1.47.68,1.47,1.51Z"/>
        <ellipse class="cls-2" cx="263.55" cy="96.1" rx="1.47" ry="1.51"/>
        <path class="cls-2" d="m271.68,96.1c0,.84-.66,1.51-1.47,1.51s-1.47-.68-1.47-1.51.66-1.51,1.47-1.51,1.47.68,1.47,1.51Z"/>
        <ellipse class="cls-2" cx="276.87" cy="96.1" rx="1.47" ry="1.51"/>
        <path class="cls-2" d="m284.99,96.1c0,.84-.66,1.51-1.47,1.51s-1.47-.68-1.47-1.51.66-1.51,1.47-1.51,1.47.68,1.47,1.51Z"/>
        <ellipse class="cls-2" cx="290.18" cy="96.1" rx="1.47" ry="1.51"/>
        <path class="cls-2" d="m298.31,96.1c0,.84-.66,1.51-1.47,1.51s-1.47-.68-1.47-1.51.66-1.51,1.47-1.51,1.47.68,1.47,1.51Z"/>
        <ellipse class="cls-2" cx="303.5" cy="96.1" rx="1.47" ry="1.51"/>
        <path class="cls-2" d="m311.62,96.1c0,.84-.66,1.51-1.47,1.51s-1.47-.68-1.47-1.51.66-1.51,1.47-1.51,1.47.68,1.47,1.51Z"/>
        <path class="cls-2" d="m509.08,75.95c.61-2.21.2-4.37-.16-4.37H5.55c-2.61,0-4.78,1.86-5.37,4.37h508.89Z"/>
        <rect class="cls-2" x="102.13" y="77.72" width="55.21" height="1.9"/>
        <rect class="cls-2" x="102.13" y="80.21" width="55.21" height="1.9"/>
        <rect class="cls-3" x="236.46" y="86.27" width="128.06" height="6.65"/>
        <rect class="cls-2" x="241.2" y="79.57" width="15.25" height="3.93"/>
        <rect class="cls-2" x="257.72" y="79.57" width="15.25" height="3.93"/>
        <rect class="cls-2" x="274.24" y="79.57" width="15.25" height="3.93"/>
        <rect class="cls-2" x="290.76" y="79.57" width="15.25" height="3.93"/>
        <rect class="cls-2" x="306.64" y="79.57" width="15.25" height="3.93"/>
        <rect class="cls-2" x="323.16" y="79.57" width="15.25" height="3.93"/>
        <rect class="cls-2" x="340.31" y="79.57" width="15.25" height="3.93"/>
        <path class="cls-2" d="m448.48,93.81c0,1.65-1.3,2.99-2.9,2.99h-127.16c-1.6,0-2.9-1.34-2.9-2.99v-.5c0-1.65,1.3-2.99,2.9-2.99h127.16c1.6,0,2.9,1.34,2.9,2.99v.5Z"/>
        <path class="cls-2" d="m473.77,81.49c0,1.03-.81,1.86-1.8,1.86h-79.09c-.99,0-1.8-.83-1.8-1.86v-.31c0-1.03.81-1.86,1.8-1.86h79.09c.99,0,1.8.83,1.8,1.86v.31Z"/>
        <path class="cls-2" d="m245.04,89.76c0,.84-.66,1.51-1.47,1.51s-1.47-.68-1.47-1.51.66-1.51,1.47-1.51,1.47.68,1.47,1.51Z"/>
        <ellipse class="cls-2" cx="250.24" cy="89.76" rx="1.47" ry="1.51"/>
        <path class="cls-2" d="m258.36,89.76c0,.84-.66,1.51-1.47,1.51s-1.47-.68-1.47-1.51.66-1.51,1.47-1.51,1.47.68,1.47,1.51Z"/>
        <ellipse class="cls-2" cx="263.55" cy="89.76" rx="1.47" ry="1.51"/>
        <path class="cls-2" d="m271.68,89.76c0,.84-.66,1.51-1.47,1.51s-1.47-.68-1.47-1.51.66-1.51,1.47-1.51,1.47.68,1.47,1.51Z"/>
        <ellipse class="cls-2" cx="276.87" cy="89.76" rx="1.47" ry="1.51"/>
        <path class="cls-2" d="m284.99,89.76c0,.84-.66,1.51-1.47,1.51s-1.47-.68-1.47-1.51.66-1.51,1.47-1.51,1.47.68,1.47,1.51Z"/>
        <ellipse class="cls-2" cx="290.18" cy="89.76" rx="1.47" ry="1.51"/>
        <path class="cls-2" d="m298.31,89.76c0,.84-.66,1.51-1.47,1.51s-1.47-.68-1.47-1.51.66-1.51,1.47-1.51,1.47.68,1.47,1.51Z"/>
        <ellipse class="cls-2" cx="303.5" cy="89.76" rx="1.47" ry="1.51"/>
        <path class="cls-2" d="m311.62,89.76c0,.84-.66,1.51-1.47,1.51s-1.47-.68-1.47-1.51.66-1.51,1.47-1.51,1.47.68,1.47,1.51Z"/>
      </g>
      <g>
        <polygon class="cls-2" points="216.78 70.91 217.97 70.91 218.91 69.69 213.65 69.97 216.78 70.91"/>
        <g>
          <path class="cls-2" d="m221.22,69.24c-2.59.08-13.2.4-19.23.4-.01,0-9.12-.42-9.12-.42-.02-.07-.02-.15.02-.23-.25-.25-.55-.66-.77-1.08l-1.68-3.4c-.01.06,0,.14.04.24l1.58,3.89c.18.42.44.83.66,1.08-.04.09-.05.17-.04.23,0,0,9.07.42,9.08.42,6.9,0,19.85-.42,19.85-.42,0-.25-.14-.48-.39-.7Z"/>
          <path class="cls-3" d="m221.61,69.59c0-1.22-3.1-1.94-7.91-2.9-3.17-.63-7.31-.01-10.47.49-.67.11-6.86.9-7.81.9l-2.96-3.45c-.16-.19-.37-.32-.48-.32h-1.41c-.11,0-.15.14-.07.32l1.55,3.65c.18.43.44.83.66,1.08-.04.09-.05.17-.04.23,0,0,9.07.42,9.08.42,6.9,0,19.85-.42,19.85-.42Z"/>
          <path class="cls-4" d="m211.92,70.58c0,.13-.1.24-.23.24h-13.91c-.13,0-.23-.11-.23-.24h0c0-.13.1-.24.23-.24,0,0,7.23-2.29,9.39-2.21l4.52,2.21c.13,0,.23.11.23.24h0Z"/>
          <path class="cls-2" d="m211.92,70.58c0,.13-.1.24-.23.24h-13.91c-.13,0-.23-.11-.23-.24h0c0-.13.1-.24.23-.24h13.91c.13,0,.23.11.23.24h0Z"/>
          <path class="cls-2" d="m211.52,66.5l1.23,1.54c.29.36.78.65,1.11.65h7.09c-1.15-.73-3.75-1.3-7.25-2-.55-.11-1.3-.17-2.18-.18Z"/>
        </g>
        <path class="cls-3" d="m205.02,70.95c0,.35-.27.63-.61.63h-.29c-.34,0-.61-.28-.61-.63h0c0-.35.27-.63.61-.63h.29c.34,0,.61.28.61.63h0Z"/>
        <path class="cls-2" d="m204.28,70.95c0,.35-.27.63-.61.63h-.29c-.34,0-.61-.28-.61-.63h0c0-.35.27-.63.61-.63h.29c.34,0,.61.28.61.63h0Z"/>
        <path class="cls-3" d="m218.42,70.95c0,.35-.27.63-.61.63h-.29c-.34,0-.61-.28-.61-.63h0c0-.35.27-.63.61-.63h.29c.34,0,.61.28.61.63h0Z"/>
        <path class="cls-2" d="m217.68,70.95c0,.35-.27.63-.61.63h-.29c-.34,0-.61-.28-.61-.63h0c0-.35.27-.63.61-.63h.29c.34,0,.61.28.61.63h0Z"/>
      </g>
      <g>
        <polygon class="cls-2" points="248.8 70.91 249.98 70.91 250.92 69.69 245.66 69.97 248.8 70.91"/>
        <g>
          <path class="cls-2" d="m253.23,69.24c-2.59.08-13.2.4-19.23.4-.01,0-9.12-.42-9.12-.42-.02-.07-.02-.15.02-.23-.25-.25-.55-.66-.77-1.08l-1.68-3.4c-.01.06,0,.14.04.24l1.58,3.89c.18.42.44.83.66,1.08-.04.09-.05.17-.04.23,0,0,9.07.42,9.08.42,6.9,0,19.85-.42,19.85-.42,0-.25-.14-.48-.39-.7Z"/>
          <path class="cls-3" d="m253.62,69.59c0-1.22-3.1-1.94-7.91-2.9-3.17-.63-7.31-.01-10.47.49-.67.11-6.86.9-7.81.9l-2.96-3.45c-.16-.19-.37-.32-.48-.32h-1.41c-.11,0-.15.14-.07.32l1.55,3.65c.18.43.44.83.66,1.08-.04.09-.05.17-.04.23,0,0,9.07.42,9.08.42,6.9,0,19.85-.42,19.85-.42Z"/>
          <path class="cls-4" d="m243.93,70.58c0,.13-.1.24-.23.24h-13.91c-.13,0-.23-.11-.23-.24h0c0-.13.1-.24.23-.24,0,0,7.23-2.29,9.39-2.21l4.52,2.21c.13,0,.23.11.23.24h0Z"/>
          <path class="cls-2" d="m243.93,70.58c0,.13-.1.24-.23.24h-13.91c-.13,0-.23-.11-.23-.24h0c0-.13.1-.24.23-.24h13.91c.13,0,.23.11.23.24h0Z"/>
          <path class="cls-2" d="m243.53,66.5l1.23,1.54c.29.36.78.65,1.11.65h7.09c-1.15-.73-3.75-1.3-7.25-2-.55-.11-1.3-.17-2.18-.18Z"/>
        </g>
        <path class="cls-3" d="m237.03,70.95c0,.35-.27.63-.61.63h-.29c-.34,0-.61-.28-.61-.63h0c0-.35.27-.63.61-.63h.29c.34,0,.61.28.61.63h0Z"/>
        <path class="cls-2" d="m236.3,70.95c0,.35-.27.63-.61.63h-.29c-.34,0-.61-.28-.61-.63h0c0-.35.27-.63.61-.63h.29c.34,0,.61.28.61.63h0Z"/>
        <path class="cls-3" d="m250.43,70.95c0,.35-.27.63-.61.63h-.29c-.34,0-.61-.28-.61-.63h0c0-.35.27-.63.61-.63h.29c.34,0,.61.28.61.63h0Z"/>
        <path class="cls-2" d="m249.69,70.95c0,.35-.27.63-.61.63h-.29c-.34,0-.61-.28-.61-.63h0c0-.35.27-.63.61-.63h.29c.34,0,.61.28.61.63h0Z"/>
      </g>
      <g>
        <polygon class="cls-2" points="280.81 70.91 281.99 70.91 282.93 69.69 277.67 69.97 280.81 70.91"/>
        <g>
          <path class="cls-2" d="m285.25,69.24c-2.59.08-13.2.4-19.23.4-.01,0-9.12-.42-9.12-.42-.02-.07-.02-.15.02-.23-.25-.25-.55-.66-.77-1.08l-1.68-3.4c-.01.06,0,.14.04.24l1.58,3.89c.18.42.44.83.66,1.08-.04.09-.05.17-.04.23,0,0,9.07.42,9.08.42,6.9,0,19.85-.42,19.85-.42,0-.25-.14-.48-.39-.7Z"/>
          <path class="cls-3" d="m285.63,69.59c0-1.22-3.1-1.94-7.91-2.9-3.17-.63-7.31-.01-10.47.49-.67.11-6.86.9-7.81.9l-2.96-3.45c-.16-.19-.37-.32-.48-.32h-1.41c-.11,0-.15.14-.07.32l1.55,3.65c.18.43.44.83.66,1.08-.04.09-.05.17-.04.23,0,0,9.07.42,9.08.42,6.9,0,19.85-.42,19.85-.42Z"/>
          <path class="cls-4" d="m275.95,70.58c0,.13-.1.24-.23.24h-13.91c-.13,0-.23-.11-.23-.24h0c0-.13.1-.24.23-.24,0,0,7.23-2.29,9.39-2.21l4.52,2.21c.13,0,.23.11.23.24h0Z"/>
          <path class="cls-2" d="m275.95,70.58c0,.13-.1.24-.23.24h-13.91c-.13,0-.23-.11-.23-.24h0c0-.13.1-.24.23-.24h13.91c.13,0,.23.11.23.24h0Z"/>
          <path class="cls-2" d="m275.54,66.5l1.23,1.54c.29.36.78.65,1.11.65h7.09c-1.15-.73-3.75-1.3-7.24-2-.55-.11-1.3-.17-2.18-.18Z"/>
        </g>
        <path class="cls-3" d="m269.05,70.95c0,.35-.27.63-.61.63h-.29c-.34,0-.61-.28-.61-.63h0c0-.35.27-.63.61-.63h.29c.34,0,.61.28.61.63h0Z"/>
        <path class="cls-2" d="m268.31,70.95c0,.35-.27.63-.61.63h-.29c-.34,0-.61-.28-.61-.63h0c0-.35.27-.63.61-.63h.29c.34,0,.61.28.61.63h0Z"/>
        <path class="cls-3" d="m282.44,70.95c0,.35-.27.63-.61.63h-.29c-.34,0-.61-.28-.61-.63h0c0-.35.27-.63.61-.63h.29c.34,0,.61.28.61.63h0Z"/>
        <path class="cls-2" d="m281.71,70.95c0,.35-.27.63-.61.63h-.29c-.34,0-.61-.28-.61-.63h0c0-.35.27-.63.61-.63h.29c.34,0,.61.28.61.63h0Z"/>
      </g>
      <g>
        <polygon class="cls-2" points="312.82 70.91 314.01 70.91 314.95 69.69 309.69 69.97 312.82 70.91"/>
        <g>
          <path class="cls-2" d="m317.26,69.24c-2.59.08-13.2.4-19.23.4-.01,0-9.12-.42-9.12-.42-.02-.07-.02-.15.02-.23-.25-.25-.55-.66-.77-1.08l-1.68-3.4c-.01.06,0,.14.04.24l1.58,3.89c.18.42.44.83.66,1.08-.04.09-.05.17-.04.23,0,0,9.07.42,9.08.42,6.9,0,19.85-.42,19.85-.42,0-.25-.14-.48-.39-.7Z"/>
          <path class="cls-3" d="m317.65,69.59c0-1.22-3.1-1.94-7.91-2.9-3.17-.63-7.31-.01-10.47.49-.67.11-6.86.9-7.81.9l-2.96-3.45c-.16-.19-.37-.32-.48-.32h-1.41c-.11,0-.15.14-.07.32l1.55,3.65c.18.43.44.83.66,1.08-.04.09-.05.17-.04.23,0,0,9.07.42,9.08.42,6.9,0,19.85-.42,19.85-.42Z"/>
          <path class="cls-4" d="m307.96,70.58c0,.13-.1.24-.23.24h-13.91c-.13,0-.23-.11-.23-.24h0c0-.13.1-.24.23-.24,0,0,7.23-2.29,9.39-2.21l4.52,2.21c.13,0,.23.11.23.24h0Z"/>
          <path class="cls-2" d="m307.96,70.58c0,.13-.1.24-.23.24h-13.91c-.13,0-.23-.11-.23-.24h0c0-.13.1-.24.23-.24h13.91c.13,0,.23.11.23.24h0Z"/>
          <path class="cls-2" d="m307.56,66.5l1.23,1.54c.29.36.78.65,1.11.65h7.09c-1.15-.73-3.75-1.3-7.25-2-.55-.11-1.3-.17-2.18-.18Z"/>
        </g>
        <path class="cls-3" d="m301.06,70.95c0,.35-.27.63-.61.63h-.29c-.34,0-.61-.28-.61-.63h0c0-.35.27-.63.61-.63h.29c.34,0,.61.28.61.63h0Z"/>
        <path class="cls-2" d="m300.33,70.95c0,.35-.27.63-.61.63h-.29c-.34,0-.61-.28-.61-.63h0c0-.35.27-.63.61-.63h.29c.34,0,.61.28.61.63h0Z"/>
        <path class="cls-3" d="m314.46,70.95c0,.35-.27.63-.61.63h-.29c-.34,0-.61-.28-.61-.63h0c0-.35.27-.63.61-.63h.29c.34,0,.61.28.61.63h0Z"/>
        <path class="cls-2" d="m313.72,70.95c0,.35-.27.63-.61.63h-.29c-.34,0-.61-.28-.61-.63h0c0-.35.27-.63.61-.63h.29c.34,0,.61.28.61.63h0Z"/>
      </g>
      <g>
        <polygon class="cls-2" points="376.85 70.91 378.04 70.91 378.98 69.69 373.72 69.97 376.85 70.91"/>
        <g>
          <path class="cls-2" d="m381.29,69.24c-2.59.08-13.2.4-19.23.4-.01,0-9.12-.42-9.12-.42-.02-.07-.02-.15.02-.23-.25-.25-.55-.66-.77-1.08l-1.68-3.4c-.01.06,0,.14.04.24l1.58,3.89c.18.42.44.83.66,1.08-.04.09-.05.17-.04.23,0,0,9.07.42,9.08.42,6.9,0,19.85-.42,19.85-.42,0-.25-.14-.48-.39-.7Z"/>
          <path class="cls-3" d="m381.68,69.59c0-1.22-3.1-1.94-7.91-2.9-3.17-.63-7.31-.01-10.47.49-.67.11-6.86.9-7.81.9l-2.96-3.45c-.16-.19-.37-.32-.48-.32h-1.41c-.11,0-.15.14-.07.32l1.55,3.65c.18.43.44.83.66,1.08-.04.09-.05.17-.04.23,0,0,9.07.42,9.08.42,6.9,0,19.85-.42,19.85-.42Z"/>
          <path class="cls-4" d="m371.99,70.58c0,.13-.1.24-.23.24h-13.91c-.13,0-.23-.11-.23-.24h0c0-.13.1-.24.23-.24,0,0,7.23-2.29,9.39-2.21l4.52,2.21c.13,0,.23.11.23.24h0Z"/>
          <path class="cls-2" d="m371.99,70.58c0,.13-.1.24-.23.24h-13.91c-.13,0-.23-.11-.23-.24h0c0-.13.1-.24.23-.24h13.91c.13,0,.23.11.23.24h0Z"/>
          <path class="cls-2" d="m371.58,66.5l1.23,1.54c.29.36.78.65,1.11.65h7.09c-1.15-.73-3.75-1.3-7.24-2-.55-.11-1.3-.17-2.18-.18Z"/>
        </g>
        <path class="cls-3" d="m365.09,70.95c0,.35-.27.63-.61.63h-.29c-.34,0-.61-.28-.61-.63h0c0-.35.27-.63.61-.63h.29c.34,0,.61.28.61.63h0Z"/>
        <path class="cls-2" d="m364.35,70.95c0,.35-.27.63-.61.63h-.29c-.34,0-.61-.28-.61-.63h0c0-.35.27-.63.61-.63h.29c.34,0,.61.28.61.63h0Z"/>
        <path class="cls-3" d="m378.48,70.95c0,.35-.27.63-.61.63h-.29c-.34,0-.61-.28-.61-.63h0c0-.35.27-.63.61-.63h.29c.34,0,.61.28.61.63h0Z"/>
        <path class="cls-2" d="m377.75,70.95c0,.35-.27.63-.61.63h-.29c-.34,0-.61-.28-.61-.63h0c0-.35.27-.63.61-.63h.29c.34,0,.61.28.61.63h0Z"/>
      </g>
      <g>
        <polygon class="cls-2" points="408.86 70.91 410.05 70.91 410.99 69.69 405.73 69.97 408.86 70.91"/>
        <g>
          <path class="cls-2" d="m413.3,69.24c-2.59.08-13.2.4-19.23.4,0,0-9.12-.42-9.12-.42-.02-.07-.02-.15.02-.23-.25-.25-.55-.66-.77-1.08l-1.68-3.4c-.01.06,0,.14.04.24l1.58,3.89c.18.42.44.83.66,1.08-.04.09-.05.17-.04.23,0,0,9.07.42,9.08.42,6.9,0,19.85-.42,19.85-.42,0-.25-.14-.48-.39-.7Z"/>
          <path class="cls-3" d="m413.69,69.59c0-1.22-3.1-1.94-7.91-2.9-3.17-.63-7.31-.01-10.47.49-.67.11-6.86.9-7.81.9l-2.96-3.45c-.16-.19-.37-.32-.48-.32h-1.41c-.11,0-.15.14-.07.32l1.55,3.65c.18.43.44.83.66,1.08-.04.09-.05.17-.04.23,0,0,9.07.42,9.08.42,6.9,0,19.85-.42,19.85-.42Z"/>
          <path class="cls-4" d="m404,70.58c0,.13-.1.24-.23.24h-13.91c-.13,0-.23-.11-.23-.24h0c0-.13.1-.24.23-.24,0,0,7.23-2.29,9.39-2.21l4.52,2.21c.13,0,.23.11.23.24h0Z"/>
          <path class="cls-2" d="m404,70.58c0,.13-.1.24-.23.24h-13.91c-.13,0-.23-.11-.23-.24h0c0-.13.1-.24.23-.24h13.91c.13,0,.23.11.23.24h0Z"/>
          <path class="cls-2" d="m403.6,66.5l1.23,1.54c.29.36.78.65,1.11.65h7.09c-1.15-.73-3.75-1.3-7.25-2-.55-.11-1.3-.17-2.18-.18Z"/>
        </g>
        <path class="cls-3" d="m397.1,70.95c0,.35-.27.63-.61.63h-.29c-.34,0-.61-.28-.61-.63h0c0-.35.27-.63.61-.63h.29c.34,0,.61.28.61.63h0Z"/>
        <path class="cls-2" d="m396.37,70.95c0,.35-.27.63-.61.63h-.29c-.34,0-.61-.28-.61-.63h0c0-.35.27-.63.61-.63h.29c.34,0,.61.28.61.63h0Z"/>
        <path class="cls-3" d="m410.5,70.95c0,.35-.27.63-.61.63h-.29c-.34,0-.61-.28-.61-.63h0c0-.35.27-.63.61-.63h.29c.34,0,.61.28.61.63h0Z"/>
        <path class="cls-2" d="m409.76,70.95c0,.35-.27.63-.61.63h-.29c-.34,0-.61-.28-.61-.63h0c0-.35.27-.63.61-.63h.29c.34,0,.61.28.61.63h0Z"/>
      </g>
      <g>
        <polygon class="cls-2" points="472.89 70.91 474.08 70.91 475.02 69.69 469.76 69.97 472.89 70.91"/>
        <g>
          <path class="cls-2" d="m477.33,69.24c-2.59.08-13.2.4-19.23.4-.01,0-9.12-.42-9.12-.42-.02-.07-.02-.15.02-.23-.25-.25-.55-.66-.77-1.08l-1.68-3.4c-.01.06,0,.14.04.24l1.58,3.89c.18.42.44.83.66,1.08-.04.09-.05.17-.04.23,0,0,9.07.42,9.08.42,6.9,0,19.85-.42,19.85-.42,0-.25-.14-.48-.39-.7Z"/>
          <path class="cls-3" d="m477.72,69.59c0-1.22-3.1-1.94-7.91-2.9-3.17-.63-7.31-.01-10.47.49-.67.11-6.86.9-7.81.9l-2.96-3.45c-.16-.19-.37-.32-.48-.32h-1.41c-.11,0-.15.14-.07.32l1.55,3.65c.18.43.44.83.66,1.08-.04.09-.05.17-.04.23,0,0,9.07.42,9.08.42,6.9,0,19.85-.42,19.85-.42Z"/>
          <path class="cls-4" d="m468.03,70.58c0,.13-.1.24-.23.24h-13.91c-.13,0-.23-.11-.23-.24h0c0-.13.1-.24.23-.24,0,0,7.23-2.29,9.39-2.21l4.52,2.21c.13,0,.23.11.23.24h0Z"/>
          <path class="cls-2" d="m468.03,70.58c0,.13-.1.24-.23.24h-13.91c-.13,0-.23-.11-.23-.24h0c0-.13.1-.24.23-.24h13.91c.13,0,.23.11.23.24h0Z"/>
          <path class="cls-2" d="m467.63,66.5l1.23,1.54c.29.36.78.65,1.11.65h7.09c-1.15-.73-3.75-1.3-7.25-2-.55-.11-1.3-.17-2.18-.18Z"/>
        </g>
        <path class="cls-3" d="m461.13,70.95c0,.35-.27.63-.61.63h-.29c-.34,0-.61-.28-.61-.63h0c0-.35.27-.63.61-.63h.29c.34,0,.61.28.61.63h0Z"/>
        <path class="cls-2" d="m460.4,70.95c0,.35-.27.63-.61.63h-.29c-.34,0-.61-.28-.61-.63h0c0-.35.27-.63.61-.63h.29c.34,0,.61.28.61.63h0Z"/>
        <path class="cls-3" d="m474.53,70.95c0,.35-.27.63-.61.63h-.29c-.34,0-.61-.28-.61-.63h0c0-.35.27-.63.61-.63h.29c.34,0,.61.28.61.63h0Z"/>
        <path class="cls-2" d="m473.79,70.95c0,.35-.27.63-.61.63h-.29c-.34,0-.61-.28-.61-.63h0c0-.35.27-.63.61-.63h.29c.34,0,.61.28.61.63h0Z"/>
      </g>
      <g>
        <polygon class="cls-3" points="6.33 68.98 5.54 68.98 5.54 67.3 5.8 67.3 6.33 68.98"/>
        <polygon class="cls-3" points="27.89 68.98 28.68 68.98 28.68 67.3 28.42 67.3 27.89 68.98"/>
        <g>
          <path class="cls-2" d="m17.57,71.28c0,.18-.14.33-.32.33h0c-.17,0-.32-.15-.32-.33v-.9c0-.18.14-.33.32-.33h0c.17,0,.32.15.32.33v.9Z"/>
          <path class="cls-2" d="m9.34,71.28c0,.18-.14.33-.32.33h0c-.17,0-.32-.15-.32-.33v-.9c0-.18.14-.33.32-.33h0c.17,0,.32.15.32.33v.9Z"/>
          <path class="cls-2" d="m18.01,68.22c-.26-2.13-.54-3.08-.77-3.08s-.51.95-.77,3.08h1.54Z"/>
          <path class="cls-2" d="m5.43,68.95c0-.09.07-.16.16-.16h23.22c.09,0,.16.07.16.16h0c0,.09-.07.16-.16.16,0,0-8.72,1.47-11.63,1.47s-11.59-1.47-11.59-1.47c-.09,0-.16-.07-.16-.16h0Z"/>
          <path class="cls-3" d="m21.36,70.18c-.31-1.74-2.03-3.08-4.12-3.08s-3.81,1.34-4.12,3.08h8.24Z"/>
          <path class="cls-2" d="m5.43,68.95c0-.09.07-.16.16-.16h23.22c.09,0,.16.07.16.16h0c0,.09-.07.16-.16.16H5.59c-.09,0-.16-.07-.16-.16h0Z"/>
          <path class="cls-3" d="m21.36,70.18c-.31-1.74-2.03-3.08-4.12-3.08s-3.81,1.34-4.12,3.08c0,0,3.08.74,4.13.74,1.04,0,4.1-.74,4.1-.74Z"/>
          <path class="cls-2" d="m19.66,68.03c-.68-.47-1.51-.75-2.42-.75s-1.74.29-2.42.75c.55.97,1.42,1.61,2.42,1.61s1.87-.64,2.42-1.61Z"/>
          <rect class="cls-2" x="9.19" y="69.36" width=".28" height="1.67"/>
          <path class="cls-2" d="m25.13,71.28c0,.18.14.33.32.33h0c.17,0,.32-.15.32-.33v-.9c0-.18-.14-.33-.32-.33h0c-.17,0-.32.15-.32.33v.9Z"/>
          <rect class="cls-2" x="25.01" y="69.36" width=".28" height="1.67"/>
        </g>
      </g>
      <g>
        <polygon class="cls-3" points="31.78 68.98 30.99 68.98 30.99 67.3 31.25 67.3 31.78 68.98"/>
        <polygon class="cls-3" points="53.34 68.98 54.13 68.98 54.13 67.3 53.87 67.3 53.34 68.98"/>
        <g>
          <path class="cls-2" d="m43.02,71.28c0,.18-.14.33-.32.33h0c-.17,0-.32-.15-.32-.33v-.9c0-.18.14-.33.32-.33h0c.17,0,.32.15.32.33v.9Z"/>
          <path class="cls-2" d="m34.79,71.28c0,.18-.14.33-.32.33h0c-.17,0-.32-.15-.32-.33v-.9c0-.18.14-.33.32-.33h0c.17,0,.32.15.32.33v.9Z"/>
          <path class="cls-2" d="m43.46,68.22c-.26-2.13-.54-3.08-.77-3.08s-.51.95-.77,3.08h1.54Z"/>
          <path class="cls-2" d="m30.88,68.95c0-.09.07-.16.16-.16h23.22c.09,0,.16.07.16.16h0c0,.09-.07.16-.16.16,0,0-8.72,1.47-11.63,1.47s-11.59-1.47-11.59-1.47c-.09,0-.16-.07-.16-.16h0Z"/>
          <path class="cls-3" d="m46.81,70.18c-.31-1.74-2.03-3.08-4.12-3.08s-3.81,1.34-4.12,3.08h8.24Z"/>
          <path class="cls-2" d="m30.88,68.95c0-.09.07-.16.16-.16h23.22c.09,0,.16.07.16.16h0c0,.09-.07.16-.16.16h-23.22c-.09,0-.16-.07-.16-.16h0Z"/>
          <path class="cls-3" d="m46.81,70.18c-.31-1.74-2.03-3.08-4.12-3.08s-3.81,1.34-4.12,3.08c0,0,3.08.74,4.13.74,1.04,0,4.1-.74,4.1-.74Z"/>
          <path class="cls-2" d="m45.11,68.03c-.68-.47-1.51-.75-2.42-.75s-1.74.29-2.42.75c.55.97,1.42,1.61,2.42,1.61s1.87-.64,2.42-1.61Z"/>
          <rect class="cls-2" x="34.64" y="69.36" width=".28" height="1.67"/>
          <path class="cls-2" d="m50.58,71.28c0,.18.14.33.32.33h0c.17,0,.32-.15.32-.33v-.9c0-.18-.14-.33-.32-.33h0c-.17,0-.32.15-.32.33v.9Z"/>
          <rect class="cls-2" x="50.46" y="69.36" width=".28" height="1.67"/>
        </g>
      </g>
      <g>
        <polygon class="cls-3" points="57 68.98 56.21 68.98 56.21 67.3 56.47 67.3 57 68.98"/>
        <polygon class="cls-3" points="78.56 68.98 79.35 68.98 79.35 67.3 79.09 67.3 78.56 68.98"/>
        <g>
          <path class="cls-2" d="m68.24,71.28c0,.18-.14.33-.32.33h0c-.17,0-.32-.15-.32-.33v-.9c0-.18.14-.33.32-.33h0c.17,0,.32.15.32.33v.9Z"/>
          <path class="cls-2" d="m60.01,71.28c0,.18-.14.33-.32.33h0c-.17,0-.32-.15-.32-.33v-.9c0-.18.14-.33.32-.33h0c.17,0,.32.15.32.33v.9Z"/>
          <path class="cls-2" d="m68.68,68.22c-.26-2.13-.54-3.08-.77-3.08s-.51.95-.77,3.08h1.54Z"/>
          <path class="cls-2" d="m56.1,68.95c0-.09.07-.16.16-.16h23.22c.09,0,.16.07.16.16h0c0,.09-.07.16-.16.16,0,0-8.72,1.47-11.63,1.47s-11.59-1.47-11.59-1.47c-.09,0-.16-.07-.16-.16h0Z"/>
          <path class="cls-3" d="m72.03,70.18c-.31-1.74-2.03-3.08-4.12-3.08s-3.81,1.34-4.12,3.08h8.24Z"/>
          <path class="cls-2" d="m56.1,68.95c0-.09.07-.16.16-.16h23.22c.09,0,.16.07.16.16h0c0,.09-.07.16-.16.16h-23.22c-.09,0-.16-.07-.16-.16h0Z"/>
          <path class="cls-3" d="m72.03,70.18c-.31-1.74-2.03-3.08-4.12-3.08s-3.81,1.34-4.12,3.08c0,0,3.08.74,4.13.74,1.04,0,4.1-.74,4.1-.74Z"/>
          <path class="cls-2" d="m70.33,68.03c-.68-.47-1.51-.75-2.42-.75s-1.74.29-2.42.75c.55.97,1.42,1.61,2.42,1.61s1.87-.64,2.42-1.61Z"/>
          <rect class="cls-2" x="59.86" y="69.36" width=".28" height="1.67"/>
          <path class="cls-2" d="m75.8,71.28c0,.18.14.33.32.33h0c.17,0,.32-.15.32-.33v-.9c0-.18-.14-.33-.32-.33h0c-.17,0-.32.15-.32.33v.9Z"/>
          <rect class="cls-2" x="75.68" y="69.36" width=".28" height="1.67"/>
        </g>
      </g>
    </g>
  </g>
</svg>