<?xml version="1.0" encoding="UTF-8"?>
<svg id="Layer_2" data-name="Layer 2" xmlns="http://www.w3.org/2000/svg" viewBox="0 0 480 80">
  <defs>
    <style>
      .cls-1 {
        fill: #e4355c;
      }

      .cls-1, .cls-2, .cls-3, .cls-4, .cls-5 {
        stroke-width: 0px;
      }

      .cls-2 {
        fill: #254254;
      }

      .cls-3 {
        fill: #3b5972;
      }

      .cls-4 {
        fill: #466480;
      }

      .cls-5 {
        fill: #f2736d;
      }
    </style>
  </defs>
  <g id="Layer">
    <g>
      <g>
        <g>
          <path class="cls-2" d="m164.55,20.43c0,.57-.63,1.02-1.41,1.02h-4.96c-.78,0-1.41-.45-1.41-1.02v-5.09c0-.57.63-1.02,1.41-1.02h4.96c.78,0,1.41.45,1.41,1.02v5.09Z"/>
          <rect class="cls-2" x="158.14" y="19.52" width="2.89" height="3.54"/>
          <polygon class="cls-2" points="127.14 30.84 122.17 30.84 123.41 16.29 125.89 16.29 127.14 30.84"/>
          <polygon class="cls-2" points="145.56 22.78 135.91 22.78 139.51 1.48 141.95 1.48 145.56 22.78"/>
          <g>
            <rect class="cls-4" x="120.31" y="29.09" width="46.64" height="22.26"/>
            <rect class="cls-2" x="123.35" y="42.2" width="14.39" height="3.86"/>
            <polygon class="cls-2" points="154.05 34.23 154.05 40.68 120.31 40.68 120.31 47.4 121.18 47.4 121.18 41.15 154.91 41.15 154.91 34.7 166.95 34.7 166.95 34.23 154.05 34.23"/>
          </g>
          <g>
            <rect class="cls-3" x="125.59" y="26.73" width="46.01" height="2.45"/>
            <rect class="cls-2" x="125.59" y="25.87" width="46.01" height="1.05"/>
          </g>
          <g>
            <rect class="cls-3" x="131.22" y="22.83" width="45.42" height=".76"/>
            <rect class="cls-2" x="131.22" y="22.56" width="45.42" height=".32"/>
          </g>
          <g>
            <rect class="cls-3" x="131.22" y="24.14" width="42.82" height="1.75"/>
            <rect class="cls-2" x="131.22" y="23.52" width="42.82" height=".75"/>
          </g>
          <polygon class="cls-3" points="174.54 37.44 166.39 42.17 166.39 36.14 174.54 36.14 174.54 37.44"/>
          <polygon class="cls-3" points="115.46 29.56 120.84 31.28 120.84 29.08 115.46 29.08 115.46 29.56"/>
          <polygon class="cls-3" points="115.46 31.22 120.84 32.95 120.84 30.75 115.46 30.75 115.46 31.22"/>
          <polygon class="cls-3" points="115.46 32.89 120.84 34.61 120.84 32.41 115.46 32.41 115.46 32.89"/>
          <path class="cls-2" d="m118.86,16.83l3.53,2.6h4.06l3.53-2.6h-11.14,0Zm7.45,2.48h-3.77l-3.22-2.37h10.21l-3.22,2.37Z"/>
          <path class="cls-2" d="m125.66,15.98c0,.26-.29.47-.65.47h0c-.36,0-.65-.21-.65-.47v-2.6c0-.26.29-.47.65-.47h0c.36,0,.65.21.65.47v2.6Z"/>
          <polygon class="cls-2" points="135.35 3.12 135.35 1.12 134.49 1.12 134.49 3.75 145.56 3.75 145.56 3.12 135.35 3.12"/>
          <path class="cls-2" d="m142.28,0h-4.77c-.43,0-.78.25-.78.57v.93c0,.31.35.57.78.57h4.77c.43,0,.78-.25.78-.57v-.93c0-.31-.35-.57-.78-.57Zm.53,1.48c0,.21-.24.37-.53.37h-4.77c-.29,0-.53-.17-.53-.37v-.92c0-.21.24-.37.53-.37h4.77c.29,0,.53.17.53.37v.93h0Z"/>
          <rect class="cls-2" x="144.79" y="2.46" width=".55" height="1.09"/>
          <path class="cls-3" d="m147.22,1.91c0-.15-.17-.27-.38-.27h-3.4c-.21,0-.38.12-.38.27v.66c0,.15.17.27.38.27h3.4c.21,0,.38-.12.38-.27,0,0,0-.66,0-.66Z"/>
          <path class="cls-4" d="m123.09,16.59c-.36,0-.65-.21-.65-.47h0c0-.26.29-.47.65-.47h3.62c.36,0,.65.21.65.47h0c0,.26-.29.47-.65.47h-3.62Z"/>
          <path class="cls-4" d="m119.04,17.23c-.22,0-.4-.13-.4-.29h0c0-.16.18-.29.4-.29h4.05c.22,0,.4.13.4.29h0c0,.16-.18.29-.4.29h-4.05Z"/>
          <g>
            <rect class="cls-4" x="130.57" y="8.07" width="20.4" height=".83"/>
            <path class="cls-2" d="m130.65,8.88l5.75,3.09h8.76l5.75-3.09h-20.26Zm14.43,2.91h-8.59l-5.05-2.72h18.7l-5.05,2.72Z"/>
          </g>
          <g>
            <rect class="cls-4" x="127.74" y="13.82" width="26.08" height="1.06"/>
            <path class="cls-2" d="m127.83,14.86l7.35,3.96h11.2l7.35-3.96h-25.9Zm18.44,3.72h-10.99l-6.45-3.48h23.9l-6.45,3.48h0Z"/>
          </g>
          <path class="cls-4" d="m165.42,18.84c0,.72-.8,1.29-1.8,1.29h-6.29c-.99,0-1.8-.58-1.8-1.29v-6.47c0-.72.8-1.29,1.8-1.29h6.29c.99,0,1.8.58,1.8,1.29v6.47Z"/>
          <path class="cls-2" d="m169.45,22.88c0,.15-.17.28-.39.28h0c-.22,0-.39-.12-.39-.28v-9.31c0-.15.17-.28.39-.28h0c.22,0,.39.12.39.28v9.31Z"/>
          <path class="cls-2" d="m172.08,22.95c0,.12-.17.21-.39.21h0c-.22,0-.39-.09-.39-.21v-7.07c0-.12.17-.21.39-.21h0c.22,0,.39.09.39.21v7.07Z"/>
        </g>
        <rect class="cls-4" x="162.07" y="27.41" width="11.2" height="2.77"/>
        <rect class="cls-2" x="162.07" y="28.6" width="11.2" height="1.1"/>
        <rect class="cls-4" x="162.07" y="30.1" width="11.2" height="2.77"/>
        <rect class="cls-2" x="162.07" y="31.29" width="11.2" height="1.1"/>
        <rect class="cls-4" x="162.07" y="32.79" width="11.2" height="2.77"/>
        <rect class="cls-2" x="162.07" y="33.97" width="11.2" height="1.1"/>
      </g>
      <g>
        <path class="cls-4" d="m465.18,61.01c-6.06,3.85-3.8,6.33-6.67,6.33H5.23c-2.87,0-5.21-1.68-5.21-3.75v-13.7c1.5-.6,2.33-.37,5.21-.37h474.32c.5,0,1.07,2.89-1.21,4.66-2.79,2.16-5.62,2.02-13.17,6.83h0Z"/>
        <g>
          <path class="cls-1" d="m468.78,67.51H11.57c-4.6,0-8.35,2.58-8.65,5.83h9.23v1.67c0,1.38,1.55,2.5,3.48,2.5h4.05c1.92,0,3.48-1.12,3.48-2.5v-1.67h28.35c1.92,0,5.03,1.12,6.94,2.5l5.8,4.17h404.54c4.8,0,8.68-2.8,8.68-6.25s-3.88-6.25-8.68-6.25h-.02Z"/>
          <path class="cls-5" d="m477.11,72.01c-1.05-2.6-4.38-4.5-8.33-4.5H11.57c-3.95,0-7.27,1.91-8.32,4.5h473.85Z"/>
        </g>
        <rect class="cls-3" x="148.73" y="49.53" width="75.23" height="15.9"/>
        <rect class="cls-3" x="335.37" y="47.31" width="36.32" height="14.68"/>
        <rect class="cls-3" x="65.98" y="49.53" width="30.1" height="15.9"/>
        <g>
          <rect class="cls-3" x="16.21" y="50.44" width="6.94" height="10.83"/>
          <rect class="cls-3" x="25.46" y="50.44" width="6.94" height="10.83"/>
          <rect class="cls-3" x="34.72" y="50.44" width="6.94" height="10.83"/>
          <rect class="cls-3" x="43.99" y="50.44" width="6.94" height="10.83"/>
          <rect class="cls-3" x="53.24" y="50.44" width="6.94" height="10.83"/>
        </g>
        <path class="cls-2" d="m225.18,65.38c0,1.08-1.22,1.96-2.73,1.96H2.73c-1.51,0-2.73-.88-2.73-1.96v-.33c0-1.08,1.22-1.96,2.73-1.96h219.72c1.51,0,2.73.88,2.73,1.96v.33h0Z"/>
        <path class="cls-2" d="m148.93,60.13c0,.81-.91,1.47-2.04,1.47h-49.34c-1.13,0-2.04-.66-2.04-1.47v-.24c0-.81.91-1.47,2.04-1.47h49.34c1.13,0,2.04.66,2.04,1.47v.24Z"/>
        <path class="cls-2" d="m67.9,62.21c0,.81-.91,1.47-2.04,1.47H16.52c-1.13,0-2.04-.66-2.04-1.47v-.24c0-.81.91-1.47,2.04-1.47h49.34c1.13,0,2.04.66,2.04,1.47v.24Z"/>
        <rect class="cls-4" x="68.29" y="51.69" width="2.89" height="5.83"/>
        <rect class="cls-4" x="73.79" y="51.69" width="2.89" height="5.83"/>
        <rect class="cls-4" x="79.29" y="51.69" width="2.89" height="5.83"/>
        <rect class="cls-4" x="84.79" y="51.69" width="2.89" height="5.83"/>
        <rect class="cls-4" x="90.28" y="51.69" width="2.89" height="5.83"/>
        <rect class="cls-2" x="148.64" y="51.69" width="75.04" height="3.12"/>
        <ellipse class="cls-2" cx="152.45" cy="59.01" rx="1.39" ry=".99"/>
        <path class="cls-2" d="m160.11,59.01c0,.55-.62.99-1.39.99s-1.39-.45-1.39-.99.62-.99,1.39-.99,1.39.45,1.39.99Z"/>
        <ellipse class="cls-2" cx="165.01" cy="59.01" rx="1.39" ry=".99"/>
        <path class="cls-2" d="m172.66,59.01c0,.55-.62.99-1.39.99s-1.39-.45-1.39-.99.62-.99,1.39-.99,1.39.45,1.39.99Z"/>
        <ellipse class="cls-2" cx="177.55" cy="59.01" rx="1.39" ry=".99"/>
        <path class="cls-2" d="m185.2,59.01c0,.55-.62.99-1.39.99s-1.39-.45-1.39-.99.62-.99,1.39-.99,1.39.45,1.39.99Z"/>
        <ellipse class="cls-2" cx="190.1" cy="59.01" rx="1.39" ry=".99"/>
        <path class="cls-2" d="m197.75,59.01c0,.55-.62.99-1.39.99s-1.39-.45-1.39-.99.62-.99,1.39-.99,1.39.45,1.39.99Z"/>
        <ellipse class="cls-2" cx="202.64" cy="59.01" rx="1.39" ry=".99"/>
        <path class="cls-2" d="m210.3,59.01c0,.55-.62.99-1.39.99s-1.39-.45-1.39-.99.62-.99,1.39-.99,1.39.45,1.39.99Z"/>
        <ellipse class="cls-2" cx="215.19" cy="59.01" rx="1.39" ry=".99"/>
        <path class="cls-2" d="m230.9,63.14c0,.55-.62.99-1.39.99s-1.39-.45-1.39-.99.62-.99,1.39-.99,1.39.45,1.39.99Z"/>
        <ellipse class="cls-2" cx="235.8" cy="63.14" rx="1.39" ry=".99"/>
        <path class="cls-2" d="m243.45,63.14c0,.55-.62.99-1.39.99s-1.39-.45-1.39-.99.62-.99,1.39-.99,1.39.45,1.39.99Z"/>
        <ellipse class="cls-2" cx="248.34" cy="63.14" rx="1.39" ry=".99"/>
        <path class="cls-2" d="m256,63.14c0,.55-.62.99-1.39.99s-1.39-.45-1.39-.99.62-.99,1.39-.99,1.39.45,1.39.99Z"/>
        <ellipse class="cls-2" cx="260.89" cy="63.14" rx="1.39" ry=".99"/>
        <path class="cls-2" d="m268.55,63.14c0,.55-.62.99-1.39.99s-1.39-.45-1.39-.99.62-.99,1.39-.99,1.39.45,1.39.99Z"/>
        <ellipse class="cls-2" cx="273.44" cy="63.14" rx="1.39" ry=".99"/>
        <path class="cls-2" d="m281.1,63.14c0,.55-.62.99-1.39.99s-1.39-.45-1.39-.99.62-.99,1.39-.99,1.39.45,1.39.99Z"/>
        <ellipse class="cls-2" cx="285.99" cy="63.14" rx="1.39" ry=".99"/>
        <path class="cls-2" d="m293.64,63.14c0,.55-.62.99-1.39.99s-1.39-.45-1.39-.99.62-.99,1.39-.99,1.39.45,1.39.99Z"/>
        <path class="cls-2" d="m479.71,49.9c.57-1.45.19-2.87-.15-2.87H5.23c-2.46,0-4.5,1.22-5.06,2.87h479.54Z"/>
        <rect class="cls-2" x="96.24" y="51.06" width="52.02" height="1.25"/>
        <rect class="cls-2" x="96.24" y="52.7" width="52.02" height="1.25"/>
        <rect class="cls-3" x="222.82" y="56.68" width="120.67" height="4.37"/>
        <rect class="cls-2" x="227.28" y="52.28" width="14.37" height="2.58"/>
        <rect class="cls-2" x="242.85" y="52.28" width="14.37" height="2.58"/>
        <rect class="cls-2" x="258.42" y="52.28" width="14.37" height="2.58"/>
        <rect class="cls-2" x="273.98" y="52.28" width="14.37" height="2.58"/>
        <rect class="cls-2" x="288.95" y="52.28" width="14.37" height="2.58"/>
        <rect class="cls-2" x="304.51" y="52.28" width="14.37" height="2.58"/>
        <rect class="cls-2" x="320.67" y="52.28" width="14.37" height="2.58"/>
        <path class="cls-2" d="m422.6,61.64c0,1.08-1.22,1.96-2.73,1.96h-119.82c-1.51,0-2.73-.88-2.73-1.96v-.33c0-1.08,1.22-1.96,2.73-1.96h119.82c1.51,0,2.73.88,2.73,1.96v.33Z"/>
        <path class="cls-2" d="m446.43,53.54c0,.68-.76,1.22-1.7,1.22h-74.53c-.93,0-1.7-.55-1.7-1.22v-.2c0-.68.76-1.22,1.7-1.22h74.53c.93,0,1.7.55,1.7,1.22v.2Z"/>
        <path class="cls-2" d="m230.9,58.97c0,.55-.62.99-1.39.99s-1.39-.45-1.39-.99.62-.99,1.39-.99,1.39.45,1.39.99Z"/>
        <ellipse class="cls-2" cx="235.8" cy="58.97" rx="1.39" ry=".99"/>
        <path class="cls-2" d="m243.45,58.97c0,.55-.62.99-1.39.99s-1.39-.45-1.39-.99.62-.99,1.39-.99,1.39.45,1.39.99Z"/>
        <ellipse class="cls-2" cx="248.34" cy="58.97" rx="1.39" ry=".99"/>
        <path class="cls-2" d="m256,58.97c0,.55-.62.99-1.39.99s-1.39-.45-1.39-.99.62-.99,1.39-.99,1.39.45,1.39.99Z"/>
        <ellipse class="cls-2" cx="260.89" cy="58.97" rx="1.39" ry=".99"/>
        <path class="cls-2" d="m268.55,58.97c0,.55-.62.99-1.39.99s-1.39-.45-1.39-.99.62-.99,1.39-.99,1.39.45,1.39.99Z"/>
        <ellipse class="cls-2" cx="273.44" cy="58.97" rx="1.39" ry=".99"/>
        <path class="cls-2" d="m281.1,58.97c0,.55-.62.99-1.39.99s-1.39-.45-1.39-.99.62-.99,1.39-.99,1.39.45,1.39.99Z"/>
        <ellipse class="cls-2" cx="285.99" cy="58.97" rx="1.39" ry=".99"/>
        <path class="cls-2" d="m293.64,58.97c0,.55-.62.99-1.39.99s-1.39-.45-1.39-.99.62-.99,1.39-.99,1.39.45,1.39.99Z"/>
      </g>
      <g>
        <polygon class="cls-2" points="204.27 46.59 205.39 46.59 206.28 45.79 201.32 45.97 204.27 46.59"/>
        <g>
          <path class="cls-2" d="m208.46,45.49c-2.44.05-12.44.26-18.12.26,0,0-8.59-.28-8.59-.28-.02-.05-.02-.1.02-.15-.24-.16-.52-.43-.73-.71l-1.58-2.23s0,.09.04.16l1.49,2.56c.17.28.41.55.62.71-.04.06-.05.11-.04.15,0,0,8.55.28,8.56.28,6.5,0,18.7-.28,18.7-.28,0-.16-.13-.32-.37-.46h0Z"/>
          <path class="cls-3" d="m208.82,45.72c0-.8-2.92-1.27-7.45-1.91-2.99-.41-6.89,0-9.87.32-.63.07-6.46.59-7.36.59l-2.79-2.27c-.15-.12-.35-.21-.45-.21h-1.33c-.1,0-.14.09-.07.21l1.46,2.4c.17.28.41.55.62.71-.04.06-.05.11-.04.15,0,0,8.55.28,8.56.28,6.5,0,18.7-.28,18.7-.28h0Z"/>
          <path class="cls-4" d="m199.69,46.37c0,.09-.09.16-.22.16h-13.11c-.12,0-.22-.07-.22-.16h0c0-.09.09-.16.22-.16,0,0,6.81-1.5,8.85-1.45l4.26,1.45c.12,0,.22.07.22.16h0Z"/>
          <path class="cls-2" d="m199.69,46.37c0,.09-.09.16-.22.16h-13.11c-.12,0-.22-.07-.22-.16h0c0-.09.09-.16.22-.16h13.11c.12,0,.22.07.22.16h0Z"/>
          <path class="cls-2" d="m199.32,43.69l1.16,1.01c.27.24.73.43,1.05.43h6.68c-1.08-.48-3.53-.85-6.83-1.31-.52-.07-1.22-.11-2.05-.12h0Z"/>
        </g>
        <path class="cls-3" d="m193.19,46.62c0,.23-.25.41-.57.41h-.27c-.32,0-.57-.18-.57-.41h0c0-.23.25-.41.57-.41h.27c.32,0,.57.18.57.41h0Z"/>
        <path class="cls-2" d="m192.49,46.62c0,.23-.25.41-.57.41h-.27c-.32,0-.57-.18-.57-.41h0c0-.23.25-.41.57-.41h.27c.32,0,.57.18.57.41h0Z"/>
        <path class="cls-3" d="m205.82,46.62c0,.23-.25.41-.57.41h-.27c-.32,0-.57-.18-.57-.41h0c0-.23.25-.41.57-.41h.27c.32,0,.57.18.57.41h0Z"/>
        <path class="cls-2" d="m205.12,46.62c0,.23-.25.41-.57.41h-.27c-.32,0-.57-.18-.57-.41h0c0-.23.25-.41.57-.41h.27c.32,0,.57.18.57.41h0Z"/>
      </g>
      <g>
        <polygon class="cls-2" points="234.44 46.59 235.56 46.59 236.44 45.79 231.49 45.97 234.44 46.59"/>
        <g>
          <path class="cls-2" d="m238.62,45.49c-2.44.05-12.44.26-18.12.26,0,0-8.59-.28-8.59-.28-.02-.05-.02-.1.02-.15-.24-.16-.52-.43-.73-.71l-1.58-2.23s0,.09.04.16l1.49,2.56c.17.28.41.55.62.71-.04.06-.05.11-.04.15,0,0,8.55.28,8.56.28,6.5,0,18.7-.28,18.7-.28,0-.16-.13-.32-.37-.46h0Z"/>
          <path class="cls-3" d="m238.99,45.72c0-.8-2.92-1.27-7.45-1.91-2.99-.41-6.89,0-9.87.32-.63.07-6.46.59-7.36.59l-2.79-2.27c-.15-.12-.35-.21-.45-.21h-1.33c-.1,0-.14.09-.07.21l1.46,2.4c.17.28.41.55.62.71-.04.06-.05.11-.04.15,0,0,8.55.28,8.56.28,6.5,0,18.7-.28,18.7-.28h0Z"/>
          <path class="cls-4" d="m229.86,46.37c0,.09-.09.16-.22.16h-13.11c-.12,0-.22-.07-.22-.16h0c0-.09.09-.16.22-.16,0,0,6.81-1.5,8.85-1.45l4.26,1.45c.12,0,.22.07.22.16h0Z"/>
          <path class="cls-2" d="m229.86,46.37c0,.09-.09.16-.22.16h-13.11c-.12,0-.22-.07-.22-.16h0c0-.09.09-.16.22-.16h13.11c.12,0,.22.07.22.16h0Z"/>
          <path class="cls-2" d="m229.48,43.69l1.16,1.01c.27.24.73.43,1.05.43h6.68c-1.08-.48-3.53-.85-6.83-1.31-.52-.07-1.22-.11-2.05-.12h0Z"/>
        </g>
        <path class="cls-3" d="m223.35,46.62c0,.23-.25.41-.57.41h-.27c-.32,0-.57-.18-.57-.41h0c0-.23.25-.41.57-.41h.27c.32,0,.57.18.57.41h0Z"/>
        <path class="cls-2" d="m222.67,46.62c0,.23-.25.41-.57.41h-.27c-.32,0-.57-.18-.57-.41h0c0-.23.25-.41.57-.41h.27c.32,0,.57.18.57.41h0Z"/>
        <path class="cls-3" d="m235.98,46.62c0,.23-.25.41-.57.41h-.27c-.32,0-.57-.18-.57-.41h0c0-.23.25-.41.57-.41h.27c.32,0,.57.18.57.41h0Z"/>
        <path class="cls-2" d="m235.28,46.62c0,.23-.25.41-.57.41h-.27c-.32,0-.57-.18-.57-.41h0c0-.23.25-.41.57-.41h.27c.32,0,.57.18.57.41h0Z"/>
      </g>
      <g>
        <polygon class="cls-2" points="264.61 46.59 265.72 46.59 266.6 45.79 261.65 45.97 264.61 46.59"/>
        <g>
          <path class="cls-2" d="m268.79,45.49c-2.44.05-12.44.26-18.12.26,0,0-8.59-.28-8.59-.28-.02-.05-.02-.1.02-.15-.24-.16-.52-.43-.73-.71l-1.58-2.23s0,.09.04.16l1.49,2.56c.17.28.41.55.62.71-.04.06-.05.11-.04.15,0,0,8.55.28,8.56.28,6.5,0,18.7-.28,18.7-.28,0-.16-.13-.32-.37-.46h0Z"/>
          <path class="cls-3" d="m269.15,45.72c0-.8-2.92-1.27-7.45-1.91-2.99-.41-6.89,0-9.87.32-.63.07-6.46.59-7.36.59l-2.79-2.27c-.15-.12-.35-.21-.45-.21h-1.33c-.1,0-.14.09-.07.21l1.46,2.4c.17.28.41.55.62.71-.04.06-.05.11-.04.15,0,0,8.55.28,8.56.28,6.5,0,18.7-.28,18.7-.28h0Z"/>
          <path class="cls-4" d="m260.03,46.37c0,.09-.09.16-.22.16h-13.11c-.12,0-.22-.07-.22-.16h0c0-.09.09-.16.22-.16,0,0,6.81-1.5,8.85-1.45l4.26,1.45c.12,0,.22.07.22.16h0Z"/>
          <path class="cls-2" d="m260.03,46.37c0,.09-.09.16-.22.16h-13.11c-.12,0-.22-.07-.22-.16h0c0-.09.09-.16.22-.16h13.11c.12,0,.22.07.22.16h0Z"/>
          <path class="cls-2" d="m259.64,43.69l1.16,1.01c.27.24.73.43,1.05.43h6.68c-1.08-.48-3.53-.85-6.82-1.31-.52-.07-1.22-.11-2.05-.12h0Z"/>
        </g>
        <path class="cls-3" d="m253.53,46.62c0,.23-.25.41-.57.41h-.27c-.32,0-.57-.18-.57-.41h0c0-.23.25-.41.57-.41h.27c.32,0,.57.18.57.41h0Z"/>
        <path class="cls-2" d="m252.83,46.62c0,.23-.25.41-.57.41h-.27c-.32,0-.57-.18-.57-.41h0c0-.23.25-.41.57-.41h.27c.32,0,.57.18.57.41h0Z"/>
        <path class="cls-3" d="m266.14,46.62c0,.23-.25.41-.57.41h-.27c-.32,0-.57-.18-.57-.41h0c0-.23.25-.41.57-.41h.27c.32,0,.57.18.57.41h0Z"/>
        <path class="cls-2" d="m265.46,46.62c0,.23-.25.41-.57.41h-.27c-.32,0-.57-.18-.57-.41h0c0-.23.25-.41.57-.41h.27c.32,0,.57.18.57.41h0Z"/>
      </g>
      <g>
        <polygon class="cls-2" points="294.77 46.59 295.89 46.59 296.78 45.79 291.82 45.97 294.77 46.59"/>
        <g>
          <path class="cls-2" d="m298.95,45.49c-2.44.05-12.44.26-18.12.26,0,0-8.59-.28-8.59-.28-.02-.05-.02-.1.02-.15-.24-.16-.52-.43-.73-.71l-1.58-2.23s0,.09.04.16l1.49,2.56c.17.28.41.55.62.71-.04.06-.05.11-.04.15,0,0,8.55.28,8.56.28,6.5,0,18.7-.28,18.7-.28,0-.16-.13-.32-.37-.46h0Z"/>
          <path class="cls-3" d="m299.32,45.72c0-.8-2.92-1.27-7.45-1.91-2.99-.41-6.89,0-9.87.32-.63.07-6.46.59-7.36.59l-2.79-2.27c-.15-.12-.35-.21-.45-.21h-1.33c-.1,0-.14.09-.07.21l1.46,2.4c.17.28.41.55.62.71-.04.06-.05.11-.04.15,0,0,8.55.28,8.56.28,6.5,0,18.7-.28,18.7-.28h0Z"/>
          <path class="cls-4" d="m290.19,46.37c0,.09-.09.16-.22.16h-13.11c-.12,0-.22-.07-.22-.16h0c0-.09.09-.16.22-.16,0,0,6.81-1.5,8.85-1.45l4.26,1.45c.12,0,.22.07.22.16h0Z"/>
          <path class="cls-2" d="m290.19,46.37c0,.09-.09.16-.22.16h-13.11c-.12,0-.22-.07-.22-.16h0c0-.09.09-.16.22-.16h13.11c.12,0,.22.07.22.16h0Z"/>
          <path class="cls-2" d="m289.81,43.69l1.16,1.01c.27.24.73.43,1.05.43h6.68c-1.08-.48-3.53-.85-6.83-1.31-.52-.07-1.22-.11-2.05-.12h0Z"/>
        </g>
        <path class="cls-3" d="m283.69,46.62c0,.23-.25.41-.57.41h-.27c-.32,0-.57-.18-.57-.41h0c0-.23.25-.41.57-.41h.27c.32,0,.57.18.57.41h0Z"/>
        <path class="cls-2" d="m283,46.62c0,.23-.25.41-.57.41h-.27c-.32,0-.57-.18-.57-.41h0c0-.23.25-.41.57-.41h.27c.32,0,.57.18.57.41h0Z"/>
        <path class="cls-3" d="m296.32,46.62c0,.23-.25.41-.57.41h-.27c-.32,0-.57-.18-.57-.41h0c0-.23.25-.41.57-.41h.27c.32,0,.57.18.57.41h0Z"/>
        <path class="cls-2" d="m295.62,46.62c0,.23-.25.41-.57.41h-.27c-.32,0-.57-.18-.57-.41h0c0-.23.25-.41.57-.41h.27c.32,0,.57.18.57.41h0Z"/>
      </g>
      <g>
        <polygon class="cls-2" points="355.11 46.59 356.23 46.59 357.11 45.79 352.16 45.97 355.11 46.59"/>
        <g>
          <path class="cls-2" d="m359.29,45.49c-2.44.05-12.44.26-18.12.26,0,0-8.59-.28-8.59-.28-.02-.05-.02-.1.02-.15-.24-.16-.52-.43-.73-.71l-1.58-2.23s0,.09.04.16l1.49,2.56c.17.28.41.55.62.71-.04.06-.05.11-.04.15,0,0,8.55.28,8.56.28,6.5,0,18.7-.28,18.7-.28,0-.16-.13-.32-.37-.46h0Z"/>
          <path class="cls-3" d="m359.66,45.72c0-.8-2.92-1.27-7.45-1.91-2.99-.41-6.89,0-9.87.32-.63.07-6.46.59-7.36.59l-2.79-2.27c-.15-.12-.35-.21-.45-.21h-1.33c-.1,0-.14.09-.07.21l1.46,2.4c.17.28.41.55.62.71-.04.06-.05.11-.04.15,0,0,8.55.28,8.56.28,6.5,0,18.7-.28,18.7-.28h0Z"/>
          <path class="cls-4" d="m350.53,46.37c0,.09-.09.16-.22.16h-13.11c-.12,0-.22-.07-.22-.16h0c0-.09.09-.16.22-.16,0,0,6.81-1.5,8.85-1.45l4.26,1.45c.12,0,.22.07.22.16h0Z"/>
          <path class="cls-2" d="m350.53,46.37c0,.09-.09.16-.22.16h-13.11c-.12,0-.22-.07-.22-.16h0c0-.09.09-.16.22-.16h13.11c.12,0,.22.07.22.16h0Z"/>
          <path class="cls-2" d="m350.14,43.69l1.16,1.01c.27.24.73.43,1.05.43h6.68c-1.08-.48-3.53-.85-6.82-1.31-.52-.07-1.22-.11-2.05-.12h0Z"/>
        </g>
        <path class="cls-3" d="m344.02,46.62c0,.23-.25.41-.57.41h-.27c-.32,0-.57-.18-.57-.41h0c0-.23.25-.41.57-.41h.27c.32,0,.57.18.57.41h0Z"/>
        <path class="cls-2" d="m343.33,46.62c0,.23-.25.41-.57.41h-.27c-.32,0-.57-.18-.57-.41h0c0-.23.25-.41.57-.41h.27c.32,0,.57.18.57.41h0Z"/>
        <path class="cls-3" d="m356.64,46.62c0,.23-.25.41-.57.41h-.27c-.32,0-.57-.18-.57-.41h0c0-.23.25-.41.57-.41h.27c.32,0,.57.18.57.41h0Z"/>
        <path class="cls-2" d="m355.95,46.62c0,.23-.25.41-.57.41h-.27c-.32,0-.57-.18-.57-.41h0c0-.23.25-.41.57-.41h.27c.32,0,.57.18.57.41h0Z"/>
      </g>
      <g>
        <polygon class="cls-2" points="385.27 46.59 386.39 46.59 387.28 45.79 382.32 45.97 385.27 46.59"/>
        <g>
          <path class="cls-2" d="m389.45,45.49c-2.44.05-12.44.26-18.12.26l-8.59-.28s-.02-.1.02-.15c-.24-.16-.52-.43-.73-.71l-1.58-2.23s0,.09.04.16l1.49,2.56c.17.28.41.55.62.71-.04.06-.05.11-.04.15,0,0,8.55.28,8.56.28,6.5,0,18.7-.28,18.7-.28,0-.16-.13-.32-.37-.46h0Z"/>
          <path class="cls-3" d="m389.82,45.72c0-.8-2.92-1.27-7.45-1.91-2.99-.41-6.89,0-9.87.32-.63.07-6.46.59-7.36.59l-2.79-2.27c-.15-.12-.35-.21-.45-.21h-1.33c-.1,0-.14.09-.07.21l1.46,2.4c.17.28.41.55.62.71-.04.06-.05.11-.04.15,0,0,8.55.28,8.56.28,6.5,0,18.7-.28,18.7-.28h0Z"/>
          <path class="cls-4" d="m380.69,46.37c0,.09-.09.16-.22.16h-13.11c-.12,0-.22-.07-.22-.16h0c0-.09.09-.16.22-.16,0,0,6.81-1.5,8.85-1.45l4.26,1.45c.12,0,.22.07.22.16h0Z"/>
          <path class="cls-2" d="m380.69,46.37c0,.09-.09.16-.22.16h-13.11c-.12,0-.22-.07-.22-.16h0c0-.09.09-.16.22-.16h13.11c.12,0,.22.07.22.16h0Z"/>
          <path class="cls-2" d="m380.31,43.69l1.16,1.01c.27.24.73.43,1.05.43h6.68c-1.08-.48-3.53-.85-6.83-1.31-.52-.07-1.22-.11-2.05-.12h0Z"/>
        </g>
        <path class="cls-3" d="m374.19,46.62c0,.23-.25.41-.57.41h-.27c-.32,0-.57-.18-.57-.41h0c0-.23.25-.41.57-.41h.27c.32,0,.57.18.57.41h0Z"/>
        <path class="cls-2" d="m373.5,46.62c0,.23-.25.41-.57.41h-.27c-.32,0-.57-.18-.57-.41h0c0-.23.25-.41.57-.41h.27c.32,0,.57.18.57.41h0Z"/>
        <path class="cls-3" d="m386.81,46.62c0,.23-.25.41-.57.41h-.27c-.32,0-.57-.18-.57-.41h0c0-.23.25-.41.57-.41h.27c.32,0,.57.18.57.41h0Z"/>
        <path class="cls-2" d="m386.12,46.62c0,.23-.25.41-.57.41h-.27c-.32,0-.57-.18-.57-.41h0c0-.23.25-.41.57-.41h.27c.32,0,.57.18.57.41h0Z"/>
      </g>
      <g>
        <polygon class="cls-2" points="445.6 46.59 446.73 46.59 447.61 45.79 442.65 45.97 445.6 46.59"/>
        <g>
          <path class="cls-2" d="m449.79,45.49c-2.44.05-12.44.26-18.12.26,0,0-8.59-.28-8.59-.28-.02-.05-.02-.1.02-.15-.24-.16-.52-.43-.73-.71l-1.58-2.23s0,.09.04.16l1.49,2.56c.17.28.41.55.62.71-.04.06-.05.11-.04.15,0,0,8.55.28,8.56.28,6.5,0,18.7-.28,18.7-.28,0-.16-.13-.32-.37-.46h0Z"/>
          <path class="cls-3" d="m450.16,45.72c0-.8-2.92-1.27-7.45-1.91-2.99-.41-6.89,0-9.87.32-.63.07-6.46.59-7.36.59l-2.79-2.27c-.15-.12-.35-.21-.45-.21h-1.33c-.1,0-.14.09-.07.21l1.46,2.4c.17.28.41.55.62.71-.04.06-.05.11-.04.15,0,0,8.55.28,8.56.28,6.5,0,18.7-.28,18.7-.28h0Z"/>
          <path class="cls-4" d="m441.02,46.37c0,.09-.09.16-.22.16h-13.11c-.12,0-.22-.07-.22-.16h0c0-.09.09-.16.22-.16,0,0,6.81-1.5,8.85-1.45l4.26,1.45c.12,0,.22.07.22.16h0Z"/>
          <path class="cls-2" d="m441.02,46.37c0,.09-.09.16-.22.16h-13.11c-.12,0-.22-.07-.22-.16h0c0-.09.09-.16.22-.16h13.11c.12,0,.22.07.22.16h0Z"/>
          <path class="cls-2" d="m440.65,43.69l1.16,1.01c.27.24.73.43,1.05.43h6.68c-1.08-.48-3.53-.85-6.83-1.31-.52-.07-1.22-.11-2.05-.12h0Z"/>
        </g>
        <path class="cls-3" d="m434.52,46.62c0,.23-.25.41-.57.41h-.27c-.32,0-.57-.18-.57-.41h0c0-.23.25-.41.57-.41h.27c.32,0,.57.18.57.41h0Z"/>
        <path class="cls-2" d="m433.83,46.62c0,.23-.25.41-.57.41h-.27c-.32,0-.57-.18-.57-.41h0c0-.23.25-.41.57-.41h.27c.32,0,.57.18.57.41h0Z"/>
        <path class="cls-3" d="m447.15,46.62c0,.23-.25.41-.57.41h-.27c-.32,0-.57-.18-.57-.41h0c0-.23.25-.41.57-.41h.27c.32,0,.57.18.57.41h0Z"/>
        <path class="cls-2" d="m446.45,46.62c0,.23-.25.41-.57.41h-.27c-.32,0-.57-.18-.57-.41h0c0-.23.25-.41.57-.41h.27c.32,0,.57.18.57.41h0Z"/>
      </g>
      <g>
        <polygon class="cls-3" points="5.96 45.32 5.22 45.32 5.22 44.22 5.47 44.22 5.96 45.32"/>
        <polygon class="cls-3" points="26.28 45.32 27.03 45.32 27.03 44.22 26.78 44.22 26.28 45.32"/>
        <g>
          <path class="cls-2" d="m16.56,46.83c0,.12-.13.22-.3.22h0c-.16,0-.3-.1-.3-.22v-.59c0-.12.13-.22.3-.22h0c.16,0,.3.1.3.22v.59Z"/>
          <path class="cls-2" d="m8.8,46.83c0,.12-.13.22-.3.22h0c-.16,0-.3-.1-.3-.22v-.59c0-.12.13-.22.3-.22h0c.16,0,.3.1.3.22v.59Z"/>
          <path class="cls-2" d="m16.97,44.82c-.24-1.4-.51-2.02-.73-2.02s-.48.62-.73,2.02h1.45Z"/>
          <path class="cls-2" d="m5.12,45.3c0-.06.07-.11.15-.11h21.88c.08,0,.15.05.15.11h0c0,.06-.07.11-.15.11,0,0-8.22.97-10.96.97s-10.92-.97-10.92-.97c-.08,0-.15-.05-.15-.11h0Z"/>
          <path class="cls-3" d="m20.13,46.11c-.29-1.14-1.91-2.02-3.88-2.02s-3.59.88-3.88,2.02h7.76Z"/>
          <path class="cls-2" d="m5.12,45.3c0-.06.07-.11.15-.11h21.88c.08,0,.15.05.15.11h0c0,.06-.07.11-.15.11H5.27c-.08,0-.15-.05-.15-.11h0Z"/>
          <path class="cls-3" d="m20.13,46.11c-.29-1.14-1.91-2.02-3.88-2.02s-3.59.88-3.88,2.02c0,0,2.9.49,3.89.49s3.86-.49,3.86-.49h0Z"/>
          <path class="cls-2" d="m18.53,44.7c-.64-.31-1.42-.49-2.28-.49s-1.64.19-2.28.49c.52.64,1.34,1.06,2.28,1.06s1.76-.42,2.28-1.06Z"/>
          <rect class="cls-2" x="8.66" y="45.57" width=".26" height="1.1"/>
          <path class="cls-2" d="m23.68,46.83c0,.12.13.22.3.22h0c.16,0,.3-.1.3-.22v-.59c0-.12-.13-.22-.3-.22h0c-.16,0-.3.1-.3.22v.59Z"/>
          <rect class="cls-2" x="23.57" y="45.57" width=".26" height="1.1"/>
        </g>
      </g>
      <g>
        <polygon class="cls-3" points="29.95 45.32 29.2 45.32 29.2 44.22 29.45 44.22 29.95 45.32"/>
        <polygon class="cls-3" points="50.26 45.32 51.01 45.32 51.01 44.22 50.76 44.22 50.26 45.32"/>
        <g>
          <path class="cls-2" d="m40.54,46.83c0,.12-.13.22-.3.22h0c-.16,0-.3-.1-.3-.22v-.59c0-.12.13-.22.3-.22h0c.16,0,.3.1.3.22v.59Z"/>
          <path class="cls-2" d="m32.78,46.83c0,.12-.13.22-.3.22h0c-.16,0-.3-.1-.3-.22v-.59c0-.12.13-.22.3-.22h0c.16,0,.3.1.3.22v.59Z"/>
          <path class="cls-2" d="m40.95,44.82c-.24-1.4-.51-2.02-.73-2.02s-.48.62-.73,2.02h1.45Z"/>
          <path class="cls-2" d="m29.1,45.3c0-.06.07-.11.15-.11h21.88c.08,0,.15.05.15.11h0c0,.06-.07.11-.15.11,0,0-8.22.97-10.96.97s-10.92-.97-10.92-.97c-.08,0-.15-.05-.15-.11h0Z"/>
          <path class="cls-3" d="m44.11,46.11c-.29-1.14-1.91-2.02-3.88-2.02s-3.59.88-3.88,2.02c0,0,7.76,0,7.76,0Z"/>
          <path class="cls-2" d="m29.1,45.3c0-.06.07-.11.15-.11h21.88c.08,0,.15.05.15.11h0c0,.06-.07.11-.15.11h-21.88c-.08,0-.15-.05-.15-.11h0Z"/>
          <path class="cls-3" d="m44.11,46.11c-.29-1.14-1.91-2.02-3.88-2.02s-3.59.88-3.88,2.02c0,0,2.9.49,3.89.49s3.86-.49,3.86-.49h0Z"/>
          <path class="cls-2" d="m42.51,44.7c-.64-.31-1.42-.49-2.28-.49s-1.64.19-2.28.49c.52.64,1.34,1.06,2.28,1.06s1.76-.42,2.28-1.06Z"/>
          <rect class="cls-2" x="32.64" y="45.57" width=".26" height="1.1"/>
          <path class="cls-2" d="m47.66,46.83c0,.12.13.22.3.22h0c.16,0,.3-.1.3-.22v-.59c0-.12-.13-.22-.3-.22h0c-.16,0-.3.1-.3.22v.59Z"/>
          <rect class="cls-2" x="47.55" y="45.57" width=".26" height="1.1"/>
        </g>
      </g>
      <g>
        <polygon class="cls-3" points="53.71 45.32 52.97 45.32 52.97 44.22 53.21 44.22 53.71 45.32"/>
        <polygon class="cls-3" points="74.03 45.32 74.77 45.32 74.77 44.22 74.53 44.22 74.03 45.32"/>
        <g>
          <path class="cls-2" d="m64.3,46.83c0,.12-.13.22-.3.22h0c-.16,0-.3-.1-.3-.22v-.59c0-.12.13-.22.3-.22h0c.16,0,.3.1.3.22v.59Z"/>
          <path class="cls-2" d="m56.55,46.83c0,.12-.13.22-.3.22h0c-.16,0-.3-.1-.3-.22v-.59c0-.12.13-.22.3-.22h0c.16,0,.3.1.3.22v.59Z"/>
          <path class="cls-2" d="m64.72,44.82c-.25-1.4-.51-2.02-.73-2.02s-.48.62-.73,2.02c0,0,1.45,0,1.45,0Z"/>
          <path class="cls-2" d="m52.86,45.3c0-.06.07-.11.15-.11h21.88c.08,0,.15.05.15.11h0c0,.06-.07.11-.15.11,0,0-8.22.97-10.96.97s-10.92-.97-10.92-.97c-.08,0-.15-.05-.15-.11h0Z"/>
          <path class="cls-3" d="m67.87,46.11c-.29-1.14-1.91-2.02-3.88-2.02s-3.59.88-3.88,2.02h7.76Z"/>
          <path class="cls-2" d="m52.86,45.3c0-.06.07-.11.15-.11h21.88c.08,0,.15.05.15.11h0c0,.06-.07.11-.15.11h-21.88c-.08,0-.15-.05-.15-.11h0Z"/>
          <path class="cls-3" d="m67.87,46.11c-.29-1.14-1.91-2.02-3.88-2.02s-3.59.88-3.88,2.02c0,0,2.9.49,3.89.49s3.86-.49,3.86-.49h0Z"/>
          <path class="cls-2" d="m66.27,44.7c-.64-.31-1.42-.49-2.28-.49s-1.64.19-2.28.49c.52.64,1.34,1.06,2.28,1.06s1.76-.42,2.28-1.06Z"/>
          <rect class="cls-2" x="56.41" y="45.57" width=".26" height="1.1"/>
          <path class="cls-2" d="m71.43,46.83c0,.12.13.22.3.22h0c.16,0,.3-.1.3-.22v-.59c0-.12-.13-.22-.3-.22h0c-.16,0-.3.1-.3.22v.59Z"/>
          <rect class="cls-2" x="71.31" y="45.57" width=".26" height="1.1"/>
        </g>
      </g>
    </g>
  </g>
</svg>