<?xml version="1.0" encoding="UTF-8"?>
<svg id="Layer_2" data-name="Layer 2" xmlns="http://www.w3.org/2000/svg" viewBox="0 0 200 100">
  <defs>
    <style>
      .cls-1 {
        fill: #1e4559;
      }

      .cls-1, .cls-2, .cls-3, .cls-4, .cls-5, .cls-6, .cls-7, .cls-8, .cls-9 {
        stroke-width: 0px;
      }

      .cls-2 {
        fill: #e4355c;
      }

      .cls-3 {
        fill: #3b5972;
      }

      .cls-4 {
        fill: #29516a;
      }

      .cls-5 {
        fill: #466480;
      }

      .cls-6 {
        fill: #447284;
      }

      .cls-7 {
        fill: #f2736d;
      }

      .cls-8 {
        fill: #588399;
      }

      .cls-9 {
        fill: #a5c1cc;
      }
    </style>
  </defs>
  <g id="Layer">
    <g>
      <path class="cls-6" d="m3.25,79.67c0,.71-.38,1.28-.85,1.28h0c-.47,0-.85-.57-.85-1.28v-16c0-.71.38-1.28.85-1.28h0c.47,0,.85.57.85,1.28v16Z"/>
      <path class="cls-6" d="m5.77,74.08c.12.3.05.68-.15.86h0c-.2.17-.45.07-.57-.22l-2.63-6.74c-.12-.3-.05-.68.15-.86h0c.2-.17.45-.07.57.22l2.63,6.74Z"/>
      <path class="cls-6" d="m7.1,81.63c0,.54-.29.98-.65.98h0c-.36,0-.65-.44-.65-.98v-12.24c0-.54.29-.98.65-.98h0c.36,0,.65.44.65.98v12.24Z"/>
      <path class="cls-6" d="m9.44,81.63c0,.54-.29.98-.65.98h0c-.36,0-.65-.44-.65-.98v-12.24c0-.54.29-.98.65-.98h0c.36,0,.65.44.65.98v12.24Z"/>
      <path class="cls-6" d="m165.61,71.98c0,3.6-1.95,6.52-4.35,6.52h-13.98c-2.4,0-4.35-2.92-4.35-6.52h0c0-3.6,1.95-6.52,4.35-6.52h13.98c2.4,0,4.35,2.92,4.35,6.52h0Z"/>
      <polygon class="cls-1" points="131.79 58.93 137.95 54.42 137.88 54.21 131.72 58.72 131.79 58.93"/>
      <polygon class="cls-4" points="133.3 58.26 135.4 56.72 135.08 55.74 132.99 57.28 133.3 58.26"/>
      <path class="cls-6" d="m134.25,59.18c-.38-1.6-.67-2.59-1.52-2.85l-1.74-.52c-1.03-.31-1.63.87-2.31,2.55-.66,1.64-1.27,3.2-.38,4.59l5.53.26c.63-1.02.77-2.59.42-4.04Z"/>
      <path class="cls-8" d="m139.85,71.88c0,1.57-.85,2.84-1.89,2.84h-14.11c-1.04,0-1.89-1.27-1.89-2.84v-8.32c0-1.57.85-2.84,1.89-2.84h14.11c1.04,0,1.89,1.27,1.89,2.84v8.32Z"/>
      <rect class="cls-4" x="83.67" y="25.65" width=".28" height="26.01"/>
      <rect class="cls-4" x="87.32" y="20.13" width=".28" height="26.01"/>
      <g>
        <rect class="cls-4" x="75.31" y="39.09" width=".94" height="7.09"/>
        <rect class="cls-4" x="74.55" y="37.39" width="1.7" height="4.54"/>
        <rect class="cls-4" x="77.58" y="38.54" width=".62" height="4.66"/>
        <rect class="cls-4" x="77.08" y="37.42" width="1.12" height="2.98"/>
        <rect class="cls-4" x="79.7" y="37.25" width=".9" height="6.73"/>
      </g>
      <polygon class="cls-4" points="92.88 46.46 90.8 46.46 90.8 23.49 91.36 23.49 92.88 46.46"/>
      <g>
        <g>
          <rect class="cls-4" x="63.46" y="20.6" width="5.43" height=".22"/>
          <rect class="cls-4" x="63.09" y="24.02" width="6.24" height=".22"/>
          <rect class="cls-4" x="62.69" y="27.76" width="6.79" height=".22"/>
          <rect class="cls-4" x="62.4" y="31.84" width="7.53" height=".22"/>
          <polygon class="cls-4" points="69.59 32.14 61.66 36.24 61.69 36.46 69.63 32.36 69.59 32.14"/>
          <polygon class="cls-4" points="69.91 27.92 61.97 32.02 62.01 32.23 69.94 28.14 69.91 27.92"/>
          <polygon class="cls-4" points="69.25 24.25 62.71 27.83 62.74 28.05 69.28 24.46 69.25 24.25"/>
          <polygon class="cls-4" points="68.57 21.08 63.11 24.27 63.15 24.48 68.61 21.3 68.57 21.08"/>
          <polygon class="cls-4" points="63.39 21.08 68.85 24.27 68.82 24.48 63.35 21.3 63.39 21.08"/>
          <polygon class="cls-4" points="63.11 24.85 69.59 27.65 69.54 27.87 63.06 25.07 63.11 24.85"/>
          <polygon class="cls-4" points="62.97 27.98 70.32 32.09 70.26 32.29 62.91 28.18 62.97 27.98"/>
          <polygon class="cls-4" points="62.47 31.89 70.53 35.73 70.46 35.94 62.4 32.09 62.47 31.89"/>
        </g>
        <polygon class="cls-4" points="61.99 39 61.03 39 63.09 17.12 64.05 17.12 61.99 39"/>
        <polygon class="cls-4" points="70.39 39 71.34 39 69.28 17.12 68.33 17.12 70.39 39"/>
        <path class="cls-9" d="m69.43,17.23v-2.24c0-2.63-1.42-4.76-3.17-4.76s-3.17,2.13-3.17,4.76v2.24h6.34Z"/>
        <rect class="cls-4" x="57.87" y="16.88" width="12.68" height=".71"/>
      </g>
      <rect class="cls-5" x="60.72" y="37.57" width="12.52" height="10.7"/>
      <path class="cls-4" d="m96.21,52.89c0,.31-.17.57-.38.57h-35.89c-.21,0-.38-.25-.38-.57v-9.07c0-.31.17-.57.38-.57h35.89c.21,0,.38.25.38.57v9.07Z"/>
      <path class="cls-5" d="m94.7,43.72h-24.78c-.21,0-.38.25-.38.57v9.07c0,.31.17.57.38.57h24.78v-10.21Z"/>
      <path class="cls-4" d="m58.5,50.04c.79,2.28.04,4.36-1.77,4.36h-6.87c-1.81,0-3.27-2.08-3.27-4.36v-10.32c0-1.01.85-1.77,1.89-1.77h3.97c1.04,0,2.15.76,2.5,1.77l3.56,10.32Z"/>
      <rect class="cls-1" x="37.33" y="36.25" width="1.13" height="10.49"/>
      <rect class="cls-5" x="32.42" y="43.06" width="7.93" height="3.4"/>
      <rect class="cls-1" x="35.63" y="40.79" width="5.67" height="13.04"/>
      <path class="cls-5" d="m31.67,57.52c0,.31-.17.57-.38.57h-4.72c-.21,0-.38-.25-.38-.57v-3.12c0-.31.17-.57.38-.57h4.72c.21,0,.38.25.38.57v3.12Z"/>
      <rect class="cls-3" x="26.19" y="58.65" width="5.86" height="9.07"/>
      <rect class="cls-1" x="25.24" y="57.52" width="7.75" height="1.42"/>
      <path class="cls-5" d="m31.56,73.66c-.08.58.05,1.06.29,1.06h78.6c.24,0,.37-.47.29-1.06l-3.19-22.63c-.07-.49-.3-.89-.53-.89H35.28c-.22,0-.46.4-.53.89l-3.19,22.63Z"/>
      <path class="cls-4" d="m41,70.7c-.08.34.04.62.27.62h74.24c.23,0,.35-.28.27-.62l-3.02-13.23c-.07-.29-.29-.52-.5-.52H44.51c-.21,0-.43.23-.5.52l-3.02,13.23Z"/>
      <polygon class="cls-3" points="76.67 78.38 76.67 78.38 12.93 78.38 12.05 78.38 18.8 67.36 18.8 67.36 76.67 67.36 76.67 67.36 76.67 78.38"/>
      <polygon class="cls-1" points="100.66 76.96 100.66 76.96 36.92 76.96 36.04 76.96 42.8 65.94 42.8 65.94 100.66 65.94 100.66 65.94 100.66 76.96"/>
      <path class="cls-6" d="m136,78.82l-7.64,2.2-86.94-2.2s10.07-5.44,10.07-13.22h70.71l13.8,13.22Z"/>
      <path class="cls-8" d="m141.88,73.37H.4c-.48-.72-.39,7.76-.39,7.76l.61,7.04s167.48.83,183.3.83c6.28-14.01,12.35-25.71,16.03-29.94,1.89-2.17-46.84,14.31-58.07,14.31Z"/>
      <path class="cls-9" d="m141.88,74.89c9.98,0,49.56-13.01,56.93-14.39.4-.54.78-1.02,1.13-1.43,1.89-2.17-46.84,14.31-58.07,14.31H.4c-.15-.23-.24.46-.3,1.51h141.79Z"/>
      <rect class="cls-4" x="52.79" y="66.73" width="1.88" height=".89"/>
      <rect class="cls-4" x="55.42" y="66.73" width="1.88" height=".89"/>
      <rect class="cls-4" x="58.05" y="66.73" width="1.88" height=".89"/>
      <rect class="cls-4" x="60.68" y="66.73" width="1.88" height=".89"/>
      <rect class="cls-4" x="63.31" y="66.73" width="1.88" height=".89"/>
      <rect class="cls-4" x="65.94" y="66.73" width="1.88" height=".89"/>
      <rect class="cls-4" x="68.57" y="66.73" width="1.88" height=".89"/>
      <rect class="cls-4" x="71.2" y="66.73" width="1.88" height=".89"/>
      <rect class="cls-4" x="73.83" y="66.73" width="1.88" height=".89"/>
      <rect class="cls-4" x="76.46" y="66.73" width="1.88" height=".89"/>
      <rect class="cls-4" x="79.09" y="66.73" width="1.88" height=".89"/>
      <rect class="cls-4" x="81.72" y="66.73" width="1.88" height=".89"/>
      <rect class="cls-4" x="84.35" y="66.73" width="1.88" height=".89"/>
      <rect class="cls-4" x="86.98" y="66.73" width="1.88" height=".89"/>
      <rect class="cls-4" x="89.62" y="66.73" width="1.88" height=".89"/>
      <rect class="cls-4" x="92.25" y="66.73" width="1.88" height=".89"/>
      <rect class="cls-4" x="94.88" y="66.73" width="1.88" height=".89"/>
      <rect class="cls-4" x="97.51" y="66.73" width="1.88" height=".89"/>
      <rect class="cls-4" x="100.14" y="66.73" width="1.88" height=".89"/>
      <rect class="cls-4" x="102.77" y="66.73" width="1.88" height=".89"/>
      <rect class="cls-4" x="105.4" y="66.73" width="1.88" height=".89"/>
      <rect class="cls-4" x="108.03" y="66.73" width="1.88" height=".89"/>
      <rect class="cls-4" x="110.66" y="66.73" width="1.88" height=".89"/>
      <rect class="cls-4" x="113.29" y="66.73" width="1.88" height=".89"/>
      <rect class="cls-4" x="115.92" y="66.73" width="1.88" height=".89"/>
      <rect class="cls-4" x="118.55" y="66.73" width="1.88" height=".89"/>
      <path class="cls-6" d="m195.22,59.85c-7.66,5.76-17.99,14.1-29.19,23.48-12.72,0-123.17-.54-165.9-.74l.49,5.59s167.48.83,183.3.83c6.28-14.01,12.35-25.71,16.03-29.94.4-.46-1.45-.09-4.73.78Z"/>
      <polygon class="cls-4" points="176.24 80.74 173.36 84.09 169.97 78.14 172.85 74.8 176.24 80.74"/>
      <path class="cls-2" d="m184.77,87.82H.53l.18,4.5c.14,0,.33,0,.54.01l1.05,7.67h3.18l.99-7.25c1.8.17.48.39,2.82.64v2.37h-2.47v1.32l7.3-.08c6.86,1.19,8.17,2.38,8.17,2.38,0,0,117.71-.33,160.35-.33,3.46,0,3.76-3.69.42-5.85-1.13-.73,1.72-5.39,1.72-5.39Zm-170.72,5.78c5.71.62,9.1,3.49,9.11,2.16h-9.11v-2.16Z"/>
      <path class="cls-7" d="m.71,92.32v-.1s182.1,0,182.1,0c-.07.46-.02.83.24.99.33.21.61.44.87.68H15.89c-.58-.12-1.2-.22-1.84-.29v.29h-4.77v-.49c-2.33-.25-1.02-.47-2.82-.64l-.16,1.13H1.46l-.21-1.55c-.21,0-.39-.01-.54-.01Z"/>
      <rect class="cls-1" x="63.4" y="58.37" width="17.57" height="7.37"/>
      <polygon class="cls-1" points="89.47 58.37 89.47 62.05 97.6 62.05 97.6 65.74 107.04 65.74 107.04 58.37 89.47 58.37"/>
      <path class="cls-9" d="m47.78,57.88c0,.82-.44,1.48-.98,1.48h-1.87c-.54,0-.98-.66-.98-1.48h0c0-.82.44-1.48.98-1.48h1.87c.54,0,.98.66.98,1.48h0Z"/>
      <path class="cls-9" d="m52.31,57.88c0,.82-.44,1.48-.98,1.48h-1.87c-.54,0-.98-.66-.98-1.48h0c0-.82.44-1.48.98-1.48h1.87c.54,0,.98.66.98,1.48h0Z"/>
      <path class="cls-9" d="m56.85,57.88c0,.82-.44,1.48-.98,1.48h-1.87c-.54,0-.98-.66-.98-1.48h0c0-.82.44-1.48.98-1.48h1.87c.54,0,.98.66.98,1.48h0Z"/>
      <path class="cls-9" d="m61.38,57.88c0,.82-.44,1.48-.98,1.48h-1.87c-.54,0-.98-.66-.98-1.48h0c0-.82.44-1.48.98-1.48h1.87c.54,0,.98.66.98,1.48h0Z"/>
      <path class="cls-9" d="m65.92,57.88c0,.82-.44,1.48-.98,1.48h-1.87c-.54,0-.98-.66-.98-1.48h0c0-.82.44-1.48.98-1.48h1.87c.54,0,.98.66.98,1.48h0Z"/>
      <path class="cls-9" d="m70.45,57.88c0,.82-.44,1.48-.98,1.48h-1.87c-.54,0-.98-.66-.98-1.48h0c0-.82.44-1.48.98-1.48h1.87c.54,0,.98.66.98,1.48h0Z"/>
      <path class="cls-9" d="m74.99,57.88c0,.82-.44,1.48-.98,1.48h-1.87c-.54,0-.98-.66-.98-1.48h0c0-.82.44-1.48.98-1.48h1.87c.54,0,.98.66.98,1.48h0Z"/>
      <path class="cls-9" d="m79.52,57.88c0,.82-.44,1.48-.98,1.48h-1.87c-.54,0-.98-.66-.98-1.48h0c0-.82.44-1.48.98-1.48h1.87c.54,0,.98.66.98,1.48h0Z"/>
      <path class="cls-9" d="m93.09,57.88c0,.82-.44,1.48-.98,1.48h-1.87c-.54,0-.98-.66-.98-1.48h0c0-.82.44-1.48.98-1.48h1.87c.54,0,.98.66.98,1.48h0Z"/>
      <path class="cls-9" d="m97.63,57.88c0,.82-.44,1.48-.98,1.48h-1.87c-.54,0-.98-.66-.98-1.48h0c0-.82.44-1.48.98-1.48h1.87c.54,0,.98.66.98,1.48h0Z"/>
      <path class="cls-9" d="m102.16,57.88c0,.82-.44,1.48-.98,1.48h-1.87c-.54,0-.98-.66-.98-1.48h0c0-.82.44-1.48.98-1.48h1.87c.54,0,.98.66.98,1.48h0Z"/>
      <path class="cls-9" d="m106.7,57.88c0,.82-.44,1.48-.98,1.48h-1.87c-.54,0-.98-.66-.98-1.48h0c0-.82.44-1.48.98-1.48h1.87c.54,0,.98.66.98,1.48h0Z"/>
      <path class="cls-9" d="m111.23,57.88c0,.82-.44,1.48-.98,1.48h-1.87c-.54,0-.98-.66-.98-1.48h0c0-.82.44-1.48.98-1.48h1.87c.54,0,.98.66.98,1.48h0Z"/>
      <rect class="cls-1" x="66.67" y="51" width="5.93" height="4.54"/>
      <rect class="cls-1" x="73.1" y="51" width="6.5" height="4.54"/>
      <rect class="cls-1" x="80.09" y="51" width="6.5" height="4.54"/>
      <rect class="cls-1" x="87.08" y="51" width="5.36" height="4.54"/>
      <rect class="cls-1" x="92.93" y="51" width="5.61" height="4.54"/>
      <rect class="cls-1" x="58.49" y="51" width="7.69" height="4.54"/>
      <path class="cls-5" d="m39.79,37.81c0,1.17-.63,2.13-1.42,2.13h-2.08c-.78,0-1.42-.95-1.42-2.13h0c0-1.17.63-2.13,1.42-2.13h2.08c.78,0,1.42.95,1.42,2.13h0Z"/>
      <path class="cls-5" d="m47.35,41.07h3.97c1.04,0,2.36.76,2.98,1.77l3.92,6.36-3.27-9.48c-.35-1.01-1.45-1.77-2.5-1.77h-3.97c-1.04,0-1.89.76-1.89,1.77v1.52c.22-.1.47-.17.76-.17Z"/>
      <polygon class="cls-4" points="60.78 5.51 59.77 5.51 59.76 5.62 60.78 5.62 60.78 5.51"/>
      <polygon class="cls-4" points="60.85 7.54 59.64 7.54 59.64 7.68 60.86 7.68 60.85 7.54"/>
      <polygon class="cls-4" points="61.01 10.28 59.51 10.28 59.5 10.44 61.02 10.44 61.01 10.28"/>
      <polygon class="cls-4" points="60.95 10.51 59.22 14.1 59.22 14.32 60.97 10.67 60.95 10.51"/>
      <polygon class="cls-4" points="60.93 7.64 59.42 10.41 59.42 10.58 60.94 7.77 60.93 7.64"/>
      <polygon class="cls-4" points="60.76 5.63 59.65 7.58 59.65 7.71 60.77 5.74 60.76 5.63"/>
      <polygon class="cls-4" points="60.63 4.17 59.77 5.64 59.77 5.75 60.63 4.26 60.63 4.17"/>
      <polygon class="cls-4" points="59.84 4.17 60.7 5.64 60.7 5.75 59.84 4.26 59.84 4.17"/>
      <polygon class="cls-4" points="59.76 5.93 60.87 7.48 60.86 7.61 59.75 6.05 59.76 5.93"/>
      <polygon class="cls-4" points="59.69 7.67 61.1 10.46 61.09 10.62 59.68 7.79 59.69 7.67"/>
      <polygon class="cls-4" points="59.52 10.31 61.25 13.6 61.24 13.8 59.5 10.47 59.52 10.31"/>
      <polygon class="cls-4" points="59.19 17.17 58.95 17.17 59.84 2.62 59.97 2.62 59.19 17.17"/>
      <polygon class="cls-4" points="61.34 17.17 61.58 17.17 60.69 2.62 60.56 2.62 61.34 17.17"/>
      <rect class="cls-4" x="54.85" y="2.62" width="7.29" height=".48"/>
      <polygon class="cls-4" points="61.03 2.85 59.77 2.85 60.08 0 61.03 2.85"/>
      <polygon class="cls-4" points="73.45 22.83 69.12 22.83 69.59 26.16 73.16 24.02 73.45 23.85 73.45 22.83"/>
      <polygon class="cls-4" points="74.59 27.35 69.59 27.35 70.18 30.68 74.56 28.54 74.59 28.53 74.59 27.35"/>
      <rect class="cls-4" x="78.98" y="35.63" width="1.61" height="4.31"/>
      <polygon class="cls-6" points="133.68 71.98 125.56 64.61 125.56 63.47 133.68 70.84 133.68 71.98"/>
      <rect class="cls-6" x="130.57" y="62.34" width="8.31" height="1.13"/>
    </g>
  </g>
</svg>