<?xml version="1.0" encoding="UTF-8"?>
<svg id="Layer_2" data-name="Layer 2" xmlns="http://www.w3.org/2000/svg" viewBox="0 0 200 100">
  <defs>
    <style>
      .cls-1 {
        fill: #162d38;
      }

      .cls-1, .cls-2, .cls-3, .cls-4, .cls-5, .cls-6 {
        stroke-width: 0px;
      }

      .cls-2 {
        fill: #e4355c;
      }

      .cls-3 {
        fill: #254254;
      }

      .cls-4 {
        fill: #008096;
      }

      .cls-5 {
        fill: #29516a;
      }

      .cls-6 {
        fill: #f2736d;
      }
    </style>
  </defs>
  <g id="Layer">
    <g>
      <path class="cls-3" d="m16.32,97.96c-.05.35-.24.64-.43.64H4.53c-.18,0-.33-.29-.33-.64v-24.09c0-.61.19-1.11.44-1.11h15.08c.24,0,.36.5.27,1.11l-3.67,24.09Z"/>
      <path class="cls-3" d="m23.98,65.14c.35,3.8-.64,7.02-2.22,7.02h-8.58c-1.58,0-2.86,5-2.86,1.21v-38.04c0-2.33.94-4.14,2.11-4.14h6.33c1.17,0,2.28,1.82,2.49,4.14l2.73,29.81Z"/>
      <path class="cls-4" d="m11.9,33.89h6.33c1.17,0,2.28,1.82,2.49,4.14l2.73,29.81c.08.89.09,1.74.03,2.53.48-1.3.68-3.19.5-5.25l-2.73-29.81c-.21-2.33-1.32-4.15-2.49-4.15h-6.33c-1.16,0-2.1,1.8-2.11,4.11.39-.86.95-1.39,1.58-1.39Z"/>
      <g>
        <path class="cls-5" d="m81.34,18.22c0,1-.31,1.81-.7,1.81h0c-.39,0-.7-.81-.7-1.81V3.16c0-1,.31-1.81.7-1.81h0c.39,0,.7.81.7,1.81v15.07Z"/>
        <path class="cls-5" d="m84.88,22.74c0,1-.31,1.81-.7,1.81h0c-.39,0-.7-.81-.7-1.81V7.68c0-1,.31-1.81.7-1.81h0c.39,0,.7.81.7,1.81v15.07Z"/>
        <path class="cls-5" d="m87.46,21.24c0,1-.31,1.81-.7,1.81h0c-.39,0-.7-.81-.7-1.81V6.17c0-1,.31-1.81.7-1.81h0c.39,0,.7.81.7,1.81v15.07Z"/>
        <path class="cls-5" d="m99.23,16.45c0,.43-.14.78-.3.78h0c-.17,0-.3-.35-.3-.78V1.46c0-.43.14-.78.3-.78h0c.17,0,.3.35.3.78v14.99Z"/>
        <path class="cls-5" d="m100.99,15.78c0,.43-.14.78-.3.78h0c-.17,0-.3-.35-.3-.78V.78c0-.43.14-.78.3-.78h0c.17,0,.3.35.3.78v14.99Z"/>
      </g>
      <path class="cls-4" d="m104.82,39.92c0,3.14-1.02,5.72-2.27,5.72h-28.36c-1.08,0-1.82-2.38-1.64-5.29l1.27-21.25c.16-2.66,1.12-4.86,2.14-4.94l26.73-2.1c1.17-.09,2.13,2.12,2.13,4.97v22.89Z"/>
      <path class="cls-4" d="m200,73.2c0,14.8-4.67,26.81-10.43,26.81H60.48c-5.76,0-49.58-12-49.58-26.81h0c0-14.8,43.82-26.81,49.58-26.81h129.09c5.76,0,10.43,12,10.43,26.81h0Z"/>
      <path class="cls-3" d="m64.37,46.39c2.46,7.34,8.52,12.53,15.61,12.53h13c7.09,0,13.15-5.19,15.61-12.53h-44.23Z"/>
      <path class="cls-6" d="m15.23,64.99c-1.75,1.69-3.06,3.45-3.76,5.27h188.46c-.08-1.82-.23-3.58-.44-5.27H15.23Z"/>
      <path class="cls-6" d="m107.72,46.39c-.19-6.16-3.92-10.34-10.26-10.34h-12.9c-6.34,0-13.62,4.19-19.05,10.34h42.21Z"/>
      <path class="cls-5" d="m12.22,68.72c-.84,1.46-1.31,2.95-1.31,4.48,0,14.8,43.82,26.81,49.58,26.81h129.09c5.76,0,10.43-12,10.43-26.81,0-1.53-.05-3.02-.15-4.48H12.22Z"/>
      <path class="cls-6" d="m104.51,14.43c-.37-1.48-1.05-2.43-1.83-2.37l-26.73,2.1c-.76.06-1.48,1.28-1.87,2.98l30.43-2.71Z"/>
      <path class="cls-3" d="m191.82,56.79c0,.5-.16.9-.35.9h-16.52c-.19,0-.35-.4-.35-.9v-1.12c0-.5.16-.9.35-.9h16.52c.19,0,.35.4.35.9v1.12Z"/>
      <path class="cls-2" d="m190.01,57.76c0,.5-.16.9-.35.9h-6.24c-.19,0-.35-.4-.35-.9v-3.09c0-.5.16-.9.35-.9h6.24c.19,0,.35.4.35.9v3.09Z"/>
      <g>
        <path class="cls-3" d="m171.75,63.87c0,.34.11.61.24.61h2.38c.13,0,.24-.27.24-.61v-1.53c0-.34-.11-.61-.24-.61h-2.38c-.13,0-.24.27-.24.61v1.53Z"/>
        <path class="cls-3" d="m168.43,63.87c0,.34.11.61.24.61h2.38c.13,0,.24-.27.24-.61v-1.53c0-.34-.11-.61-.24-.61h-2.38c-.13,0-.24.27-.24.61v1.53Z"/>
        <path class="cls-3" d="m165.1,63.87c0,.34.11.61.24.61h2.38c.13,0,.24-.27.24-.61v-1.53c0-.34-.11-.61-.24-.61h-2.38c-.13,0-.24.27-.24.61v1.53Z"/>
        <path class="cls-3" d="m161.78,63.87c0,.34.11.61.24.61h2.38c.13,0,.24-.27.24-.61v-1.53c0-.34-.11-.61-.24-.61h-2.38c-.13,0-.24.27-.24.61v1.53Z"/>
        <path class="cls-3" d="m158.46,63.87c0,.34.11.61.24.61h2.38c.13,0,.24-.27.24-.61v-1.53c0-.34-.11-.61-.24-.61h-2.38c-.13,0-.24.27-.24.61v1.53Z"/>
        <path class="cls-3" d="m155.14,63.87c0,.34.11.61.24.61h2.38c.13,0,.24-.27.24-.61v-1.53c0-.34-.11-.61-.24-.61h-2.38c-.13,0-.24.27-.24.61v1.53Z"/>
      </g>
      <g>
        <path class="cls-3" d="m141.7,63.87c0,.34.11.61.24.61h2.38c.13,0,.24-.27.24-.61v-1.53c0-.34-.11-.61-.24-.61h-2.38c-.13,0-.24.27-.24.61v1.53Z"/>
        <path class="cls-3" d="m138.38,63.87c0,.34.11.61.24.61h2.38c.13,0,.24-.27.24-.61v-1.53c0-.34-.11-.61-.24-.61h-2.38c-.13,0-.24.27-.24.61v1.53Z"/>
        <path class="cls-3" d="m135.05,63.87c0,.34.11.61.24.61h2.38c.13,0,.24-.27.24-.61v-1.53c0-.34-.11-.61-.24-.61h-2.38c-.13,0-.24.27-.24.61v1.53Z"/>
        <path class="cls-3" d="m131.73,63.87c0,.34.11.61.24.61h2.38c.13,0,.24-.27.24-.61v-1.53c0-.34-.11-.61-.24-.61h-2.38c-.13,0-.24.27-.24.61v1.53Z"/>
        <path class="cls-3" d="m128.41,63.87c0,.34.11.61.24.61h2.38c.13,0,.24-.27.24-.61v-1.53c0-.34-.11-.61-.24-.61h-2.38c-.13,0-.24.27-.24.61v1.53Z"/>
        <path class="cls-3" d="m125.09,63.87c0,.34.11.61.24.61h2.38c.13,0,.24-.27.24-.61v-1.53c0-.34-.11-.61-.24-.61h-2.38c-.13,0-.24.27-.24.61v1.53Z"/>
      </g>
      <g>
        <path class="cls-3" d="m111.65,63.87c0,.34.11.61.24.61h2.38c.13,0,.24-.27.24-.61v-1.53c0-.34-.11-.61-.24-.61h-2.38c-.13,0-.24.27-.24.61v1.53Z"/>
        <path class="cls-3" d="m108.33,63.87c0,.34.11.61.24.61h2.38c.13,0,.24-.27.24-.61v-1.53c0-.34-.11-.61-.24-.61h-2.38c-.13,0-.24.27-.24.61v1.53Z"/>
        <path class="cls-3" d="m105.01,63.87c0,.34.11.61.24.61h2.38c.13,0,.24-.27.24-.61v-1.53c0-.34-.11-.61-.24-.61h-2.38c-.13,0-.24.27-.24.61v1.53Z"/>
        <path class="cls-3" d="m101.68,63.87c0,.34.11.61.24.61h2.38c.13,0,.24-.27.24-.61v-1.53c0-.34-.11-.61-.24-.61h-2.38c-.13,0-.24.27-.24.61v1.53Z"/>
        <path class="cls-3" d="m98.36,63.87c0,.34.11.61.24.61h2.38c.13,0,.24-.27.24-.61v-1.53c0-.34-.11-.61-.24-.61h-2.38c-.13,0-.24.27-.24.61v1.53Z"/>
        <path class="cls-3" d="m95.04,63.87c0,.34.11.61.24.61h2.38c.13,0,.24-.27.24-.61v-1.53c0-.34-.11-.61-.24-.61h-2.38c-.13,0-.24.27-.24.61v1.53Z"/>
      </g>
      <g>
        <path class="cls-1" d="m139.28,71.56c0,.34.11.61.24.61h2.38c.13,0,.24-.27.24-.61v-1.53c0-.34-.11-.61-.24-.61h-2.38c-.13,0-.24.27-.24.61v1.53Z"/>
        <path class="cls-1" d="m135.95,71.56c0,.34.11.61.24.61h2.38c.13,0,.24-.27.24-.61v-1.53c0-.34-.11-.61-.24-.61h-2.38c-.13,0-.24.27-.24.61v1.53Z"/>
        <path class="cls-1" d="m132.63,71.56c0,.34.11.61.24.61h2.38c.13,0,.24-.27.24-.61v-1.53c0-.34-.11-.61-.24-.61h-2.38c-.13,0-.24.27-.24.61v1.53Z"/>
        <path class="cls-1" d="m129.31,71.56c0,.34.11.61.24.61h2.38c.13,0,.24-.27.24-.61v-1.53c0-.34-.11-.61-.24-.61h-2.38c-.13,0-.24.27-.24.61v1.53Z"/>
        <path class="cls-1" d="m125.99,71.56c0,.34.11.61.24.61h2.38c.13,0,.24-.27.24-.61v-1.53c0-.34-.11-.61-.24-.61h-2.38c-.13,0-.24.27-.24.61v1.53Z"/>
        <path class="cls-1" d="m122.66,71.56c0,.34.11.61.24.61h2.38c.13,0,.24-.27.24-.61v-1.53c0-.34-.11-.61-.24-.61h-2.38c-.13,0-.24.27-.24.61v1.53Z"/>
      </g>
      <g>
        <path class="cls-1" d="m114.42,71.56c0,.34.11.61.24.61h2.38c.13,0,.24-.27.24-.61v-1.53c0-.34-.11-.61-.24-.61h-2.38c-.13,0-.24.27-.24.61v1.53Z"/>
        <path class="cls-1" d="m111.1,71.56c0,.34.11.61.24.61h2.38c.13,0,.24-.27.24-.61v-1.53c0-.34-.11-.61-.24-.61h-2.38c-.13,0-.24.27-.24.61v1.53Z"/>
        <path class="cls-1" d="m107.78,71.56c0,.34.11.61.24.61h2.38c.13,0,.24-.27.24-.61v-1.53c0-.34-.11-.61-.24-.61h-2.38c-.13,0-.24.27-.24.61v1.53Z"/>
        <path class="cls-1" d="m104.45,71.56c0,.34.11.61.24.61h2.38c.13,0,.24-.27.24-.61v-1.53c0-.34-.11-.61-.24-.61h-2.38c-.13,0-.24.27-.24.61v1.53Z"/>
        <path class="cls-1" d="m101.13,71.56c0,.34.11.61.24.61h2.38c.13,0,.24-.27.24-.61v-1.53c0-.34-.11-.61-.24-.61h-2.38c-.13,0-.24.27-.24.61v1.53Z"/>
        <path class="cls-1" d="m97.81,71.56c0,.34.11.61.24.61h2.38c.13,0,.24-.27.24-.61v-1.53c0-.34-.11-.61-.24-.61h-2.38c-.13,0-.24.27-.24.61v1.53Z"/>
      </g>
      <g>
        <path class="cls-1" d="m89.57,71.56c0,.34.11.61.24.61h2.38c.13,0,.24-.27.24-.61v-1.53c0-.34-.11-.61-.24-.61h-2.38c-.13,0-.24.27-.24.61v1.53Z"/>
        <path class="cls-1" d="m86.24,71.56c0,.34.11.61.24.61h2.38c.13,0,.24-.27.24-.61v-1.53c0-.34-.11-.61-.24-.61h-2.38c-.13,0-.24.27-.24.61v1.53Z"/>
        <path class="cls-1" d="m82.92,71.56c0,.34.11.61.24.61h2.38c.13,0,.24-.27.24-.61v-1.53c0-.34-.11-.61-.24-.61h-2.38c-.13,0-.24.27-.24.61v1.53Z"/>
        <path class="cls-1" d="m79.6,71.56c0,.34.11.61.24.61h2.38c.13,0,.24-.27.24-.61v-1.53c0-.34-.11-.61-.24-.61h-2.38c-.13,0-.24.27-.24.61v1.53Z"/>
        <path class="cls-1" d="m76.28,71.56c0,.34.11.61.24.61h2.38c.13,0,.24-.27.24-.61v-1.53c0-.34-.11-.61-.24-.61h-2.38c-.13,0-.24.27-.24.61v1.53Z"/>
        <path class="cls-1" d="m72.96,71.56c0,.34.11.61.24.61h2.38c.13,0,.24-.27.24-.61v-1.53c0-.34-.11-.61-.24-.61h-2.38c-.13,0-.24.27-.24.61v1.53Z"/>
      </g>
      <path class="cls-3" d="m191.44,87.82H50.24c-3.96,0-24.37-4.89-38.98-12.3,4.17,13.72,43.76,24.49,49.21,24.49h129.09c4.96,0,9.11-8.91,10.17-20.84-2.08,5.33-5.02,8.66-8.29,8.66Z"/>
      <g>
        <path class="cls-1" d="m65.92,71.56c0,.34.11.61.24.61h2.38c.13,0,.24-.27.24-.61v-1.53c0-.34-.11-.61-.24-.61h-2.38c-.13,0-.24.27-.24.61v1.53Z"/>
        <path class="cls-1" d="m62.6,71.56c0,.34.11.61.24.61h2.38c.13,0,.24-.27.24-.61v-1.53c0-.34-.11-.61-.24-.61h-2.38c-.13,0-.24.27-.24.61v1.53Z"/>
        <path class="cls-1" d="m59.28,71.56c0,.34.11.61.24.61h2.38c.13,0,.24-.27.24-.61v-1.53c0-.34-.11-.61-.24-.61h-2.38c-.13,0-.24.27-.24.61v1.53Z"/>
        <path class="cls-1" d="m55.96,71.56c0,.34.11.61.24.61h2.38c.13,0,.24-.27.24-.61v-1.53c0-.34-.11-.61-.24-.61h-2.38c-.13,0-.24.27-.24.61v1.53Z"/>
        <path class="cls-1" d="m52.63,71.56c0,.34.11.61.24.61h2.38c.13,0,.24-.27.24-.61v-1.53c0-.34-.11-.61-.24-.61h-2.38c-.13,0-.24.27-.24.61v1.53Z"/>
        <path class="cls-1" d="m49.31,71.56c0,.34.11.61.24.61h2.38c.13,0,.24-.27.24-.61v-1.53c0-.34-.11-.61-.24-.61h-2.38c-.13,0-.24.27-.24.61v1.53Z"/>
      </g>
      <g>
        <path class="cls-1" d="m41.54,71.56c0,.34.11.61.24.61h2.38c.13,0,.24-.27.24-.61v-1.53c0-.34-.11-.61-.24-.61h-2.38c-.13,0-.24.27-.24.61v1.53Z"/>
        <path class="cls-1" d="m38.22,71.56c0,.34.11.61.24.61h2.38c.13,0,.24-.27.24-.61v-1.53c0-.34-.11-.61-.24-.61h-2.38c-.13,0-.24.27-.24.61v1.53Z"/>
        <path class="cls-1" d="m34.89,71.56c0,.34.11.61.24.61h2.38c.13,0,.24-.27.24-.61v-1.53c0-.34-.11-.61-.24-.61h-2.38c-.13,0-.24.27-.24.61v1.53Z"/>
        <path class="cls-1" d="m31.57,71.56c0,.34.11.61.24.61h2.38c.13,0,.24-.27.24-.61v-1.53c0-.34-.11-.61-.24-.61h-2.38c-.13,0-.24.27-.24.61v1.53Z"/>
        <path class="cls-1" d="m28.25,71.56c0,.34.11.61.24.61h2.38c.13,0,.24-.27.24-.61v-1.53c0-.34-.11-.61-.24-.61h-2.38c-.13,0-.24.27-.24.61v1.53Z"/>
        <path class="cls-1" d="m24.93,71.56c0,.34.11.61.24.61h2.38c.13,0,.24-.27.24-.61v-1.53c0-.34-.11-.61-.24-.61h-2.38c-.13,0-.24.27-.24.61v1.53Z"/>
      </g>
      <path class="cls-4" d="m20.62,70.19H5.87c-.75,0-5.87,1.56-5.87,3.48s5.12,3.48,5.87,3.48h14.75v-6.96Z"/>
      <path class="cls-2" d="m64.48,48.65c0,.5-.16.9-.35.9h-4.48c-.19,0-.35-.4-.35-.9v-.46c0-.5.16-.9.35-.9h4.48c.19,0,.35.4.35.9v.46Z"/>
      <path class="cls-2" d="m59,48.72c0,.5-.16.9-.35.9h-1.3c-.19,0-.35-.4-.35-.9v-.46c0-.5.16-.9.35-.9h1.3c.19,0,.35.4.35.9v.46Z"/>
      <path class="cls-2" d="m116.53,48.65c0,.5-.16.9-.35.9h-4.48c-.19,0-.35-.4-.35-.9v-.46c0-.5.16-.9.35-.9h4.48c.19,0,.35.4.35.9v.46Z"/>
      <path class="cls-2" d="m111.05,48.72c0,.5-.16.9-.35.9h-1.3c-.19,0-.35-.4-.35-.9v-.46c0-.5.16-.9.35-.9h1.3c.19,0,.35.4.35.9v.46Z"/>
      <path class="cls-2" d="m124.62,48.65c0,.5-.16.9-.35.9h-4.48c-.19,0-.35-.4-.35-.9v-.46c0-.5.16-.9.35-.9h4.48c.19,0,.35.4.35.9v.46Z"/>
      <path class="cls-2" d="m119.14,48.72c0,.5-.16.9-.35.9h-1.3c-.19,0-.35-.4-.35-.9v-.46c0-.5.16-.9.35-.9h1.3c.19,0,.35.4.35.9v.46Z"/>
      <path class="cls-2" d="m132.71,48.65c0,.5-.16.9-.35.9h-4.48c-.19,0-.35-.4-.35-.9v-.46c0-.5.16-.9.35-.9h4.48c.19,0,.35.4.35.9v.46Z"/>
      <path class="cls-2" d="m127.23,48.72c0,.5-.16.9-.35.9h-1.3c-.19,0-.35-.4-.35-.9v-.46c0-.5.16-.9.35-.9h1.3c.19,0,.35.4.35.9v.46Z"/>
      <path class="cls-2" d="m140.8,48.65c0,.5-.16.9-.35.9h-4.48c-.19,0-.35-.4-.35-.9v-.46c0-.5.16-.9.35-.9h4.48c.19,0,.35.4.35.9v.46Z"/>
      <path class="cls-2" d="m135.32,48.72c0,.5-.16.9-.35.9h-1.3c-.19,0-.35-.4-.35-.9v-.46c0-.5.16-.9.35-.9h1.3c.19,0,.35.4.35.9v.46Z"/>
    </g>
  </g>
</svg>