<?xml version="1.0" encoding="utf-8"?>
<!-- Generator: Adobe Illustrator 19.2.0, SVG Export Plug-In . SVG Version: 6.00 Build 0)  -->
<svg version="1.1" id="Layer_1" xmlns="http://www.w3.org/2000/svg" xmlns:xlink="http://www.w3.org/1999/xlink" x="0px" y="0px"
	 viewBox="0 0 1300 1300" style="enable-background:new 0 0 1300 1300;" xml:space="preserve">
<path d="M1245.88,65.46c-32.56-7.82-65.63-11.4-99.06-11.01c-71.52,0.85-137.61,20.55-198,58.75
	c-59.67,37.75-107.17,87.46-143.04,148.24c-10.6,17.97-19.64,36.72-25.84,56.72c-0.67,2.17-1.25,4.37-1.87,6.55
	c-0.33-0.02-0.66-0.04-0.99-0.07c-4.94-10.4-7.33-21.25-4.78-32.82c2.6-11.85,10.94-19.75,20.05-27.42
	c-0.84-0.15-1.08-0.27-1.27-0.21c-16.09,5.41-30.49,25.91-30.92,43.03c-0.3,12.27,3.38,23.32,8.59,34.07
	c5.23,10.77,11.16,21.24,15.79,32.25c14.25,33.92,23.05,69.36,27.78,105.8c4.9,37.71,4.36,75.16-6.91,111.89
	c-7.05,22.97-18.55,43.45-34.61,61.34c-0.66,0.73-1.56,1.24-2.64,2.08c-13.42-20.85-32.44-34.43-54.05-44.66
	c-21.46-10.16-43.98-16.55-67.9-17.45c1.27,1.69,2.79,2.77,4.23,3.96c5.01,4.14,10.33,7.98,14.93,12.54
	c9.45,9.36,16.35,20.33,18.4,33.76c3.06,20.11-9.61,37.02-29.32,39.3c-9.51,1.1-18.38-1.18-26.73-5.55
	c-12.69-6.64-22.44-16.49-30.4-28.27c-1.05-1.56-2.27-3.01-3.41-4.51c-0.31,0.16-0.63,0.33-0.94,0.49
	c0.08,9.81,1.82,19.45,4.21,28.92c9.4,37.13,25.07,70.49,57.89,93.44c-1.12,1.16-1.87,2.06-2.75,2.82
	c-16.51,14.31-35.06,25.08-55.81,31.97c-39,12.96-78.87,13.24-119.05,7.74c-20.23-2.77-40.18-7.01-59.82-12.69
	c-18.9-5.47-37.43-11.75-55.1-20.6c-12.55-6.29-25.26-12.55-38.46-17.2c-23.58-8.3-51.64,5.69-60.6,29.16
	c-0.25,0.65-0.26,1.39-0.3,1.6c5.52-5.32,10.72-11.19,16.79-15.94c6.44-5.04,14.44-6.48,22.56-6c7.74,0.46,15.23,2.15,22.65,6.35
	c-1.31,0.61-1.89,1-2.54,1.17c-20.01,5.16-38.53,13.91-56.47,23.89c-52.2,29.04-96.42,67.44-133.01,114.59
	c-29.16,37.57-51.14,78.92-65.04,124.52c-6.98,22.89-11.78,46.2-14.26,69.96c-2.6,24.9-3.15,49.91-0.31,74.8
	c2.15,18.78,5.6,37.4,8.6,56.08c0.37,2.3,1.51,4.48,2.29,6.72c0.45-0.04,0.91-0.09,1.36-0.13c0.51-2.85,1.14-5.68,1.5-8.55
	c0.66-5.29,0.65-10.72,1.81-15.89c3.1-13.74,6.07-27.56,10.18-41.01c7.87-25.76,19.78-49.66,35.9-71.31
	c24.29-32.62,55.18-55.91,95.26-65.46c37.48-8.93,73.9-3.73,109.5,9.52c29.49,10.98,56.46,26.57,81.69,45.26
	c4.55,3.38,5.46,3.17,7.69-2.07c9.12-21.45,21.69-40.71,37.25-57.98c25.03-27.81,54.7-48.67,91.13-58.7
	c34-9.36,66.89-6.58,97.94,10.94c22.6,12.76,39.79,31.18,53.84,52.71c0.95,1.46,1.35,3.27,2.08,5.12c1.53-1.26,1.81-1.37,1.88-1.56
	c1.36-3.4,2.59-6.85,4.06-10.2c11.92-27.17,28.87-51.03,48.51-73.06c11.06-12.41,22.7-24.27,37.03-33.03
	c9.1-5.56,18.94-7.87,29.23-4.08c6.73,2.47,13.41,5.41,19.56,9.07c25.1,14.94,50.8,28.35,79.32,35.75
	c21.93,5.69,44.3,8.06,66.76,10.06c2.41,0.21,3.56-0.94,3.35-3.37c-0.43-5.07-0.86-10.13-1.28-15.2
	c-3.06-36.74-11.69-71.92-29.3-104.56c-6.53-12.1-13.53-23.96-19.93-36.13c-3.96-7.53-6.13-15.6-4.58-24.34
	c1.68-9.46,6.68-17.17,12.72-24.23c25.78-30.15,56.65-53.8,92.18-71.36c5.7-2.82,11.73-4.98,18.37-7.77
	c-1.92-1.41-3.35-2.42-4.73-3.48c-7.77-6-16.02-11.48-23.22-18.1c-36.16-33.22-51.44-73.92-42.15-122.71
	c4.7-24.69,15.5-46.88,30.32-67.08c23.47-31.98,53.44-55.85,89.86-71.6c5.53-2.39,5.47-2.71,2.06-7.8
	c-7.39-11.03-14.96-21.97-21.77-33.36c-15.32-25.59-26.73-52.83-32.68-82.17c-5.87-28.95-5.5-57.73,3.65-86.02
	c9.93-30.72,28.22-55.79,52.92-76.29c27.48-22.81,59.13-37.36,93.25-47.15c16.03-4.6,32.41-6.64,48.88-8.38
	c1.92-0.2,3.8-0.76,5.7-1.15c0.04-0.4,0.07-0.81,0.11-1.21C1249.73,66.83,1247.86,65.94,1245.88,65.46z M682.45,724.29
	c-1.31,6.64-9.15,11.95-15.96,10.77c-0.23-0.06-0.58-0.13-0.91-0.26c-3.38-1.29-7.49-2.91-7.43-6.6c0.03-1.78,4.33-4.32,7.09-5.06
	c4.85-1.3,9.99-1.53,15.02-2.12C682.94,720.71,682.79,722.59,682.45,724.29z M734.2,670.14c-1.12,6.27-5.86,11.41-11.03,12.19
	c-0.9,0.14-2.87-1.05-2.87-1.62c0-7.18-0.81-14.47,2.26-21.34c2.01-4.51,3.82-4.96,7.2-1.41
	C733.21,661.58,734.87,665.87,734.2,670.14z"/>
</svg>
