<?xml version="1.0" encoding="iso-8859-1"?>
<!-- Generator: Adobe Illustrator 19.0.0, SVG Export Plug-In . SVG Version: 6.00 Build 0)  -->
<svg version="1.1" id="Layer_1" xmlns="http://www.w3.org/2000/svg" xmlns:xlink="http://www.w3.org/1999/xlink" x="0px" y="0px"
	 viewBox="0 0 512 512" style="enable-background:new 0 0 512 512;" xml:space="preserve">
<circle style="fill:#D8DBBA;" cx="255.999" cy="255.996" r="255.996"/>
<path style="fill:#C6C9A3;" d="M511.942,251.747L364.527,104.332L165.796,495.619c28.064,10.564,58.449,16.372,90.206,16.372
	c141.381,0,255.995-114.614,255.995-255.995C511.998,254.576,511.97,253.166,511.942,251.747z"/>
<path style="fill:#D30303;" d="M263.606,312.912L263.606,312.912c17.293,0,33.891,3.13,49.248,8.844l1.363-14.135l102.922-21.795
	c-128.402,119.99-59.802,25.178-11.241,169.379l2.247,6.682C365.608,493.372,312.985,512,256.003,512
	c-51.635,0-99.699-15.3-139.914-41.598l5.226-15.197c29.098-84.662,45.066-83.486,52.293-93.806
	c5.065-7.218-10.686-26.184-63.533-75.573l102.922,21.795l1.363,14.135C229.725,316.042,246.313,312.912,263.606,312.912z"/>
<path style="fill:#333333;" d="M360.805,489.622c-3.44-17.5-5.808-29.436-5.808-29.436l7.5,28.665l-1.702,0.771H360.805z
	 M164.217,495.026c-0.686-0.263-1.372-0.508-2.049-0.78l8.919-34.07C171.088,460.176,168.221,474.622,164.217,495.026z"/>
<path style="fill:#850000;" d="M355.175,314.51c0,0-56.964,76.494-66.109,86.607c-9.145,10.132-26.024,14.624-26.024,14.624
	s-16.879-4.492-26.024-14.624c-9.145-10.123-66.109-86.607-66.109-86.607l92.133,25.526L355.175,314.51z"/>
<path style="fill:#FFC379;" d="M244.226,370.083c-20.856-12.228-60.357-43.224-70.489-56.249
	c-10.123-13.027-10.771-34.915-12.801-62.876c-4.746-1.476-14.07-6.146-30.761-20.291c-27.566-23.346,0.639-82.631,0.639-82.631
	l27.904,26.005c0.037-7.782,0.141-12.5,0.141-12.5c-5.771-126.794,214.162-126.391,208.392,0c0,0,0.103,4.718,0.132,12.5
	l27.894-26.005c0,0,28.205,59.285,0.648,82.631c-16.701,14.145-26.015,18.807-30.77,20.291c-2.021,27.961-2.66,49.849-12.792,62.876
	c-10.132,13.036-49.633,44.023-70.498,56.249c-2.002,4.323-13.919,7.312-18.816,7.312
	C258.146,377.395,246.238,374.415,244.226,370.083z"/>
<g>
	<path style="fill:#4D4D4D;" d="M324.217,291.935c0,0-15.461,14.944-39.079,17.424c-23.628,2.49-75.084-30.113-75.084-30.113
		s22.782,43.017,48.092,49.36c25.3,6.344,66.081-36.673,66.081-36.673L324.217,291.935L324.217,291.935z"/>
	<path style="fill:#4D4D4D;" d="M181.858,105.902c-5.545,7.077,9.765,67.058,1.495,74.361c-8.261,7.312-9.765,45.555-9.765,51.184
		c0,5.62-39.191-91.08-12.03-127.105c38.655-51.277,170.347-50.771,202.969,0c24.07,37.472-12.03,132.725-12.03,127.105
		c0-5.62-1.504-43.862-9.774-51.184c-8.262-7.312,13.684-61.24,3.412-74.361c-0.846-1.081-78.251,19.229-86.691,19.229
		C250.777,125.131,187.403,98.834,181.858,105.902z"/>
</g>
<path style="fill:#F6F6F6;" d="M226.943,288.411c0.019,4.906,1.673,20.752,3.684,27.302c2.322,7.594,5.61,13.308,5.61,13.308
	l7.406-31.899L226.943,288.411z M312.233,300.46c-0.451,3.975-6.532,17.105-8.449,20.874l-5.226-14.831L312.233,300.46z"/>
<path style="fill:#E8A14B;" d="M288.86,270.666c-15.047,6.607-18.12,23.731-23.29,23.731c-9.587,0-12.603-19.436-28.205-23.731
	c-10.065-2.764,12.697-36.692,25.545-36.72C275.806,233.918,298.587,266.4,288.86,270.666z"/>
<path style="fill:#F7B668;" d="M368.089,205.3l26.156-44.426c0,0,9.276,40.488-0.846,52.867
	c-10.123,12.368-31.494,26.992-31.494,26.992s5.056-8.722,3.092-17.434c-1.964-8.722-4.492-3.374-4.492-3.374l7.594-14.624H368.089z
	 M157.995,205.3l-26.147-44.426c0,0-9.285,40.488,0.846,52.867c10.132,12.368,31.494,26.992,31.494,26.992
	s-5.065-8.722-3.092-17.434c1.964-8.722,4.492-3.374,4.492-3.374L157.995,205.3z"/>
<path style="fill:#FCC179;" d="M288.86,266.794c-15.047,7.18-18.12,25.77-23.29,25.77c-9.587,0-12.603-21.108-28.205-25.77
	c-10.065-2.998,12.697-39.85,25.545-39.887C275.806,226.879,298.587,262.151,288.86,266.794z"/>
<g>
	<path style="fill:#F0001C;" d="M224.658,196.344c12.706,0,23.008,10.291,23.008,22.998s-10.291,23.008-23.008,23.008
		c-12.706,0-23.008-10.3-23.008-23.008C201.652,206.635,211.952,196.344,224.658,196.344z"/>
	<path style="fill:#F0001C;" d="M224.658,211.747c4.201,0,7.613,3.402,7.613,7.603s-3.412,7.613-7.613,7.613
		c-4.201,0-7.613-3.412-7.613-7.613S220.457,211.747,224.658,211.747z"/>
</g>
<path style="fill:#FFFFFF;" d="M224.658,200.939c12.706,0,23.008,8.242,23.008,18.402c0,10.169-10.291,18.411-23.008,18.411
	c-12.706,0-23.008-8.242-23.008-18.411C201.652,209.172,211.952,200.939,224.658,200.939z"/>
<path style="fill:#4D4D4D;" d="M224.658,213.27c4.201,0,7.613,2.716,7.613,6.081c0,3.365-3.412,6.09-7.613,6.09
	c-4.201,0-7.613-2.725-7.613-6.09C217.045,215.986,220.457,213.27,224.658,213.27z"/>
<g>
	<path style="fill:#F0001C;" d="M301.642,196.344c12.706,0,23.008,10.291,23.008,22.998s-10.291,23.008-23.008,23.008
		c-12.706,0-23.008-10.3-23.008-23.008C278.634,206.635,288.935,196.344,301.642,196.344z"/>
	<path style="fill:#F0001C;" d="M301.642,211.747c4.201,0,7.613,3.402,7.613,7.603s-3.412,7.613-7.613,7.613
		s-7.613-3.412-7.613-7.613S297.441,211.747,301.642,211.747z"/>
</g>
<path style="fill:#FFFFFF;" d="M301.642,200.939c12.706,0,23.008,8.242,23.008,18.402c0,10.169-10.291,18.411-23.008,18.411
	c-12.706,0-23.008-8.242-23.008-18.411S288.935,200.939,301.642,200.939z"/>
<g>
	<path style="fill:#4D4D4D;" d="M301.642,213.27c4.201,0,7.613,2.716,7.613,6.081c0,3.365-3.412,6.09-7.613,6.09
		s-7.613-2.725-7.613-6.09C294.029,215.986,297.441,213.27,301.642,213.27z"/>
	<path style="fill:#4D4D4D;" d="M247.084,196.803l-43.28-25.94c-1.363-0.724-5.375,0.715-6.26,3.177l-7.105,19.314l11.523-12.209
		l41.287,26.269c5.123,2.566,9.765-4.953,3.844-10.61L247.084,196.803L247.084,196.803z M279.358,196.803l43.28-25.94
		c1.363-0.724,5.375,0.715,6.26,3.177l7.105,19.314l-11.513-12.209l-41.287,26.269C278.08,209.981,273.437,202.462,279.358,196.803z
		"/>
</g>
<g>
	<path style="fill:#F20028;" d="M221.135,296.164c0,0-10.921,17.472-8.91,30.169c2.002,12.697,18.928,12.284,17.904-0.931
		C229.104,312.188,220.636,310.525,221.135,296.164z"/>
	<path style="fill:#F20028;" d="M232.441,330.205c0,0,7.66,9.737,6.053,18.064c-1.607,8.327-10.686,5.254-10.244-0.827
		C228.691,341.361,233.635,338.739,232.441,330.205z"/>
</g>
<g>
</g>
<g>
</g>
<g>
</g>
<g>
</g>
<g>
</g>
<g>
</g>
<g>
</g>
<g>
</g>
<g>
</g>
<g>
</g>
<g>
</g>
<g>
</g>
<g>
</g>
<g>
</g>
<g>
</g>
</svg>
