<?xml version="1.0" encoding="UTF-8"?>
<!DOCTYPE svg PUBLIC "-//W3C//DTD SVG 1.1//EN" "http://www.w3.org/Graphics/SVG/1.1/DTD/svg11.dtd">
<svg version="1.1" xmlns="http://www.w3.org/2000/svg" xmlns:xlink="http://www.w3.org/1999/xlink" x="0" y="0" width="1428.708" height="1009.198" viewBox="0, 0, 1428.708, 1009.198">
  <g id="Layer_1">
    <path d="M772.956,360.039 C833.864,492.91 577.874,471.967 607.921,372.51 C619.016,335.789 655.583,324.528 689.143,321.27 C733.04,317.004 752.856,316.19 772.956,360.039" fill="#B9DCC4" id="path833"/>
    <path d="M772.956,360.039 C833.864,492.91 577.874,471.967 607.921,372.51 C619.016,335.789 655.583,324.528 689.143,321.27 C733.04,317.004 752.856,316.19 772.956,360.039 z" fill-opacity="0" stroke="#1A1919" stroke-width="12.756" stroke-linecap="round" stroke-linejoin="round" id="path835"/>
    <path d="M736.032,833.844 C713.544,847.717 721.089,880.399 729.802,901.612 C739.993,926.438 762.45,955.298 787.393,975.998 C820.919,1003.828 866.844,998.898 885.145,982.208 C896.762,971.608 905.738,948.468 898.645,932.708 C890.165,913.836 849.587,900.92 839.856,890.328 C818.788,867.403 779.016,817.494 742.934,830.551 C740.372,831.477 738.081,832.586 736.032,833.844" fill="#BE7F40" id="path837"/>
    <path d="M846.596,921.818 C842.825,926.768 837.571,933.248 840.62,938.968 C849.805,956.198 866.02,927.408 878.622,923.798 C875.165,912.451 858.821,905.797 846.596,921.818" fill="#E0A458" id="path839"/>
    <path d="M738.973,820.656 C726.524,835.395 724.192,873.473 724.993,887.198 C727.393,927.998 762.446,955.298 787.393,975.998 C820.919,1003.828 865.091,997.498 883.395,980.798 C908.918,957.518 912.198,920.798 839.856,890.336 C815.587,880.11 771.954,807.149 746.419,815.332 C743.606,816.231 741.137,818.092 738.973,820.656 z" fill-opacity="0" stroke="#1A1919" stroke-width="12.756" stroke-linecap="round" stroke-linejoin="round" id="path841"/>
    <path d="M673.505,831.844 C695.997,845.719 688.452,878.399 679.739,899.614 C669.548,924.438 647.091,953.298 622.147,973.998 C588.62,1001.838 544.946,997.398 526.645,980.708 C515.028,970.108 506.061,946.958 513.145,931.208 C521.626,912.336 559.95,898.918 569.684,888.332 C590.753,865.401 630.524,815.492 666.606,828.551 C669.169,829.481 671.46,830.586 673.505,831.844" fill="#BE7F40" id="path843"/>
    <path d="M562.944,919.818 C566.716,924.758 571.969,931.248 568.921,936.968 C559.735,954.198 543.52,925.408 530.919,921.808 C534.374,910.45 550.719,903.801 562.944,919.818" fill="#E0A458" id="path845"/>
    <path d="M670.567,818.655 C683.014,833.397 685.348,871.473 684.544,885.2 C682.147,925.998 647.094,953.298 622.147,973.998 C588.62,1001.838 544.446,995.498 526.145,978.798 C500.624,955.518 497.344,918.798 569.684,888.334 C593.954,878.11 637.587,805.153 663.122,813.332 C665.934,814.231 668.403,816.09 670.567,818.655 z" fill-opacity="0" stroke="#1A1919" stroke-width="12.756" stroke-linecap="round" stroke-linejoin="round" id="path847"/>
    <path d="M777.798,545.918 C784.676,572.467 824.876,574.012 828.145,608.2 C831.098,639.051 845.973,615.616 850.145,646.201 C856.145,690.203 843.821,830.903 824.145,870.203 C820.053,872.164 800.005,876.996 786.153,878.438 C783.55,878.711 776.835,856.047 774.145,856.201 C768.758,856.518 767.319,879.463 762.075,879.145 C747.802,878.274 722.298,875.104 718.145,866.2 C717.186,847.532 726.145,766.201 701.126,753.2 C674.132,756.2 683.143,836.2 686.143,872.2 C671.366,879.442 650.237,881.067 632.143,880.201 C624.106,855.141 616.159,862.389 614.143,862.201 C610.696,861.879 609.245,878.063 605.952,877.492 C601.094,876.651 584.454,877.547 580.147,876.203 C559.147,843.203 534.145,702.203 544.145,646.201 C552.839,597.532 578.354,573.207 585.643,547.696 C578.401,573.041 763.372,579.487 777.798,545.918" fill="#467298" id="path849"/>
    <path d="M777.798,545.918 C784.676,572.467 824.876,574.012 828.145,608.2 C831.098,639.051 845.973,615.616 850.145,646.201 C856.145,690.203 843.821,830.903 824.145,870.203 C820.053,872.164 800.005,876.996 786.153,878.438 C783.55,878.711 776.835,856.047 774.145,856.201 C768.758,856.518 767.319,879.463 762.075,879.145 C747.802,878.274 722.298,875.104 718.145,866.2 C717.186,847.532 726.145,766.201 701.126,753.2 C674.132,756.2 683.143,836.2 686.143,872.2 C671.366,879.442 650.237,881.067 632.143,880.201 C624.106,855.141 616.159,862.389 614.143,862.201 C610.696,861.879 609.245,878.063 605.952,877.492 C601.094,876.651 584.454,877.547 580.147,876.203 C559.147,843.203 534.145,702.203 544.145,646.201 C552.839,597.532 578.354,573.207 585.643,547.696 C578.401,573.041 763.372,579.487 777.798,545.918 z" fill-opacity="0" stroke="#1A1919" stroke-width="12.756" stroke-linecap="round" stroke-linejoin="round" id="path851"/>
    <path d="M603.983,376.336 C625.325,326.039 658.065,392.502 701.141,381.27 C738.446,371.543 756.134,328.237 780.919,373.998 C800.401,409.963 784.651,446.946 788.661,485.91 C793.454,532.469 866.284,583.586 815.143,619.7 C780.145,662.2 648.145,670.201 600.145,642.203 C565.733,641.016 587.942,639.137 582.643,601.7 C577.68,566.641 597.983,496.274 594.884,459.723 C592.743,434.43 593.178,401.836 603.983,376.336" fill="#636463" id="path853"/>
    <path d="M603.983,376.336 C625.325,326.039 658.065,392.502 701.141,381.27 C738.446,371.543 756.134,328.237 780.919,373.998 C800.401,409.963 784.651,446.946 788.661,485.91 C793.454,532.469 866.284,583.586 815.143,619.7 C780.145,662.2 648.145,670.201 600.145,642.203 C565.733,641.016 587.942,639.137 582.643,601.7 C577.68,566.641 597.983,496.274 594.884,459.723 C592.743,434.43 593.178,401.836 603.983,376.336 z" fill-opacity="0" stroke="#1A1919" stroke-width="12.756" stroke-linecap="round" stroke-linejoin="round" id="path855"/>
    <path d="M604.147,298.201 C616.387,295.418 636.313,316.332 648.653,323.198 C639.01,339.264 596.214,400.957 614.143,458.203 C629.688,507.826 705.702,554.129 706.145,564.203 C707.612,597.461 672.145,632.2 640.147,648.203 C609.456,663.547 558.145,694.201 522.145,678.203 C519.641,635.209 529.823,619.989 532.145,588.203 C533.774,562.965 530.766,544.723 518.145,514.201 C507.508,488.485 475.632,456.953 470.145,430.201 C463.471,397.664 481.157,379.555 498.145,344.203 C512.456,314.42 574.786,304.875 604.147,298.201" fill="#8D5D50" id="path857"/>
    <path d="M604.147,298.201 C616.387,295.418 636.313,316.332 648.653,323.198 C639.01,339.264 596.214,400.957 614.143,458.203 C629.688,507.826 705.702,554.129 706.145,564.203 C707.612,597.461 672.145,632.2 640.147,648.203 C609.456,663.547 558.145,694.201 522.145,678.203 C519.641,635.209 529.823,619.989 532.145,588.203 C533.774,562.965 530.766,544.723 518.145,514.201 C507.508,488.485 475.632,456.953 470.145,430.201 C463.471,397.664 481.157,379.555 498.145,344.203 C512.456,314.42 574.786,304.875 604.147,298.201 z" fill-opacity="0" stroke="#1A1919" stroke-width="12.756" stroke-linecap="round" stroke-linejoin="round" id="path859"/>
    <path d="M648.149,310.201 C628.147,300.199 618.149,297.199 600.149,300.199 C580.147,310.201 556.145,362.203 556.145,394.201 C572.143,404.203 576.145,410.203 590.143,416.203 C584.143,444.2 580.147,454.201 582.149,466.201 C598.147,498.2 644.143,528.203 688.147,538.201 C650.149,494.203 619.872,456.129 624.149,426.199 C628.481,395.883 625.649,367.201 648.149,310.201" fill="#8D5D50" id="path861"/>
    <path d="M648.149,310.201 C628.147,300.199 618.149,297.199 600.149,300.199 C580.147,310.201 556.145,362.203 556.145,394.201 C572.143,404.203 576.145,410.203 590.143,416.203 C584.143,444.2 580.147,454.201 582.149,466.201 C598.147,498.2 644.143,528.203 688.147,538.201 C650.149,494.203 619.872,456.129 624.149,426.199 C628.481,395.883 625.649,367.201 648.149,310.201 z" fill-opacity="0" stroke="#1A1919" stroke-width="12.756" stroke-linecap="round" stroke-linejoin="round" id="path863"/>
    <path d="M672.145,574.201 C663.508,536.617 748.137,534.287 766.145,494.203 C773.952,476.819 787.966,449.033 790.145,426.199 C794.891,376.448 781.563,312.774 778.145,296.203 C807.315,283.008 896.602,326.959 910.148,354.199 C919.088,372.176 932.878,397.535 934.148,418.201 C935.428,439.008 902.148,462.2 890.145,478.201 C869.747,505.401 855.208,550.694 858.145,584.2 C863.145,641.203 874.37,650.481 884.145,672.203 C879.419,675.985 866.762,687.1 846.145,686.2 C841.534,685.998 842.145,670.201 834.145,660.203 C832.145,668.2 825.374,684.645 822.145,684.203 C814.723,683.186 809.77,664.295 802.145,660.203 C794.145,666.203 783.993,666.651 780.145,664.201 C757.145,658.201 680.173,609.141 672.145,574.201" fill="#8D5D50" id="path865"/>
    <path d="M672.145,574.201 C663.508,536.617 748.137,534.287 766.145,494.203 C773.952,476.819 787.966,449.033 790.145,426.199 C794.891,376.448 781.563,312.774 778.145,296.203 C807.315,283.008 896.602,326.959 910.148,354.199 C919.088,372.176 932.878,397.535 934.148,418.201 C935.428,439.008 902.148,462.2 890.145,478.201 C869.747,505.401 855.208,550.694 858.145,584.2 C863.145,641.203 874.37,650.481 884.145,672.203 C879.419,675.985 866.762,687.1 846.145,686.2 C841.534,685.998 842.145,670.201 834.145,660.203 C832.145,668.2 825.374,684.645 822.145,684.203 C814.723,683.186 809.77,664.295 802.145,660.203 C794.145,666.203 783.993,666.651 780.145,664.201 C757.145,658.201 680.173,609.141 672.145,574.201 z" fill-opacity="0" stroke="#1A1919" stroke-width="12.756" stroke-linecap="round" stroke-linejoin="round" id="path867"/>
    <path d="M756.145,304.201 C776.145,294.199 780.145,293.203 798.145,296.203 C824.145,314.203 846.141,360.199 844.145,384.199 C836.143,394.201 828.141,400.201 808.145,416.203 C822.145,446.203 821.278,443.303 826.145,456.2 C810.145,488.2 740.143,536.701 684.145,548.701 C732.145,502.7 784.423,450.129 780.145,420.199 C775.813,389.883 778.645,361.201 756.145,304.201" fill="#8D5D50" id="path869"/>
    <path d="M756.145,304.201 C776.145,294.199 780.145,293.203 798.145,296.203 C824.145,314.203 846.141,360.199 844.145,384.199 C836.143,394.201 828.141,400.201 808.145,416.203 C822.145,446.203 821.278,443.303 826.145,456.2 C810.145,488.2 740.143,536.701 684.145,548.701 C732.145,502.7 784.423,450.129 780.145,420.199 C775.813,389.883 778.645,361.201 756.145,304.201 z" fill-opacity="0" stroke="#1A1919" stroke-width="12.756" stroke-linecap="round" stroke-linejoin="round" id="path871"/>
    <path d="M554.327,303.317 C564.532,326.983 601.844,337.436 625.54,319.682 C631.932,314.891 617.255,289.512 615.538,282.742 C611.999,268.782 580.341,215.742 554.327,238.949 C539.532,250.766 544.53,280.588 554.327,303.317" fill="#B9DCC4" id="path873"/>
    <path d="M554.327,303.317 C564.532,326.983 601.844,337.436 625.54,319.682 C631.932,314.891 617.255,289.512 615.538,282.742 C611.999,268.782 580.341,215.742 554.327,238.949 C539.532,250.766 544.53,280.588 554.327,303.317 z" fill-opacity="0" stroke="#1A1919" stroke-width="12.756" stroke-linecap="round" stroke-linejoin="round" id="path875"/>
    <path d="M826.645,320.701 C814.44,336.02 788.741,337.201 765.052,319.449 C758.653,314.66 773.337,289.278 775.053,282.51 C778.592,268.547 801.145,229.201 828.145,233.701 C859.645,238.201 843.989,298.928 826.645,320.701" fill="#B9DCC4" id="path877"/>
    <path d="M826.645,320.701 C814.44,336.02 788.741,337.201 765.052,319.449 C758.653,314.66 773.337,289.278 775.053,282.51 C778.592,268.547 801.145,229.201 828.145,233.701 C859.645,238.201 843.989,298.928 826.645,320.701 z" fill-opacity="0" stroke="#1A1919" stroke-width="12.756" stroke-linecap="round" stroke-linejoin="round" id="path879"/>
    <path d="M750.145,437.203 C741.145,478.201 655.141,483.932 643.147,435.199 C618.151,422.895 590.143,408.199 590.143,382.201 C588.104,372.264 593.149,349.735 591.145,325.201 C583.147,316.201 578.471,306.215 576.145,294.199 C572.694,276.367 581.544,261.969 580.856,245.092 C578.694,192.311 566.907,106.889 573.145,95.701 C591.516,62.756 651.813,64.879 703.645,64.201 C741.163,63.711 793.077,64.69 810.145,85.201 C822.022,99.471 811.552,192.03 813.473,250.774 C813.86,262.6 822.204,274.612 822.145,286.201 C822.079,299.59 821.145,308.203 811.145,319.201 C808.063,339.352 812.364,371.039 812.145,376.201 C811.145,406.201 782.145,417.199 750.145,437.203" fill="#B9DCC4" id="path881"/>
    <path d="M750.145,437.203 C741.145,478.201 655.141,483.932 643.147,435.199 C618.151,422.895 590.143,408.199 590.143,382.201 C588.104,372.264 593.149,349.735 591.145,325.201 C583.147,316.201 578.471,306.215 576.145,294.199 C572.694,276.367 581.544,261.969 580.856,245.092 C578.694,192.311 566.907,106.889 573.145,95.701 C591.516,62.756 651.813,64.879 703.645,64.201 C741.163,63.711 793.077,64.69 810.145,85.201 C822.022,99.471 811.552,192.03 813.473,250.774 C813.86,262.6 822.204,274.612 822.145,286.201 C822.079,299.59 821.145,308.203 811.145,319.201 C808.063,339.352 812.364,371.039 812.145,376.201 C811.145,406.201 782.145,417.199 750.145,437.203 z" fill-opacity="0" stroke="#1A1919" stroke-width="12.756" stroke-linecap="round" stroke-linejoin="round" id="path883"/>
    <path d="M749.145,382.201 C732.091,348.299 668.993,343.969 650.143,385.201 C677.518,374.285 719.528,373.957 749.145,382.201" fill="#E77A6B" id="path885"/>
    <path d="M749.145,382.201 C732.091,348.299 668.993,343.969 650.143,385.201 C677.518,374.285 719.528,373.957 749.145,382.201 z" fill-opacity="0" stroke="#1A1919" stroke-width="12.756" stroke-linecap="round" stroke-linejoin="round" id="path887"/>
    <path d="M596.143,296.203 C602.143,311.701 613.54,317.332 619.147,319.201 C631.147,323.203 642.819,319.297 651.145,314.203 C659.858,308.867 667.454,297.545 672.145,292.201 C681.233,281.848 681.145,270.699 696.145,269.701 C706.895,268.987 701.132,265.102 705.145,268.201 C713.739,274.84 722.684,290.385 726.145,296.701 C730.997,305.555 748.487,314.877 759.145,316.201 C764.286,316.84 777.21,317.461 784.645,311.701 C792.62,305.524 796.04,300.071 799.145,289.201 C802.581,277.178 800.028,264.721 793.145,256.201 C774.7,247.074 743.825,238.395 724.145,239.203 C703.544,240.047 693.725,240.838 673.147,242.203 C655.926,243.346 612.667,245.942 601.147,259.201 C593.753,267.715 589.346,278.643 596.143,296.203" fill="#819A8B" id="path889"/>
    <path d="M695.143,265.201 C691.147,276.199 686.145,280.703 676.147,287.203 C676.147,309.651 677.143,326.282 677.143,333.199 C692.448,335.092 701.964,331.201 711.145,331.201" fill="#B9DCC4" id="path891"/>
    <path d="M695.143,265.201 C691.147,276.199 686.145,280.703 676.147,287.203 C676.147,309.651 677.143,326.282 677.143,333.199 C692.448,335.092 701.964,331.201 711.145,331.201" fill-opacity="0" stroke="#1A1919" stroke-width="12.756" stroke-linecap="round" stroke-linejoin="round" id="path893"/>
    <path d="M610.145,262.188 C607.147,285.199 621.298,301.196 632.143,299.203 C648.643,301.055 671.645,269.813 679.145,245.707 C665.645,242.924 618.145,251.209 610.145,262.188" fill="#FFFFFE" id="path895"/>
    <path d="M610.145,262.188 C607.147,285.199 621.298,301.196 632.143,299.203 C648.643,301.055 671.645,269.813 679.145,245.707 C665.645,242.924 618.145,251.209 610.145,262.188 z" fill-opacity="0" stroke="#1A1919" stroke-width="12.756" stroke-linecap="round" stroke-linejoin="round" id="path897"/>
    <path d="M629.553,251.52 C626.645,283.207 661.147,275.203 650.143,249.199 C643.001,248.614 638.923,250.506 629.553,251.52" fill="#1A1919" id="path899"/>
    <path d="M782.645,262.688 C785.145,285.199 769.993,299.198 759.145,297.199 C742.645,299.057 724.145,270.311 716.645,246.207 C730.145,243.428 778.145,247.856 782.645,262.688" fill="#FFFFFE" id="path901"/>
    <path d="M782.645,262.688 C785.145,285.199 769.993,299.198 759.145,297.199 C742.645,299.057 724.145,270.311 716.645,246.207 C730.145,243.428 778.145,247.856 782.645,262.688 z" fill-opacity="0" stroke="#1A1919" stroke-width="12.756" stroke-linecap="round" stroke-linejoin="round" id="path903"/>
    <path d="M763.239,252.024 C770.645,279.207 739.145,273.346 742.145,250.201 C749.286,249.616 753.864,251.01 763.239,252.024" fill="#1A1919" id="path905"/>
    <path d="M790.645,257.707 C777.145,250.207 735.919,243.891 696.145,244.207 C651.52,244.563 609.772,255.328 603.298,261.832 M622.645,88.201 L662.143,240.199 M620.143,154.201 L655.645,146.701" fill-opacity="0" stroke="#1A1919" stroke-width="12.756" stroke-linecap="round" stroke-linejoin="round" id="path907"/>
    <path d="M829.645,92.701 C828.598,118.26 823.645,206.701 813.145,230.701 C811.766,213.885 820.36,86.041 795.239,86.987 C787.508,88.211 779.542,98.348 766.981,109.707 C768.552,96.928 760.505,80.067 751.276,77.047 C742.055,74.032 726.151,88.408 719.87,102.606 C713.591,94.797 704.567,76.694 696.321,75.629 C688.077,74.563 680.618,90.537 674.341,102.606 C669.104,97.873 659.096,77.285 649.218,75.629 C639.341,73.973 629.589,84.149 624.094,102.606 C611.532,93.141 601.136,84.149 594.258,84.149 C568.616,89.354 583.176,196.254 579.145,241.201 C571.493,216.405 560.237,139.998 558.145,106.867 C556.758,84.852 567.702,64.78 583.266,61.428 C616.243,54.33 653.952,53.692 694.645,53.701 C735.778,53.713 779.413,52.362 807.145,55.201 C830.528,57.594 830.692,67.143 829.645,92.701" fill="#746136" id="path909"/>
    <path d="M829.645,92.701 C828.598,118.26 823.645,206.701 813.145,230.701 C811.766,213.885 820.36,86.041 795.239,86.987 C787.508,88.211 779.542,98.348 766.981,109.707 C768.552,96.928 760.505,80.067 751.276,77.047 C742.055,74.032 726.151,88.408 719.87,102.606 C713.591,94.797 704.567,76.694 696.321,75.629 C688.077,74.563 680.618,90.537 674.341,102.606 C669.104,97.873 659.096,77.285 649.218,75.629 C639.341,73.973 629.589,84.149 624.094,102.606 C611.532,93.141 601.136,84.149 594.258,84.149 C568.616,89.354 583.176,196.254 579.145,241.201 C571.493,216.405 560.237,139.998 558.145,106.867 C556.758,84.852 567.702,64.78 583.266,61.428 C616.243,54.33 653.952,53.692 694.645,53.701 C735.778,53.713 779.413,52.362 807.145,55.201 C830.528,57.594 830.692,67.143 829.645,92.701 z M664.516,411.698 C675.52,398.727 720.403,397.008 731.852,412.645" fill-opacity="0" stroke="#1A1919" stroke-width="12.756" stroke-linecap="round" stroke-linejoin="round" id="path911"/>
    <path d="M899.969,415.371 C918.018,423 934.418,439.6 952.938,445.366 C964.498,448.963 973.298,454.957 985.868,454.061 C1013.088,452.121 1011.888,449.414 1019.648,424.201 C1027.648,398.203 998.008,358.547 977.648,350.203 C948.208,338.116 911.418,321.276 883.645,338.701 C868.54,348.18 868.88,372.264 861.145,388.201 C856.313,398.153 858.561,392.022 863.419,402.85 C868.645,414.492 888.409,410.49 899.969,415.371" fill="#8D5D50" id="path913"/>
    <path d="M899.969,415.371 C918.018,423 934.418,439.6 952.938,445.366 C964.498,448.963 973.298,454.957 985.868,454.061 C1013.088,452.121 1011.888,449.414 1019.648,424.201 C1027.648,398.203 998.008,358.547 977.648,350.203 C948.208,338.116 911.418,321.276 883.645,338.701 C868.54,348.18 868.88,372.264 861.145,388.201 C856.313,398.153 858.561,392.022 863.419,402.85 C868.645,414.492 888.409,410.49 899.969,415.371 z" fill-opacity="0" stroke="#1A1919" stroke-width="12.756" stroke-linecap="round" stroke-linejoin="round" id="path915"/>
    <path d="M891.145,356.701 C872.237,361.055 859.176,370.073 849.55,385.201 C835.993,406.524 829.657,430.576 833.946,453.158 C838.243,475.735 855.35,489.967 859.208,489.592 C876.327,496.893 898.676,479.983 876.303,450.774 C877.376,437.502 875.636,440.59 878.8,427.746 C886.622,430.846 893.114,432.012 899.907,431.573 C908.258,454.887 898.239,482.414 911.528,493.489 C947.768,509.836 935.858,459.885 937.068,426.569 C936.058,443.244 935.348,491.586 952.648,496.201 C975.148,502.201 974.188,462.358 972.158,433.043 C975.648,468.2 966.898,489.416 989.648,496.201 C1012.408,502.989 1007.648,466.201 1011.058,437.742 C1012.648,465.973 1008.138,488.074 1024.948,491.116 C1042.268,494.256 1055.768,428.555 1036.818,406.635 C1010.918,376.664 940.688,345.285 891.145,356.701" fill="#B9DCC4" id="path917"/>
    <path d="M891.145,356.701 C872.237,361.055 859.176,370.073 849.55,385.201 C835.993,406.524 829.657,430.576 833.946,453.158 C838.243,475.735 855.35,489.967 859.208,489.592 C876.327,496.893 898.676,479.983 876.303,450.774 C877.376,437.502 875.636,440.59 878.8,427.746 C886.622,430.846 893.114,432.012 899.907,431.573 C908.258,454.887 898.239,482.414 911.528,493.489 C947.768,509.836 935.858,459.885 937.068,426.569 C936.058,443.244 935.348,491.586 952.648,496.201 C975.148,502.201 974.188,462.358 972.158,433.043 C975.648,468.2 966.898,489.416 989.648,496.201 C1012.408,502.989 1007.648,466.201 1011.058,437.742 C1012.648,465.973 1008.138,488.074 1024.948,491.116 C1042.268,494.256 1055.768,428.555 1036.818,406.635 C1010.918,376.664 940.688,345.285 891.145,356.701 z" fill-opacity="0" stroke="#1A1919" stroke-width="12.756" stroke-linecap="round" stroke-linejoin="round" id="path919"/>
    <path d="M492.477,418.52 C474.196,425.549 457.251,441.61 438.557,446.76 C426.886,449.977 417.897,455.678 405.354,454.375 C378.223,451.547 375.448,444.076 375.645,417.703 C375.827,395.114 403.032,359.373 423.645,351.703 C453.475,340.588 481.454,324.879 508.645,343.201 C523.438,353.174 529.298,369.147 536.508,385.33 C541.008,395.438 534.628,396.539 529.419,407.203 C523.811,418.664 504.188,414.018 492.477,418.52" fill="#8D5D50" id="path921"/>
    <path d="M492.477,418.52 C474.196,425.549 457.251,441.61 438.557,446.76 C426.886,449.977 417.897,455.678 405.354,454.375 C378.223,451.547 375.448,444.076 375.645,417.703 C375.827,395.114 403.032,359.373 423.645,351.703 C453.475,340.588 481.454,324.879 508.645,343.201 C523.438,353.174 529.298,369.147 536.508,385.33 C541.008,395.438 534.628,396.539 529.419,407.203 C523.811,418.664 504.188,414.018 492.477,418.52 z" fill-opacity="0" stroke="#1A1919" stroke-width="12.756" stroke-linecap="round" stroke-linejoin="round" id="path923"/>
    <path d="M496.645,359.701 C515.854,362.444 534.735,374.578 543.852,390.012 C556.706,411.762 562.258,436.016 557.223,458.444 C552.196,480.871 534.634,494.532 530.786,494.033 C513.436,500.766 491.649,483.129 514.971,454.672 C514.339,441.369 515.973,444.516 513.231,431.578 C505.309,434.414 498.78,435.381 492.008,434.713 C482.895,457.735 492.008,485.582 478.366,496.213 C441.612,511.36 454.766,465.043 454.645,431.701 C455.114,448.406 455.042,502.752 435.145,502.201 C412.352,501.569 416.766,463.049 419.749,433.813 C413.645,465.703 424.606,495.662 401.645,501.703 C378.68,507.744 385.167,457.178 380.716,437.235 C378.2,465.405 381.985,487.635 365.089,490.131 C347.678,492.703 336.331,426.592 355.987,405.299 C382.854,376.196 445.286,352.367 496.645,359.701" fill="#B9DCC4" id="path925"/>
    <path d="M496.645,359.701 C515.854,362.444 534.735,374.578 543.852,390.012 C556.706,411.762 562.258,436.016 557.223,458.444 C552.196,480.871 534.634,494.532 530.786,494.033 C513.436,500.766 491.649,483.129 514.971,454.672 C514.339,441.369 515.973,444.516 513.231,431.578 C505.309,434.414 498.78,435.381 492.008,434.713 C482.895,457.735 492.008,485.582 478.366,496.213 C441.612,511.36 454.766,465.043 454.645,431.701 C455.114,448.406 455.042,502.752 435.145,502.201 C412.352,501.569 416.766,463.049 419.749,433.813 C413.645,465.703 424.606,495.662 401.645,501.703 C378.68,507.744 385.167,457.178 380.716,437.235 C378.2,465.405 381.985,487.635 365.089,490.131 C347.678,492.703 336.331,426.592 355.987,405.299 C382.854,376.196 445.286,352.367 496.645,359.701 z" fill-opacity="0" stroke="#1A1919" stroke-width="12.756" stroke-linecap="round" stroke-linejoin="round" id="path927"/>
    <path d="M604.147,686.2 C612.145,710.2 630.145,732.203 660.145,740.2" fill="#467298" id="path929"/>
    <path d="M604.147,686.2 C612.145,710.2 630.145,732.203 660.145,740.2" fill-opacity="0" stroke="#1A1919" stroke-width="12.756" stroke-linecap="round" stroke-linejoin="round" id="path931"/>
    <path d="M717.145,742.201 C734.258,734.848 771.098,706.809 780.145,690.203" fill="#467298" id="path933"/>
    <path d="M717.145,742.201 C734.258,734.848 771.098,706.809 780.145,690.203" fill-opacity="0" stroke="#1A1919" stroke-width="12.756" stroke-linecap="round" stroke-linejoin="round" id="path935"/>
    <path d="M708.145,587.701 C687.977,588.098 691.645,560.701 705.145,559.201 C730.645,560.701 728.094,587.309 708.145,587.701" fill="#696A69" id="path937"/>
    <path d="M708.145,587.701 C687.977,588.098 691.645,560.701 705.145,559.201 C730.645,560.701 728.094,587.309 708.145,587.701 z" fill-opacity="0" stroke="#1A1919" stroke-width="12.756" stroke-linecap="round" stroke-linejoin="round" id="path939"/>
    <path d="M532.645,599.701 C552.145,605.701 618.151,598.574 634.645,581.701" fill="#8D5D50" id="path941"/>
    <path d="M532.645,599.701 C552.145,605.701 618.151,598.574 634.645,581.701" fill-opacity="0" stroke="#1A1919" stroke-width="12.756" stroke-linecap="round" stroke-linejoin="round" id="path943"/>
    <path d="M523.645,640.201 C553.751,642.676 607.645,628.201 631.645,607.201" fill="#8D5D50" id="path945"/>
    <path d="M523.645,640.201 C553.751,642.676 607.645,628.201 631.645,607.201" fill-opacity="0" stroke="#1A1919" stroke-width="12.756" stroke-linecap="round" stroke-linejoin="round" id="path947"/>
    <path d="M774.145,599.701 C797.426,614.619 828.423,629.164 859.645,628.201" fill="#8D5D50" id="path949"/>
    <path d="M774.145,599.701 C797.426,614.619 828.423,629.164 859.645,628.201" fill-opacity="0" stroke="#1A1919" stroke-width="12.756" stroke-linecap="round" stroke-linejoin="round" id="path951"/>
    <path d="M763.645,572.701 C781.645,578.701 832.645,593.701 852.145,584.701" fill="#8D5D50" id="path953"/>
    <path d="M763.645,572.701 C781.645,578.701 832.645,593.701 852.145,584.701" fill-opacity="0" stroke="#1A1919" stroke-width="12.756" stroke-linecap="round" stroke-linejoin="round" id="path955"/>
    <path d="M519.145,515.701 C526.802,533.285 568.645,559.201 591.145,557.701" fill="#8D5D50" id="path957"/>
    <path d="M519.145,515.701 C526.802,533.285 568.645,559.201 591.145,557.701" fill-opacity="0" stroke="#1A1919" stroke-width="12.756" stroke-linecap="round" stroke-linejoin="round" id="path959"/>
    <path d="M747.145,553.201 C767.93,553.703 802.969,538.987 820.645,529.201" fill="#8D5D50" id="path961"/>
    <path d="M747.145,553.201 C767.93,553.703 802.969,538.987 820.645,529.201 M596.143,744.203 C610.071,752.877 624.165,755.127 640.147,758.2 M744.145,758.2 C774.145,764.2 782.411,766.201 804.145,766.201 M636.145,209.701 L672.145,201.199 M625.645,182.701 L663.145,175.201 M711.145,164.701 L810.145,163.201 M732.145,149.701 L730.645,179.701 M756.145,151.201 L756.145,179.701 M784.645,149.701 L783.145,175.201" fill-opacity="0" stroke="#1A1919" stroke-width="12.756" stroke-linecap="round" stroke-linejoin="round" id="path963"/>
    <path d="M582.145,313.201 C592.645,325.201 601.721,336.965 606.145,346.201" fill="#8D5D50" id="path965"/>
    <path d="M582.145,313.201 C592.645,325.201 601.721,336.965 606.145,346.201" fill-opacity="0" stroke="#1A1919" stroke-width="12.756" stroke-linecap="round" stroke-linejoin="round" id="path967"/>
    <path d="M818.145,310.201 C805.645,323.701 796.649,335.801 791.145,344.203" fill="#8D5D50" id="path969"/>
    <path d="M818.145,310.201 C805.645,323.701 796.649,335.801 791.145,344.203 M616.147,129.201 L649.147,123.201" fill-opacity="0" stroke="#1A1919" stroke-width="12.756" stroke-linecap="round" stroke-linejoin="round" id="path971"/>
    <path d="M1410.708,-0 L1252.868,50.468 L1316.928,93.088 L1163.468,139.976 L1224.548,172.246 L1102.128,230.294 L1152.268,251.414 L1037.408,314.242 L1235.248,265.785 L1171.778,237.295 L1302.948,192.187 L1236.698,151.357 L1383.588,109.839 L1328.488,58.069 L1410.708,-0" fill="#FDDB76" id="path973"/>
    <path d="M-0,33.052 L149.651,90.014 L101.265,123.879 L225.217,167.744 L168.653,200.554 L282.234,245.289 L238.614,264.845 L342.113,323.189 L173.063,272.53 L222.381,246.61 L100.705,211.845 L154.994,169.936 L32.44,137.99 L82.347,99.919 L-0,33.052" fill="#FDDB76" id="path975"/>
    <path d="M18.001,1009.198 L175.84,958.728 L111.781,916.108 L265.24,869.215 L204.16,836.945 L326.58,778.897 L276.44,757.777 L391.3,694.948 L193.462,743.406 L256.93,771.896 L125.761,817.004 L192.01,857.834 L45.122,899.352 L100.22,951.128 L18.001,1009.198" fill="#FDDB76" id="path977"/>
    <path d="M1428.708,976.148 L1279.058,919.178 L1327.448,885.313 L1203.498,841.448 L1260.058,808.637 L1146.478,763.903 L1190.098,744.346 L1086.598,686.002 L1255.648,736.66 L1206.328,762.58 L1328.008,797.346 L1273.718,839.255 L1396.268,871.201 L1346.368,909.272 L1428.708,976.148" fill="#FDDB76" id="path979"/>
  </g>
</svg>
