<?xml version="1.0" encoding="UTF-8"?>
<svg id="Layer_2" data-name="Layer 2" xmlns="http://www.w3.org/2000/svg" viewBox="0 0 400 100">
  <defs>
    <style>
      .cls-1 {
        fill: #e4355c;
      }

      .cls-1, .cls-2, .cls-3, .cls-4, .cls-5, .cls-6 {
        stroke-width: 0px;
      }

      .cls-2 {
        fill: #254254;
      }

      .cls-3 {
        fill: #3b5972;
      }

      .cls-4 {
        fill: #29516a;
      }

      .cls-5 {
        fill: #466480;
      }

      .cls-6 {
        fill: #f2736d;
      }
    </style>
  </defs>
  <g id="Layer">
    <g>
      <g>
        <polygon class="cls-2" points="225.53 49.58 225.37 49.7 192.65 16.66 192.81 16.55 225.53 49.58"/>
        <polygon class="cls-2" points="220.82 52.67 220.65 52.77 192.4 16.79 192.57 16.69 220.82 52.67"/>
        <ellipse class="cls-2" cx="250.99" cy="31.52" rx="2.89" ry="2.49"/>
        <g>
          <rect class="cls-5" x="220.24" y="30.63" width="4.33" height="11.04"/>
          <rect class="cls-2" x="227.67" y="19.05" width=".41" height="18.29"/>
          <rect class="cls-2" x="233.86" y="19.05" width=".41" height="18.29"/>
          <rect class="cls-5" x="225.72" y="30.63" width="5.03" height="11.04"/>
          <rect class="cls-5" x="232.12" y="30.63" width="5.03" height="11.04"/>
          <polygon class="cls-2" points="240.88 58.1 219.51 58.1 219.51 39.35 239.07 39.35 240.88 58.1"/>
          <polygon class="cls-2" points="213.72 62.48 192.34 62.48 192.34 43.72 211.9 43.72 213.72 62.48"/>
          <rect class="cls-2" x="148.41" y="42.39" width="20.64" height="14.25"/>
          <rect class="cls-2" x="142.43" y="32.77" width="1.44" height="14.25"/>
          <rect class="cls-2" x="149.16" y="33.3" width="5.63" height="14.25"/>
          <rect class="cls-2" x="151.02" y="27.78" width="1.91" height="12.82"/>
          <polygon class="cls-5" points="129.93 53.43 157.91 53.43 157.91 37.75 135.41 37.75 129.93 53.43"/>
          <polygon class="cls-3" points="263.91 61.68 242.53 61.68 242.53 42.92 262.09 42.92 263.91 61.68"/>
          <polygon class="cls-2" points="273.12 57.17 251.75 57.17 251.75 38.41 271.31 38.41 273.12 57.17"/>
          <polygon class="cls-2" points="165.9 62.48 144.53 62.48 144.53 43.72 164.09 43.72 165.9 62.48"/>
          <rect class="cls-3" x="129.31" y="49.66" width="46.73" height="24.39"/>
          <rect class="cls-3" x="201.04" y="49.66" width="73.9" height="24.39"/>
          <polygon class="cls-5" points="278.56 56.85 249.94 66.54 249.94 43.72 275.66 43.72 278.56 56.85"/>
          <polygon class="cls-5" points="252.84 54.98 169.52 54.98 169.52 59.67 132.94 59.67 132.94 76.86 216.25 76.86 216.25 72.17 252.84 72.17 252.84 54.98"/>
          <rect class="cls-2" x="202.12" y="56.85" width="76.43" height="24.39"/>
          <polygon class="cls-2" points="181.84 77.8 181.48 64.36 165.69 64.36 162.28 61.54 78.96 61.54 78.96 74.99 98.16 74.99 98.16 77.8 181.84 77.8"/>
          <rect class="cls-2" x="136.37" y="41.02" width="6.19" height="1.42"/>
          <rect class="cls-2" x="143.39" y="41.02" width="6.19" height="1.42"/>
          <rect class="cls-2" x="150.41" y="41.02" width="6.19" height="1.42"/>
          <rect class="cls-2" x="136.51" y="38.48" width="6.19" height=".56"/>
          <rect class="cls-2" x="143.53" y="38.48" width="6.19" height=".56"/>
          <rect class="cls-2" x="150.54" y="38.48" width="6.19" height=".56"/>
          <g>
            <rect class="cls-3" x="150.28" y="36.51" width="3.17" height="7.23"/>
            <rect class="cls-3" x="154.29" y="36.51" width="3.68" height="7.23"/>
            <rect class="cls-3" x="158.96" y="36.51" width="3.68" height="7.23"/>
          </g>
          <path class="cls-2" d="m147.68,60.2c0,.49-.23.89-.51.89h-2.45c-.28,0-.51-.4-.51-.89h0c0-.49.23-.89.51-.89h2.45c.28,0,.51.4.51.89h0Z"/>
          <path class="cls-2" d="m151.36,60.2c0,.49-.23.89-.51.89h-2.45c-.28,0-.51-.4-.51-.89h0c0-.49.23-.89.51-.89h2.45c.28,0,.51.4.51.89h0Z"/>
          <path class="cls-2" d="m155.03,60.2c0,.49-.23.89-.51.89h-2.45c-.28,0-.51-.4-.51-.89h0c0-.49.23-.89.51-.89h2.45c.28,0,.51.4.51.89h0Z"/>
          <path class="cls-2" d="m158.7,60.2c0,.49-.23.89-.51.89h-2.45c-.28,0-.51-.4-.51-.89h0c0-.49.23-.89.51-.89h2.45c.28,0,.51.4.51.89h0Z"/>
          <path class="cls-2" d="m162.38,60.2c0,.49-.23.89-.51.89h-2.45c-.28,0-.51-.4-.51-.89h0c0-.49.23-.89.51-.89h2.45c.28,0,.51.4.51.89h0Z"/>
          <path class="cls-2" d="m147.68,58.18c0,.49-.23.89-.51.89h-2.45c-.28,0-.51-.4-.51-.89h0c0-.49.23-.89.51-.89h2.45c.28,0,.51.4.51.89h0Z"/>
          <path class="cls-2" d="m151.36,58.18c0,.49-.23.89-.51.89h-2.45c-.28,0-.51-.4-.51-.89h0c0-.49.23-.89.51-.89h2.45c.28,0,.51.4.51.89h0Z"/>
          <path class="cls-2" d="m155.03,58.18c0,.49-.23.89-.51.89h-2.45c-.28,0-.51-.4-.51-.89h0c0-.49.23-.89.51-.89h2.45c.28,0,.51.4.51.89h0Z"/>
          <path class="cls-2" d="m158.7,58.18c0,.49-.23.89-.51.89h-2.45c-.28,0-.51-.4-.51-.89h0c0-.49.23-.89.51-.89h2.45c.28,0,.51.4.51.89h0Z"/>
          <path class="cls-2" d="m162.38,58.18c0,.49-.23.89-.51.89h-2.45c-.28,0-.51-.4-.51-.89h0c0-.49.23-.89.51-.89h2.45c.28,0,.51.4.51.89h0Z"/>
          <path class="cls-2" d="m165.32,58.76c.23,1.74,1.26,3.05,2.49,3.05h17.06c1.23,0,2.26-1.31,2.49-3.05h-22.05Z"/>
          <rect class="cls-3" x="112.71" y="62.51" width="2.06" height="3.21"/>
          <rect class="cls-3" x="116.21" y="62.51" width="2.06" height="3.21"/>
          <rect class="cls-3" x="119.72" y="62.51" width="2.06" height="3.21"/>
          <rect class="cls-3" x="123.23" y="62.51" width="2.06" height="3.21"/>
          <rect class="cls-3" x="126.74" y="62.51" width="2.06" height="3.21"/>
          <rect class="cls-3" x="130.25" y="62.51" width="2.06" height="3.21"/>
          <rect class="cls-3" x="133.76" y="62.51" width="2.06" height="3.21"/>
          <rect class="cls-3" x="137.27" y="62.51" width="2.06" height="3.21"/>
          <rect class="cls-3" x="140.78" y="62.51" width="2.06" height="3.21"/>
          <rect class="cls-3" x="144.28" y="62.51" width="2.06" height="3.21"/>
          <rect class="cls-3" x="147.79" y="62.51" width="2.06" height="3.21"/>
          <rect class="cls-3" x="151.3" y="62.51" width="2.06" height="3.21"/>
          <rect class="cls-3" x="154.81" y="62.51" width="2.06" height="3.21"/>
          <rect class="cls-3" x="158.32" y="62.51" width="2.06" height="3.21"/>
          <rect class="cls-2" x="130.04" y="50.4" width="17.96" height=".89"/>
          <rect class="cls-2" x="138.3" y="52.72" width="3.72" height="3.56"/>
          <rect class="cls-2" x="135.41" y="55.74" width="1.03" height="5.52"/>
          <rect class="cls-2" x="137.06" y="43.81" width="1.86" height="4.27"/>
          <rect class="cls-2" x="139.74" y="43.81" width="1.86" height="4.27"/>
          <rect class="cls-2" x="142.43" y="43.81" width="1.86" height="4.27"/>
          <rect class="cls-2" x="145.11" y="43.81" width="1.86" height="4.27"/>
          <rect class="cls-2" x="149.44" y="45.95" width="1.86" height="2.49"/>
          <rect class="cls-2" x="152.54" y="45.95" width="1.86" height="2.49"/>
          <rect class="cls-2" x="155.64" y="45.95" width="1.86" height="2.49"/>
          <polygon class="cls-3" points="117.76 59.22 114.2 59.22 113.89 59.22 110.33 59.22 110.02 59.22 106.46 59.22 106.15 59.22 102.59 59.22 102.28 59.22 98.72 59.22 98.41 59.22 94.85 59.22 94.54 59.22 90.98 59.22 90.67 59.22 87.11 59.22 86.8 59.22 83.24 59.22 82.93 59.22 79.37 59.22 79.06 59.22 79.06 59.48 79.06 61.53 79.37 61.53 79.37 59.48 82.93 59.48 82.93 61.53 83.24 61.53 83.24 59.48 86.8 59.48 86.8 61.53 87.11 61.53 87.11 59.48 90.67 59.48 90.67 61.53 90.98 61.53 90.98 59.48 91.35 59.48 91.35 61.44 92.27 61.44 92.27 59.48 94.54 59.48 94.54 61.53 94.85 61.53 94.85 59.48 98.41 59.48 98.41 61.53 98.72 61.53 98.72 59.48 99.7 59.48 99.7 61.44 100.63 61.44 100.63 59.48 102.28 59.48 102.28 61.53 102.59 61.53 102.59 59.48 106.15 59.48 106.15 61.53 106.46 61.53 106.46 59.48 110.02 59.48 110.02 61.53 110.33 61.53 110.33 59.48 113.89 59.48 113.89 61.53 114.2 61.53 114.2 59.48 117.76 59.48 117.76 61.53 118.07 61.53 118.07 59.22 117.76 59.22"/>
          <rect class="cls-5" x="147.28" y="45.55" width="2" height="3.57"/>
          <rect class="cls-5" x="151.56" y="45.55" width="2" height="3.57"/>
          <rect class="cls-5" x="155.83" y="45.55" width="2" height="3.57"/>
          <rect class="cls-5" x="160.11" y="45.55" width="2" height="3.57"/>
          <rect class="cls-2" x="165.99" y="40.57" width="1.66" height="1.81"/>
          <rect class="cls-2" x="163.32" y="40.57" width="1.66" height="1.81"/>
          <rect class="cls-5" x="205.72" y="39.48" width="2.48" height="15.44"/>
          <rect class="cls-5" x="204.07" y="46.72" width="5.5" height="3.68"/>
          <rect class="cls-2" x="202.69" y="49.45" width="8.12" height="2.61"/>
          <rect class="cls-5" x="201.73" y="51.56" width="10.32" height="3.27"/>
          <rect class="cls-5" x="237.59" y="55.9" width=".53" height="10.95"/>
          <rect class="cls-5" x="241.42" y="55.9" width=".53" height="10.95"/>
          <rect class="cls-2" x="193.97" y="55.1" width=".66" height="11.52"/>
          <rect class="cls-2" x="198.14" y="55.1" width=".66" height="11.52"/>
          <rect class="cls-5" x="210.63" y="47.45" width="39.38" height=".57"/>
          <rect class="cls-5" x="212.21" y="47.44" width=".4" height="2.19"/>
          <rect class="cls-5" x="216.84" y="47.44" width=".4" height="2.19"/>
          <rect class="cls-5" x="221.46" y="47.44" width=".4" height="2.19"/>
          <rect class="cls-5" x="226.09" y="47.44" width=".4" height="2.19"/>
          <rect class="cls-5" x="230.72" y="47.44" width=".4" height="2.19"/>
          <rect class="cls-5" x="235.34" y="47.44" width=".4" height="2.19"/>
          <rect class="cls-5" x="239.97" y="47.44" width=".4" height="2.19"/>
          <rect class="cls-5" x="244.59" y="47.44" width=".4" height="2.19"/>
          <rect class="cls-5" x="201.45" y="66.2" width="76.99" height=".46"/>
        </g>
        <g>
          <rect class="cls-2" x="324.82" y="62.26" width="25.08" height=".32"/>
          <rect class="cls-3" x="328.55" y="61.62" width="5.6" height="1.5"/>
          <path class="cls-5" d="m331.22,66.34h-6.05c-1.3-.56-2.35-1.62-2.65-2.84-.45-1.81.89-3.27,2.98-3.27h3.9c2.09,0,2.61,1.47,3.06,3.27.3,1.23-.23,2.28-1.25,2.84Z"/>
        </g>
        <rect class="cls-5" x="36.34" y="65.01" width="154.38" height="17.1"/>
        <path class="cls-4" d="m328.27,63.9l-2.99,2.89H52.4c-1.65,3.38-9.56,5.94-19.08,5.94H0l1.26,8.31h378.1l20.64-19.95-71.73,2.81Z"/>
        <path class="cls-1" d="m379.26,80.61H1.08l.36,5.31c.3,0,.68,0,1.1.02l2.16,9.05h6.52l2.04-8.55c3.69.2,8.02.46,12.81.75v2.8h-5.07v1.56h69.07c14.09,1.4,16.78,2.81,16.78,2.81h227.49c7.51,0,17.24,5.63,27.89,5.63,14.49,0,15.94.32,12.32-5.31-3.62-5.63,4.71-14.07,4.71-14.07Zm-349.2,6.83c11.72.73,25.62,1.65,39.2,2.55H30.06v-2.55Z"/>
        <rect class="cls-2" x="46.9" y="61.74" width="7.43" height="3.26"/>
        <rect class="cls-2" x="48.25" y="58.71" width="4.74" height="2.01"/>
        <rect class="cls-3" x="45.91" y="61.62" width="9.63" height="1.48"/>
        <rect class="cls-5" x="2.21" y="66.75" width="4.95" height="6.06"/>
        <rect class="cls-5" x="10.54" y="66.75" width="4.95" height="6.06"/>
        <rect class="cls-2" x="2.21" y="67.35" width="4.95" height="1.21"/>
        <g>
          <rect class="cls-2" x="16.41" y="68.64" width="14.18" height=".32"/>
          <rect class="cls-3" x="21.26" y="67.99" width="5.6" height="1.5"/>
          <path class="cls-5" d="m24.18,72.72h6.05c1.3-.56,2.35-1.62,2.65-2.84.45-1.81-.89-3.27-2.98-3.27h-3.9c-2.09,0-2.61,1.47-3.06,3.27-.3,1.23.23,2.28,1.25,2.84Z"/>
        </g>
        <rect class="cls-2" x="10.54" y="67.35" width="4.95" height="1.21"/>
        <rect class="cls-2" x=".02" y="70.35" width="45.82" height="1.07"/>
        <path class="cls-5" d="m55.9,62.19h-13.97c-2.9,0,.34-2.65,6.73-2.65,5.78,0,7.49.16,9.8.16.72,0,1.79,2.49-2.56,2.49Z"/>
        <rect class="cls-2" x="242.73" y="22.61" width="1.24" height="22.44"/>
        <rect class="cls-5" x="241.08" y="26.37" width="9.49" height="2.74"/>
        <rect class="cls-2" x="241.08" y="28.75" width="9.49" height=".35"/>
        <polygon class="cls-2" points="243.35 32.31 243.35 32.67 250.57 29.1 250.57 28.75 243.35 32.31"/>
        <rect class="cls-5" x="240.87" y="32.77" width="13.62" height="1.96"/>
        <rect class="cls-2" x="240.87" y="34.36" width="13.62" height=".38"/>
        <polygon class="cls-2" points="253.25 43.81 252.43 43.81 249.95 34.55 250.77 34.55 253.25 43.81"/>
        <rect class="cls-2" x="243.35" y="38.82" width="8.26" height=".36"/>
        <polygon class="cls-2" points="252.23 39.36 243.35 34.9 243.35 34.55 252.23 39 252.23 39.36"/>
        <polygon class="cls-2" points="252.74 43.72 243.87 39.27 243.87 38.91 252.74 43.36 252.74 43.72"/>
        <polygon class="cls-2" points="252.29 38.91 243.42 43.36 243.42 43.72 252.29 39.27 252.29 38.91"/>
        <polygon class="cls-2" points="250.57 34.55 243.35 39 243.35 39.36 250.57 34.9 250.57 34.55"/>
        <polygon class="cls-2" points="257.41 42.31 257.01 41.9 273.14 30.23 273.54 30.64 257.41 42.31"/>
        <rect class="cls-3" x="260.69" y="45.95" width="7.43" height="8.37"/>
        <rect class="cls-2" x="192" y=".76" width=".74" height="54.09"/>
        <polygon class="cls-2" points="183.13 16.02 183.87 16.02 179.53 54.85 178.8 54.85 183.13 16.02"/>
        <rect class="cls-2" x="180.95" y="16.01" width="19.4" height=".6"/>
        <rect class="cls-2" x="188.93" y="9.79" width="10.73" height="2.04"/>
        <rect class="cls-2" x="182.91" y="21.34" width="9.74" height=".6"/>
        <rect class="cls-2" x="168.02" y="26.58" width="24.64" height=".6"/>
        <polygon class="cls-2" points="192.65 32.53 174.62 32.53 174.38 31.93 192.65 31.93 192.65 32.53"/>
        <rect class="cls-2" x="177.29" y="37.87" width="15.37" height=".6"/>
        <rect class="cls-2" x="180.13" y="44.22" width="12.53" height=".6"/>
        <rect class="cls-2" x="179.71" y="49.81" width="12.94" height=".6"/>
        <polygon class="cls-2" points="192.65 55.01 179.71 50.82 179.71 50.22 192.65 54.41 192.65 55.01"/>
        <polygon class="cls-2" points="192.51 49.36 180.48 45.17 180.48 44.57 192.51 48.76 192.51 49.36"/>
        <polygon class="cls-2" points="192.57 38.34 181.79 32.73 181.79 32.13 192.57 37.74 192.57 38.34"/>
        <polygon class="cls-2" points="192.41 44.47 181.08 38.86 181.08 38.26 192.41 43.87 192.41 44.47"/>
        <polygon class="cls-2" points="192.23 32.42 182.42 27.52 182.42 26.92 192.23 31.82 192.23 32.42"/>
        <polygon class="cls-2" points="192.37 27.13 183.1 22.34 183.1 21.74 192.37 26.53 192.37 27.13"/>
        <polygon class="cls-2" points="192.79 21.72 183.58 16.94 183.58 16.34 192.79 21.12 192.79 21.72"/>
        <polygon class="cls-2" points="183.11 21.7 192.32 16.92 192.32 16.32 183.11 21.1 183.11 21.7"/>
        <polygon class="cls-2" points="192.58 21.74 197.18 16.96 197.18 16.36 192.58 21.14 192.58 21.74"/>
        <polygon class="cls-2" points="182.19 26.96 192.2 22.18 192.2 21.58 182.19 26.36 182.19 26.96"/>
        <polygon class="cls-2" points="181.59 32.43 192.29 27.17 192.29 26.57 181.59 31.83 181.59 32.43"/>
        <polygon class="cls-2" points="180.95 38.04 192.44 32.78 192.44 32.18 180.95 37.44 180.95 38.04"/>
        <polygon class="cls-2" points="180.09 44.52 192.14 38.67 192.14 38.07 180.09 43.92 180.09 44.52"/>
        <polygon class="cls-2" points="179.47 50.18 192.2 44.93 192.2 44.33 179.47 49.58 179.47 50.18"/>
        <polygon class="cls-2" points="178.82 54.87 192.24 50.2 192.24 49.6 178.82 54.27 178.82 54.87"/>
        <polygon class="cls-2" points="180.27 44.64 171.88 27.41 172.01 26.82 180.4 44.05 180.27 44.64"/>
        <rect class="cls-2" x="189.96" y="1.34" width="4.82" height=".61"/>
        <rect class="cls-2" x="190.52" width="3.44" height=".81"/>
        <rect class="cls-2" x="191.27" y="5.75" width="1.93" height="1.43"/>
        <rect class="cls-2" x="190.72" y="9.19" width="1.79" height="7.01"/>
        <polygon class="cls-2" points="180.95 13.71 180.95 16.44 181.5 16.44 181.5 14.06 199.53 14.06 199.53 16.44 200.08 16.44 200.08 13.71 180.95 13.71"/>
        <rect class="cls-2" x="181.23" y="14.89" width="18.44" height=".24"/>
        <rect class="cls-2" x="195.81" y="13.83" width=".28" height="2.73"/>
        <rect class="cls-2" x="186.18" y="13.83" width=".28" height="2.73"/>
        <polygon class="cls-2" points="190.86 16.08 190.59 16.08 189.34 11.69 189.62 11.69 190.86 16.08"/>
        <polygon class="cls-2" points="191.89 15.78 191.62 15.78 197.67 11.16 197.94 11.16 191.89 15.78"/>
        <path class="cls-2" d="m178.85,18.69h-8.57c-1.82,0-3.3,1.28-3.3,2.85s1.48,2.85,3.3,2.85h8.57c1.82,0,3.3-1.28,3.3-2.85s-1.48-2.85-3.3-2.85Zm0,5.49h-8.57c-1.68,0-3.05-1.18-3.05-2.64s1.37-2.64,3.05-2.64h8.57c1.68,0,3.05,1.18,3.05,2.64s-1.37,2.64-3.05,2.64Z"/>
        <rect class="cls-2" x="167.3" y="20.56" width="14.55" height=".27"/>
        <rect class="cls-2" x="167.3" y="21.99" width="14.55" height=".27"/>
        <rect class="cls-2" x="168.02" y="23.41" width="13.11" height=".27"/>
        <rect class="cls-2" x="168.02" y="19.5" width="13.11" height=".27"/>
        <rect class="cls-2" x="169.46" y="18.87" width=".1" height="5.34"/>
        <rect class="cls-2" x="170.96" y="18.87" width=".1" height="5.34"/>
        <rect class="cls-2" x="172.46" y="18.87" width=".1" height="5.34"/>
        <rect class="cls-2" x="173.95" y="18.87" width=".1" height="5.34"/>
        <rect class="cls-2" x="175.45" y="18.87" width=".1" height="5.34"/>
        <rect class="cls-2" x="176.95" y="18.87" width=".1" height="5.34"/>
        <rect class="cls-2" x="178.44" y="18.87" width=".1" height="5.34"/>
        <rect class="cls-2" x="179.94" y="18.87" width=".1" height="5.34"/>
        <rect class="cls-2" x="181.43" y="20.21" width=".1" height="2.67"/>
        <rect class="cls-2" x="168.07" y="19.59" width=".1" height="3.92"/>
        <rect class="cls-2" x="174.31" y="20.16" width=".83" height="4.1"/>
        <rect class="cls-2" x="172.35" y="22.3" width="4.75" height=".71"/>
        <rect class="cls-2" x="172.87" y="25.37" width="3.82" height="1.34"/>
        <rect class="cls-2" x="173.28" y="22.52" width=".52" height="3.3"/>
        <rect class="cls-2" x="175.76" y="22.52" width=".52" height="3.3"/>
      </g>
      <g>
        <path class="cls-6" d="m32.43,91.56c-.87-.07-1.73-.14-2.58-.21v.21h2.58Z"/>
        <path class="cls-6" d="m373.65,91.22c.17-5.09,5.62-10.61,5.62-10.61H1.08l.23,3.35,372.34,7.26Z"/>
      </g>
      <polygon class="cls-2" points=".28 74.57 1.26 81.04 379.36 81.04 389.48 71.26 .28 74.57"/>
    </g>
  </g>
</svg>