<?xml version="1.0" encoding="UTF-8"?>
<svg id="Layer_2" data-name="Layer 2" xmlns="http://www.w3.org/2000/svg" viewBox="0 0 379.86 80">
  <defs>
    <style>
      .cls-1 {
        fill: #e4355c;
      }

      .cls-1, .cls-2, .cls-3, .cls-4, .cls-5, .cls-6 {
        stroke-width: 0px;
      }

      .cls-2 {
        fill: #254254;
      }

      .cls-3 {
        fill: #3b5972;
      }

      .cls-4 {
        fill: #29516a;
      }

      .cls-5 {
        fill: #466480;
      }

      .cls-6 {
        fill: #f2736d;
      }
    </style>
  </defs>
  <g id="Layer">
    <g>
      <g>
        <polygon class="cls-2" points="214.18 39.67 214.02 39.76 182.95 13.33 183.1 13.24 214.18 39.67"/>
        <polygon class="cls-2" points="209.7 42.14 209.54 42.22 182.71 13.43 182.87 13.35 209.7 42.14"/>
        <ellipse class="cls-2" cx="238.35" cy="25.22" rx="2.74" ry="1.99"/>
        <g>
          <rect class="cls-5" x="209.15" y="24.51" width="4.11" height="8.83"/>
          <rect class="cls-2" x="216.21" y="15.24" width=".39" height="14.63"/>
          <rect class="cls-2" x="222.09" y="15.24" width=".39" height="14.63"/>
          <rect class="cls-5" x="214.36" y="24.51" width="4.78" height="8.83"/>
          <rect class="cls-5" x="220.43" y="24.51" width="4.78" height="8.83"/>
          <polygon class="cls-2" points="228.75 46.48 208.46 46.48 208.46 31.48 227.03 31.48 228.75 46.48"/>
          <polygon class="cls-2" points="202.96 49.99 182.66 49.99 182.66 34.98 201.23 34.98 202.96 49.99"/>
          <rect class="cls-2" x="140.94" y="33.91" width="19.6" height="11.4"/>
          <rect class="cls-2" x="135.26" y="26.22" width="1.37" height="11.4"/>
          <rect class="cls-2" x="141.65" y="26.64" width="5.35" height="11.4"/>
          <rect class="cls-2" x="143.42" y="22.23" width="1.81" height="10.26"/>
          <polygon class="cls-5" points="123.39 42.75 149.96 42.75 149.96 30.2 128.59 30.2 123.39 42.75"/>
          <polygon class="cls-3" points="250.62 49.35 230.32 49.35 230.32 34.34 248.89 34.34 250.62 49.35"/>
          <polygon class="cls-2" points="259.37 45.74 239.08 45.74 239.08 30.73 257.65 30.73 259.37 45.74"/>
          <polygon class="cls-2" points="157.55 49.99 137.25 49.99 137.25 34.98 155.83 34.98 157.55 49.99"/>
          <rect class="cls-3" x="122.8" y="39.73" width="44.38" height="19.51"/>
          <rect class="cls-3" x="190.92" y="39.73" width="70.18" height="19.51"/>
          <polygon class="cls-5" points="264.54 45.48 237.36 53.24 237.36 34.98 261.78 34.98 264.54 45.48"/>
          <polygon class="cls-5" points="240.11 43.99 160.99 43.99 160.99 47.74 126.25 47.74 126.25 61.49 205.36 61.49 205.36 57.74 240.11 57.74 240.11 43.99"/>
          <rect class="cls-2" x="191.94" y="45.48" width="72.58" height="19.51"/>
          <polygon class="cls-2" points="172.68 62.24 172.34 51.49 157.35 51.49 154.11 49.24 74.98 49.24 74.98 60 93.22 60 93.22 62.24 172.68 62.24"/>
          <rect class="cls-2" x="129.5" y="32.82" width="5.88" height="1.14"/>
          <rect class="cls-2" x="136.17" y="32.82" width="5.88" height="1.14"/>
          <rect class="cls-2" x="142.84" y="32.82" width="5.88" height="1.14"/>
          <rect class="cls-2" x="129.64" y="30.79" width="5.88" height=".45"/>
          <rect class="cls-2" x="136.3" y="30.79" width="5.88" height=".45"/>
          <rect class="cls-2" x="142.96" y="30.79" width="5.88" height=".45"/>
          <g>
            <rect class="cls-3" x="142.71" y="29.21" width="3.01" height="5.78"/>
            <rect class="cls-3" x="146.52" y="29.21" width="3.49" height="5.78"/>
            <rect class="cls-3" x="150.96" y="29.21" width="3.49" height="5.78"/>
          </g>
          <path class="cls-2" d="m140.24,48.16c0,.39-.22.71-.48.71h-2.33c-.27,0-.48-.32-.48-.71h0c0-.39.22-.71.48-.71h2.33c.27,0,.48.32.48.71h0Z"/>
          <path class="cls-2" d="m143.74,48.16c0,.39-.22.71-.48.71h-2.33c-.27,0-.48-.32-.48-.71h0c0-.39.22-.71.48-.71h2.33c.27,0,.48.32.48.71h0Z"/>
          <path class="cls-2" d="m147.22,48.16c0,.39-.22.71-.48.71h-2.33c-.27,0-.48-.32-.48-.71h0c0-.39.22-.71.48-.71h2.33c.27,0,.48.32.48.71h0Z"/>
          <path class="cls-2" d="m150.71,48.16c0,.39-.22.71-.48.71h-2.33c-.27,0-.48-.32-.48-.71h0c0-.39.22-.71.48-.71h2.33c.27,0,.48.32.48.71h0Z"/>
          <path class="cls-2" d="m154.2,48.16c0,.39-.22.71-.48.71h-2.33c-.27,0-.48-.32-.48-.71h0c0-.39.22-.71.48-.71h2.33c.27,0,.48.32.48.71h0Z"/>
          <path class="cls-2" d="m140.24,46.55c0,.39-.22.71-.48.71h-2.33c-.27,0-.48-.32-.48-.71h0c0-.39.22-.71.48-.71h2.33c.27,0,.48.32.48.71h0Z"/>
          <path class="cls-2" d="m143.74,46.55c0,.39-.22.71-.48.71h-2.33c-.27,0-.48-.32-.48-.71h0c0-.39.22-.71.48-.71h2.33c.27,0,.48.32.48.71h0Z"/>
          <path class="cls-2" d="m147.22,46.55c0,.39-.22.71-.48.71h-2.33c-.27,0-.48-.32-.48-.71h0c0-.39.22-.71.48-.71h2.33c.27,0,.48.32.48.71h0Z"/>
          <path class="cls-2" d="m150.71,46.55c0,.39-.22.71-.48.71h-2.33c-.27,0-.48-.32-.48-.71h0c0-.39.22-.71.48-.71h2.33c.27,0,.48.32.48.71h0Z"/>
          <path class="cls-2" d="m154.2,46.55c0,.39-.22.71-.48.71h-2.33c-.27,0-.48-.32-.48-.71h0c0-.39.22-.71.48-.71h2.33c.27,0,.48.32.48.71h0Z"/>
          <path class="cls-2" d="m157,47.01c.22,1.39,1.2,2.44,2.36,2.44h16.2c1.17,0,2.15-1.05,2.36-2.44h-20.94,0Z"/>
          <rect class="cls-3" x="107.04" y="50.01" width="1.96" height="2.57"/>
          <rect class="cls-3" x="110.36" y="50.01" width="1.96" height="2.57"/>
          <rect class="cls-3" x="113.69" y="50.01" width="1.96" height="2.57"/>
          <rect class="cls-3" x="117.03" y="50.01" width="1.96" height="2.57"/>
          <rect class="cls-3" x="120.36" y="50.01" width="1.96" height="2.57"/>
          <rect class="cls-3" x="123.69" y="50.01" width="1.96" height="2.57"/>
          <rect class="cls-3" x="127.03" y="50.01" width="1.96" height="2.57"/>
          <rect class="cls-3" x="130.36" y="50.01" width="1.96" height="2.57"/>
          <rect class="cls-3" x="133.69" y="50.01" width="1.96" height="2.57"/>
          <rect class="cls-3" x="137.02" y="50.01" width="1.96" height="2.57"/>
          <rect class="cls-3" x="140.35" y="50.01" width="1.96" height="2.57"/>
          <rect class="cls-3" x="143.68" y="50.01" width="1.96" height="2.57"/>
          <rect class="cls-3" x="147.02" y="50.01" width="1.96" height="2.57"/>
          <rect class="cls-3" x="150.35" y="50.01" width="1.96" height="2.57"/>
          <rect class="cls-2" x="123.49" y="40.32" width="17.06" height=".71"/>
          <rect class="cls-2" x="131.34" y="42.18" width="3.53" height="2.85"/>
          <rect class="cls-2" x="128.59" y="44.59" width=".98" height="4.42"/>
          <rect class="cls-2" x="130.16" y="35.05" width="1.77" height="3.42"/>
          <rect class="cls-2" x="132.7" y="35.05" width="1.77" height="3.42"/>
          <rect class="cls-2" x="135.26" y="35.05" width="1.77" height="3.42"/>
          <rect class="cls-2" x="137.8" y="35.05" width="1.77" height="3.42"/>
          <rect class="cls-2" x="141.92" y="36.76" width="1.77" height="1.99"/>
          <rect class="cls-2" x="144.86" y="36.76" width="1.77" height="1.99"/>
          <rect class="cls-2" x="147.8" y="36.76" width="1.77" height="1.99"/>
          <polygon class="cls-3" points="111.83 47.38 108.45 47.38 108.16 47.38 104.78 47.38 104.48 47.38 101.1 47.38 100.81 47.38 97.42 47.38 97.13 47.38 93.75 47.38 93.46 47.38 90.07 47.38 89.78 47.38 86.4 47.38 86.11 47.38 82.72 47.38 82.43 47.38 79.05 47.38 78.75 47.38 75.37 47.38 75.08 47.38 75.08 47.59 75.08 49.23 75.37 49.23 75.37 47.59 78.75 47.59 78.75 49.23 79.05 49.23 79.05 47.59 82.43 47.59 82.43 49.23 82.72 49.23 82.72 47.59 86.11 47.59 86.11 49.23 86.4 49.23 86.4 47.59 86.75 47.59 86.75 49.16 87.62 49.16 87.62 47.59 89.78 47.59 89.78 49.23 90.07 49.23 90.07 47.59 93.46 47.59 93.46 49.23 93.75 49.23 93.75 47.59 94.68 47.59 94.68 49.16 95.56 49.16 95.56 47.59 97.13 47.59 97.13 49.23 97.42 49.23 97.42 47.59 100.81 47.59 100.81 49.23 101.1 49.23 101.1 47.59 104.48 47.59 104.48 49.23 104.78 49.23 104.78 47.59 108.16 47.59 108.16 49.23 108.45 49.23 108.45 47.59 111.83 47.59 111.83 49.23 112.13 49.23 112.13 47.38 111.83 47.38"/>
          <rect class="cls-5" x="139.86" y="36.44" width="1.9" height="2.86"/>
          <rect class="cls-5" x="143.93" y="36.44" width="1.9" height="2.86"/>
          <rect class="cls-5" x="147.98" y="36.44" width="1.9" height="2.86"/>
          <rect class="cls-5" x="152.05" y="36.44" width="1.9" height="2.86"/>
          <rect class="cls-2" x="157.63" y="32.46" width="1.58" height="1.45"/>
          <rect class="cls-2" x="155.1" y="32.46" width="1.58" height="1.45"/>
          <rect class="cls-5" x="195.36" y="31.59" width="2.36" height="12.35"/>
          <rect class="cls-5" x="193.8" y="37.38" width="5.22" height="2.94"/>
          <rect class="cls-2" x="192.49" y="39.56" width="7.71" height="2.09"/>
          <rect class="cls-5" x="191.57" y="41.25" width="9.8" height="2.62"/>
          <rect class="cls-5" x="225.63" y="44.72" width=".5" height="8.76"/>
          <rect class="cls-5" x="229.27" y="44.72" width=".5" height="8.76"/>
          <rect class="cls-2" x="184.2" y="44.08" width=".63" height="9.22"/>
          <rect class="cls-2" x="188.16" y="44.08" width=".63" height="9.22"/>
          <rect class="cls-5" x="200.03" y="37.96" width="37.4" height=".46"/>
          <rect class="cls-5" x="201.53" y="37.95" width=".38" height="1.75"/>
          <rect class="cls-5" x="205.92" y="37.95" width=".38" height="1.75"/>
          <rect class="cls-5" x="210.31" y="37.95" width=".38" height="1.75"/>
          <rect class="cls-5" x="214.71" y="37.95" width=".38" height="1.75"/>
          <rect class="cls-5" x="219.1" y="37.95" width=".38" height="1.75"/>
          <rect class="cls-5" x="223.49" y="37.95" width=".38" height="1.75"/>
          <rect class="cls-5" x="227.89" y="37.95" width=".38" height="1.75"/>
          <rect class="cls-5" x="232.28" y="37.95" width=".38" height="1.75"/>
          <rect class="cls-5" x="191.31" y="52.96" width="73.11" height=".37"/>
        </g>
        <g>
          <rect class="cls-2" x="308.47" y="49.81" width="23.82" height=".26"/>
          <rect class="cls-3" x="312.01" y="49.3" width="5.32" height="1.2"/>
          <path class="cls-5" d="m314.54,53.08h-5.75c-1.23-.45-2.23-1.3-2.52-2.27-.43-1.45.85-2.62,2.83-2.62h3.7c1.98,0,2.48,1.18,2.91,2.62.28.98-.22,1.82-1.19,2.27h0Z"/>
        </g>
        <rect class="cls-5" x="34.51" y="52.01" width="146.61" height="13.68"/>
        <path class="cls-4" d="m311.74,51.12l-2.84,2.31H49.76c-1.57,2.7-9.08,4.75-18.12,4.75H0l1.2,6.65h359.06l19.6-15.96-68.12,2.25Z"/>
        <path class="cls-1" d="m360.17,64.49H1.03l.34,4.25c.28,0,.65,0,1.04.02l2.05,7.24h6.19l1.94-6.84c3.5.16,7.62.37,12.17.6v2.24h-4.81v1.25h65.59c13.38,1.12,15.94,2.25,15.94,2.25h216.04c7.13,0,16.37,4.5,26.49,4.5,13.76,0,15.14.26,11.7-4.25s4.47-11.26,4.47-11.26h0Zm-331.62,5.46c11.13.58,24.33,1.32,37.23,2.04H28.55s0-2.04,0-2.04Z"/>
        <rect class="cls-2" x="44.54" y="49.4" width="7.06" height="2.61"/>
        <rect class="cls-2" x="45.82" y="46.97" width="4.5" height="1.61"/>
        <rect class="cls-3" x="43.6" y="49.3" width="9.15" height="1.18"/>
        <rect class="cls-5" x="2.1" y="53.4" width="4.7" height="4.85"/>
        <rect class="cls-5" x="10.01" y="53.4" width="4.7" height="4.85"/>
        <rect class="cls-2" x="2.1" y="53.88" width="4.7" height=".97"/>
        <g>
          <rect class="cls-2" x="15.58" y="54.92" width="13.47" height=".26"/>
          <rect class="cls-3" x="20.19" y="54.4" width="5.32" height="1.2"/>
          <path class="cls-5" d="m22.96,58.18h5.75c1.23-.45,2.23-1.3,2.52-2.27.43-1.45-.85-2.62-2.83-2.62h-3.7c-1.98,0-2.48,1.18-2.91,2.62-.28.98.22,1.82,1.19,2.27h0Z"/>
        </g>
        <rect class="cls-2" x="10.01" y="53.88" width="4.7" height=".97"/>
        <rect class="cls-2" x=".02" y="56.28" width="43.51" height=".86"/>
        <path class="cls-5" d="m53.09,49.76h-13.27c-2.75,0,.32-2.12,6.39-2.12,5.49,0,7.11.13,9.31.13.68,0,1.7,1.99-2.43,1.99Z"/>
        <rect class="cls-2" x="230.51" y="18.09" width="1.18" height="17.95"/>
        <rect class="cls-5" x="228.94" y="21.1" width="9.01" height="2.19"/>
        <rect class="cls-2" x="228.94" y="23" width="9.01" height=".28"/>
        <polygon class="cls-2" points="231.1 25.85 231.1 26.14 237.95 23.28 237.95 23 231.1 25.85"/>
        <rect class="cls-5" x="228.74" y="26.22" width="12.93" height="1.57"/>
        <rect class="cls-2" x="228.74" y="27.49" width="12.93" height=".3"/>
        <polygon class="cls-2" points="240.5 35.05 239.72 35.05 237.37 27.64 238.14 27.64 240.5 35.05"/>
        <rect class="cls-2" x="231.1" y="31.06" width="7.84" height=".29"/>
        <polygon class="cls-2" points="239.53 31.49 231.1 27.92 231.1 27.64 239.53 31.2 239.53 31.49"/>
        <polygon class="cls-2" points="240.02 34.98 231.59 31.42 231.59 31.13 240.02 34.69 240.02 34.98"/>
        <polygon class="cls-2" points="239.59 31.13 231.16 34.69 231.16 34.98 239.59 31.42 239.59 31.13"/>
        <polygon class="cls-2" points="237.95 27.64 231.1 31.2 231.1 31.49 237.95 27.92 237.95 27.64"/>
        <polygon class="cls-2" points="244.45 33.85 244.07 33.52 259.39 24.19 259.77 24.51 244.45 33.85"/>
        <rect class="cls-3" x="247.56" y="36.76" width="7.06" height="6.7"/>
        <rect class="cls-2" x="182.33" y=".61" width=".7" height="43.27"/>
        <polygon class="cls-2" points="173.91 12.82 174.61 12.82 170.49 43.88 169.8 43.88 173.91 12.82"/>
        <rect class="cls-2" x="171.84" y="12.81" width="18.42" height=".48"/>
        <rect class="cls-2" x="179.42" y="7.83" width="10.19" height="1.63"/>
        <rect class="cls-2" x="173.7" y="17.07" width="9.25" height=".48"/>
        <rect class="cls-2" x="159.56" y="21.27" width="23.4" height=".48"/>
        <polygon class="cls-2" points="182.95 26.03 165.83 26.03 165.6 25.55 182.95 25.55 182.95 26.03"/>
        <rect class="cls-2" x="168.36" y="30.3" width="14.6" height=".48"/>
        <rect class="cls-2" x="171.06" y="35.38" width="11.9" height=".48"/>
        <rect class="cls-2" x="170.66" y="39.85" width="12.29" height=".48"/>
        <polygon class="cls-2" points="182.95 44.01 170.66 40.66 170.66 40.18 182.95 43.53 182.95 44.01"/>
        <polygon class="cls-2" points="182.82 39.49 171.39 36.14 171.39 35.66 182.82 39.01 182.82 39.49"/>
        <polygon class="cls-2" points="182.87 30.67 172.64 26.19 172.64 25.71 182.87 30.19 182.87 30.67"/>
        <polygon class="cls-2" points="182.72 35.58 171.96 31.09 171.96 30.61 182.72 35.1 182.72 35.58"/>
        <polygon class="cls-2" points="182.55 25.94 173.24 22.02 173.24 21.54 182.55 25.46 182.55 25.94"/>
        <polygon class="cls-2" points="182.68 21.71 173.88 17.87 173.88 17.39 182.68 21.23 182.68 21.71"/>
        <polygon class="cls-2" points="183.08 17.38 174.34 13.55 174.34 13.07 183.08 16.9 183.08 17.38"/>
        <polygon class="cls-2" points="173.89 17.36 182.64 13.54 182.64 13.06 173.89 16.88 173.89 17.36"/>
        <polygon class="cls-2" points="182.88 17.39 187.25 13.57 187.25 13.09 182.88 16.91 182.88 17.39"/>
        <polygon class="cls-2" points="173.02 21.57 182.52 17.75 182.52 17.27 173.02 21.09 173.02 21.57"/>
        <polygon class="cls-2" points="172.45 25.95 182.61 21.74 182.61 21.26 172.45 25.47 172.45 25.95"/>
        <polygon class="cls-2" points="171.84 30.43 182.75 26.23 182.75 25.75 171.84 29.95 171.84 30.43"/>
        <polygon class="cls-2" points="171.02 35.62 182.47 30.94 182.47 30.46 171.02 35.14 171.02 35.62"/>
        <polygon class="cls-2" points="170.43 40.15 182.52 35.95 182.52 35.47 170.43 39.67 170.43 40.15"/>
        <polygon class="cls-2" points="169.82 43.9 182.56 40.16 182.56 39.68 169.82 43.42 169.82 43.9"/>
        <polygon class="cls-2" points="171.19 35.71 163.23 21.93 163.35 21.46 171.32 35.24 171.19 35.71"/>
        <rect class="cls-2" x="180.4" y="1.07" width="4.58" height=".49"/>
        <rect class="cls-2" x="180.93" width="3.27" height=".65"/>
        <rect class="cls-2" x="181.64" y="4.6" width="1.83" height="1.14"/>
        <rect class="cls-2" x="181.12" y="7.35" width="1.7" height="5.61"/>
        <polygon class="cls-2" points="171.84 10.97 171.84 13.15 172.36 13.15 172.36 11.25 189.48 11.25 189.48 13.15 190.01 13.15 190.01 10.97 171.84 10.97"/>
        <rect class="cls-2" x="172.11" y="11.91" width="17.51" height=".19"/>
        <rect class="cls-2" x="185.95" y="11.06" width=".27" height="2.18"/>
        <rect class="cls-2" x="176.81" y="11.06" width=".27" height="2.18"/>
        <polygon class="cls-2" points="181.25 12.86 180.99 12.86 179.81 9.35 180.07 9.35 181.25 12.86"/>
        <polygon class="cls-2" points="182.23 12.62 181.97 12.62 187.72 8.93 187.97 8.93 182.23 12.62"/>
        <path class="cls-2" d="m169.85,14.95h-8.14c-1.73,0-3.13,1.02-3.13,2.28s1.41,2.28,3.13,2.28h8.14c1.73,0,3.13-1.02,3.13-2.28s-1.41-2.28-3.13-2.28Zm0,4.39h-8.14c-1.6,0-2.9-.94-2.9-2.11s1.3-2.11,2.9-2.11h8.14c1.6,0,2.9.94,2.9,2.11s-1.3,2.11-2.9,2.11Z"/>
        <rect class="cls-2" x="158.88" y="16.45" width="13.82" height=".22"/>
        <rect class="cls-2" x="158.88" y="17.59" width="13.82" height=".22"/>
        <rect class="cls-2" x="159.56" y="18.73" width="12.45" height=".22"/>
        <rect class="cls-2" x="159.56" y="15.6" width="12.45" height=".22"/>
        <rect class="cls-2" x="160.93" y="15.1" width=".09" height="4.27"/>
        <rect class="cls-2" x="162.35" y="15.1" width=".09" height="4.27"/>
        <rect class="cls-2" x="163.78" y="15.1" width=".09" height="4.27"/>
        <rect class="cls-2" x="165.19" y="15.1" width=".09" height="4.27"/>
        <rect class="cls-2" x="166.62" y="15.1" width=".09" height="4.27"/>
        <rect class="cls-2" x="168.04" y="15.1" width=".09" height="4.27"/>
        <rect class="cls-2" x="169.46" y="15.1" width=".09" height="4.27"/>
        <rect class="cls-2" x="170.88" y="15.1" width=".09" height="4.27"/>
        <rect class="cls-2" x="172.3" y="16.17" width=".09" height="2.14"/>
        <rect class="cls-2" x="159.61" y="15.67" width=".09" height="3.14"/>
        <rect class="cls-2" x="165.53" y="16.13" width=".79" height="3.28"/>
        <rect class="cls-2" x="163.67" y="17.84" width="4.51" height=".57"/>
        <rect class="cls-2" x="164.17" y="20.3" width="3.63" height="1.07"/>
        <rect class="cls-2" x="164.56" y="18.02" width=".49" height="2.64"/>
        <rect class="cls-2" x="166.91" y="18.02" width=".49" height="2.64"/>
      </g>
      <g>
        <path class="cls-6" d="m30.8,73.25c-.83-.06-1.64-.11-2.45-.17v.17h2.45Z"/>
        <path class="cls-6" d="m354.84,72.98c.16-4.07,5.34-8.49,5.34-8.49H1.03l.22,2.68,353.59,5.81Z"/>
      </g>
      <polygon class="cls-2" points=".27 59.66 1.2 64.84 360.26 64.84 369.87 57.01 .27 59.66"/>
    </g>
  </g>
</svg>