<?xml version="1.0" encoding="UTF-8"?>
<svg id="Layer_2" data-name="Layer 2" xmlns="http://www.w3.org/2000/svg" viewBox="0 0 180 80.11">
  <defs>
    <style>
      .cls-1 {
        fill: #1e4559;
      }

      .cls-1, .cls-2, .cls-3, .cls-4, .cls-5, .cls-6, .cls-7, .cls-8, .cls-9 {
        stroke-width: 0px;
      }

      .cls-2 {
        fill: #e4355c;
      }

      .cls-3 {
        fill: #3b5972;
      }

      .cls-4 {
        fill: #29516a;
      }

      .cls-5 {
        fill: #466480;
      }

      .cls-6 {
        fill: #447284;
      }

      .cls-7 {
        fill: #f2736d;
      }

      .cls-8 {
        fill: #588399;
      }

      .cls-9 {
        fill: #a5c1cc;
      }
    </style>
  </defs>
  <g id="Layer">
    <g>
      <path class="cls-6" d="m2.92,63.82c0,.57-.34,1.03-.76,1.03h0c-.42,0-.76-.46-.76-1.03v-12.82c0-.57.34-1.03.76-1.03h0c.42,0,.76.46.76,1.03v12.82Z"/>
      <path class="cls-6" d="m5.19,59.34c.11.24.05.54-.13.69h0c-.18.14-.4.06-.51-.18l-2.37-5.4c-.11-.24-.04-.54.13-.69h0c.18-.14.4-.06.51.18,0,0,2.37,5.4,2.37,5.4Z"/>
      <path class="cls-6" d="m6.39,65.39c0,.43-.26.79-.58.79h0c-.32,0-.58-.35-.58-.79v-9.8c0-.43.26-.79.58-.79h0c.32,0,.58.35.58.79v9.8Z"/>
      <path class="cls-6" d="m8.49,65.39c0,.43-.26.79-.58.79h0c-.32,0-.58-.35-.58-.79v-9.8c0-.43.26-.79.58-.79h0c.32,0,.58.35.58.79v9.8Z"/>
      <path class="cls-6" d="m149.05,57.66c0,2.88-1.75,5.22-3.91,5.22h-12.58c-2.16,0-3.91-2.34-3.91-5.22h0c0-2.88,1.75-5.22,3.91-5.22h12.58c2.16,0,3.91,2.34,3.91,5.22h0Z"/>
      <polygon class="cls-1" points="118.61 47.21 124.15 43.59 124.09 43.42 118.54 47.04 118.61 47.21"/>
      <polygon class="cls-4" points="119.97 46.67 121.86 45.44 121.57 44.65 119.69 45.88 119.97 46.67"/>
      <path class="cls-6" d="m120.82,47.41c-.34-1.28-.6-2.07-1.37-2.28l-1.57-.42c-.93-.25-1.47.7-2.08,2.04-.59,1.31-1.14,2.56-.34,3.68l4.98.21c.57-.82.69-2.07.38-3.24h0Z"/>
      <path class="cls-8" d="m125.86,57.58c0,1.26-.77,2.27-1.7,2.27h-12.7c-.94,0-1.7-1.02-1.7-2.27v-6.66c0-1.26.76-2.27,1.7-2.27h12.7c.94,0,1.7,1.02,1.7,2.27v6.66Z"/>
      <rect class="cls-4" x="75.3" y="20.55" width=".25" height="20.84"/>
      <rect class="cls-4" x="78.58" y="16.13" width=".25" height="20.84"/>
      <g>
        <rect class="cls-4" x="67.78" y="31.31" width=".85" height="5.68"/>
        <rect class="cls-4" x="67.09" y="29.95" width="1.53" height="3.64"/>
        <rect class="cls-4" x="69.82" y="30.87" width=".56" height="3.73"/>
        <rect class="cls-4" x="69.37" y="29.98" width="1.01" height="2.39"/>
        <rect class="cls-4" x="71.73" y="29.84" width=".81" height="5.39"/>
      </g>
      <polygon class="cls-4" points="83.59 37.22 81.72 37.22 81.72 18.82 82.22 18.82 83.59 37.22"/>
      <g>
        <g>
          <rect class="cls-4" x="57.11" y="16.5" width="4.89" height=".18"/>
          <rect class="cls-4" x="56.78" y="19.24" width="5.62" height=".18"/>
          <rect class="cls-4" x="56.42" y="22.24" width="6.11" height=".18"/>
          <rect class="cls-4" x="56.16" y="25.51" width="6.78" height=".18"/>
          <polygon class="cls-4" points="62.63 25.75 55.49 29.03 55.52 29.21 62.66 25.92 62.63 25.75"/>
          <polygon class="cls-4" points="62.92 22.37 55.77 25.65 55.81 25.82 62.94 22.54 62.92 22.37"/>
          <polygon class="cls-4" points="62.32 19.43 56.44 22.29 56.46 22.47 62.35 19.59 62.32 19.43"/>
          <polygon class="cls-4" points="61.71 16.89 56.8 19.44 56.83 19.61 61.75 17.06 61.71 16.89"/>
          <polygon class="cls-4" points="57.05 16.89 61.96 19.44 61.93 19.61 57.01 17.06 57.05 16.89"/>
          <polygon class="cls-4" points="56.8 19.91 62.63 22.15 62.58 22.33 56.75 20.08 56.8 19.91"/>
          <polygon class="cls-4" points="56.67 22.41 63.28 25.71 63.23 25.87 56.62 22.57 56.67 22.41"/>
          <polygon class="cls-4" points="56.22 25.55 63.47 28.62 63.41 28.79 56.16 25.71 56.22 25.55"/>
        </g>
        <polygon class="cls-4" points="55.79 31.24 54.92 31.24 56.78 13.71 57.64 13.71 55.79 31.24"/>
        <polygon class="cls-4" points="63.35 31.24 64.2 31.24 62.35 13.71 61.49 13.71 63.35 31.24"/>
        <path class="cls-9" d="m62.48,13.8v-1.79c0-2.11-1.28-3.81-2.85-3.81s-2.85,1.71-2.85,3.81v1.79s5.71,0,5.71,0Z"/>
        <rect class="cls-4" x="52.08" y="13.52" width="11.41" height=".57"/>
      </g>
      <rect class="cls-5" x="54.64" y="30.1" width="11.27" height="8.57"/>
      <path class="cls-4" d="m86.59,42.37c0,.25-.15.46-.34.46h-32.3c-.19,0-.34-.2-.34-.46v-7.27c0-.25.15-.46.34-.46h32.3c.19,0,.34.2.34.46v7.27Z"/>
      <path class="cls-5" d="m85.23,35.02h-22.3c-.19,0-.34.2-.34.46v7.27c0,.25.15.46.34.46h22.3v-8.18Z"/>
      <path class="cls-4" d="m52.65,40.08c.71,1.83.04,3.49-1.59,3.49h-6.18c-1.63,0-2.94-1.67-2.94-3.49v-8.27c0-.81.76-1.42,1.7-1.42h3.57c.94,0,1.93.61,2.25,1.42l3.2,8.27h0Z"/>
      <rect class="cls-1" x="33.59" y="29.04" width="1.02" height="8.4"/>
      <rect class="cls-5" x="29.17" y="34.49" width="7.14" height="2.72"/>
      <rect class="cls-1" x="32.06" y="32.67" width="5.1" height="10.45"/>
      <path class="cls-5" d="m28.5,46.08c0,.25-.15.46-.34.46h-4.25c-.19,0-.34-.2-.34-.46v-2.5c0-.25.15-.46.34-.46h4.25c.19,0,.34.2.34.46v2.5Z"/>
      <rect class="cls-3" x="23.57" y="46.98" width="5.27" height="7.27"/>
      <rect class="cls-1" x="22.71" y="46.08" width="6.97" height="1.14"/>
      <path class="cls-5" d="m28.4,59.01c-.07.46.04.85.26.85h70.74c.22,0,.33-.38.26-.85l-2.87-18.13c-.06-.39-.27-.71-.48-.71H31.75c-.2,0-.41.32-.48.71l-2.87,18.13Z"/>
      <path class="cls-4" d="m36.9,56.63c-.07.27.04.5.24.5h66.82c.21,0,.31-.22.24-.5l-2.72-10.6c-.06-.23-.26-.42-.45-.42h-60.97c-.19,0-.39.18-.45.42l-2.72,10.6h0Z"/>
      <polygon class="cls-3" points="69 62.79 69 62.79 11.63 62.79 10.84 62.79 16.92 53.96 16.92 53.96 69 53.96 69 53.96 69 62.79"/>
      <polygon class="cls-1" points="90.59 61.65 90.59 61.65 33.22 61.65 32.43 61.65 38.52 52.82 38.52 52.82 90.59 52.82 90.59 52.82 90.59 61.65"/>
      <path class="cls-6" d="m122.4,63.14l-6.88,1.76-78.25-1.76s9.06-4.36,9.06-10.59h63.64l12.42,10.59Z"/>
      <path class="cls-8" d="m127.69,58.77H.36c-.43-.58-.35,6.22-.35,6.22l.55,5.64s150.73.66,164.97.66c5.65-11.22,11.11-20.59,14.43-23.98,1.7-1.74-42.16,11.46-52.26,11.46Z"/>
      <path class="cls-9" d="m127.69,59.99c8.98,0,44.6-10.42,51.24-11.53.36-.43.7-.82,1.02-1.15,1.7-1.74-42.16,11.46-52.26,11.46H.36c-.13-.18-.22.37-.27,1.21h127.61,0Z"/>
      <rect class="cls-4" x="47.51" y="53.45" width="1.69" height=".71"/>
      <rect class="cls-4" x="49.87" y="53.45" width="1.69" height=".71"/>
      <rect class="cls-4" x="52.24" y="53.45" width="1.69" height=".71"/>
      <rect class="cls-4" x="54.61" y="53.45" width="1.69" height=".71"/>
      <rect class="cls-4" x="56.98" y="53.45" width="1.69" height=".71"/>
      <rect class="cls-4" x="59.34" y="53.45" width="1.69" height=".71"/>
      <rect class="cls-4" x="61.71" y="53.45" width="1.69" height=".71"/>
      <rect class="cls-4" x="64.08" y="53.45" width="1.69" height=".71"/>
      <rect class="cls-4" x="66.44" y="53.45" width="1.69" height=".71"/>
      <rect class="cls-4" x="68.81" y="53.45" width="1.69" height=".71"/>
      <rect class="cls-4" x="71.18" y="53.45" width="1.69" height=".71"/>
      <rect class="cls-4" x="73.54" y="53.45" width="1.69" height=".71"/>
      <rect class="cls-4" x="75.91" y="53.45" width="1.69" height=".71"/>
      <rect class="cls-4" x="78.28" y="53.45" width="1.69" height=".71"/>
      <rect class="cls-4" x="80.65" y="53.45" width="1.69" height=".71"/>
      <rect class="cls-4" x="83.02" y="53.45" width="1.69" height=".71"/>
      <rect class="cls-4" x="85.39" y="53.45" width="1.69" height=".71"/>
      <rect class="cls-4" x="87.76" y="53.45" width="1.69" height=".71"/>
      <rect class="cls-4" x="90.12" y="53.45" width="1.69" height=".71"/>
      <rect class="cls-4" x="92.49" y="53.45" width="1.69" height=".71"/>
      <rect class="cls-4" x="94.86" y="53.45" width="1.69" height=".71"/>
      <rect class="cls-4" x="97.22" y="53.45" width="1.69" height=".71"/>
      <rect class="cls-4" x="99.59" y="53.45" width="1.69" height=".71"/>
      <rect class="cls-4" x="101.96" y="53.45" width="1.69" height=".71"/>
      <rect class="cls-4" x="104.32" y="53.45" width="1.69" height=".71"/>
      <rect class="cls-4" x="106.69" y="53.45" width="1.69" height=".71"/>
      <path class="cls-6" d="m175.69,47.94c-6.89,4.61-16.19,11.29-26.27,18.81-11.45,0-110.85-.43-149.31-.59l.44,4.48s150.73.66,164.97.66c5.65-11.22,11.11-20.59,14.43-23.98.36-.37-1.3-.07-4.26.62h0Z"/>
      <polygon class="cls-4" points="158.61 64.68 156.02 67.36 152.97 62.59 155.56 59.92 158.61 64.68"/>
      <path class="cls-2" d="m166.29,70.35H.47l.16,3.6c.13,0,.3,0,.49,0l.94,6.14h2.86l.89-5.81c1.62.14.43.31,2.54.51v1.9h-2.22v1.06l6.57-.06c6.17.95,7.35,1.91,7.35,1.91,0,0,105.94-.26,144.31-.26,3.11,0,3.38-2.96.38-4.69-1.02-.58,1.55-4.32,1.55-4.32h0Zm-153.65,4.63c5.14.5,8.19,2.8,8.2,1.73h-8.2s0-1.73,0-1.73Z"/>
      <path class="cls-7" d="m.64,73.95v-.08h163.89c-.06.37-.02.66.22.79.3.17.55.35.78.54H14.3c-.52-.1-1.08-.18-1.66-.23v.23h-4.29v-.39c-2.1-.2-.92-.38-2.54-.51l-.14.91H1.31l-.19-1.24c-.19,0-.35,0-.49,0h0Z"/>
      <rect class="cls-1" x="57.06" y="46.76" width="15.81" height="5.9"/>
      <polygon class="cls-1" points="80.52 46.76 80.52 49.71 87.84 49.71 87.84 52.66 96.33 52.66 96.33 46.76 80.52 46.76"/>
      <path class="cls-9" d="m43,46.36c0,.66-.4,1.19-.88,1.19h-1.68c-.49,0-.88-.53-.88-1.19h0c0-.66.4-1.19.88-1.19h1.68c.49,0,.88.53.88,1.19h0Z"/>
      <path class="cls-9" d="m47.08,46.36c0,.66-.4,1.19-.88,1.19h-1.68c-.49,0-.88-.53-.88-1.19h0c0-.66.4-1.19.88-1.19h1.68c.49,0,.88.53.88,1.19h0Z"/>
      <path class="cls-9" d="m51.16,46.36c0,.66-.4,1.19-.88,1.19h-1.68c-.49,0-.88-.53-.88-1.19h0c0-.66.4-1.19.88-1.19h1.68c.49,0,.88.53.88,1.19h0Z"/>
      <path class="cls-9" d="m55.24,46.36c0,.66-.4,1.19-.88,1.19h-1.68c-.49,0-.88-.53-.88-1.19h0c0-.66.4-1.19.88-1.19h1.68c.49,0,.88.53.88,1.19h0Z"/>
      <path class="cls-9" d="m59.32,46.36c0,.66-.4,1.19-.88,1.19h-1.68c-.49,0-.88-.53-.88-1.19h0c0-.66.4-1.19.88-1.19h1.68c.49,0,.88.53.88,1.19h0Z"/>
      <path class="cls-9" d="m63.4,46.36c0,.66-.4,1.19-.88,1.19h-1.68c-.49,0-.88-.53-.88-1.19h0c0-.66.4-1.19.88-1.19h1.68c.49,0,.88.53.88,1.19h0Z"/>
      <path class="cls-9" d="m67.49,46.36c0,.66-.4,1.19-.88,1.19h-1.68c-.49,0-.88-.53-.88-1.19h0c0-.66.4-1.19.88-1.19h1.68c.49,0,.88.53.88,1.19h0Z"/>
      <path class="cls-9" d="m71.56,46.36c0,.66-.4,1.19-.88,1.19h-1.68c-.49,0-.88-.53-.88-1.19h0c0-.66.4-1.19.88-1.19h1.68c.49,0,.88.53.88,1.19h0Z"/>
      <path class="cls-9" d="m83.78,46.36c0,.66-.4,1.19-.88,1.19h-1.68c-.49,0-.88-.53-.88-1.19h0c0-.66.4-1.19.88-1.19h1.68c.49,0,.88.53.88,1.19h0Z"/>
      <path class="cls-9" d="m87.86,46.36c0,.66-.4,1.19-.88,1.19h-1.68c-.49,0-.88-.53-.88-1.19h0c0-.66.4-1.19.88-1.19h1.68c.49,0,.88.53.88,1.19h0Z"/>
      <path class="cls-9" d="m91.94,46.36c0,.66-.4,1.19-.88,1.19h-1.68c-.49,0-.88-.53-.88-1.19h0c0-.66.4-1.19.88-1.19h1.68c.49,0,.88.53.88,1.19h0Z"/>
      <path class="cls-9" d="m96.03,46.36c0,.66-.4,1.19-.88,1.19h-1.68c-.49,0-.88-.53-.88-1.19h0c0-.66.4-1.19.88-1.19h1.68c.49,0,.88.53.88,1.19h0Z"/>
      <path class="cls-9" d="m100.1,46.36c0,.66-.4,1.19-.88,1.19h-1.68c-.49,0-.88-.53-.88-1.19h0c0-.66.4-1.19.88-1.19h1.68c.49,0,.88.53.88,1.19h0Z"/>
      <rect class="cls-1" x="60" y="40.85" width="5.34" height="3.64"/>
      <rect class="cls-1" x="65.79" y="40.85" width="5.85" height="3.64"/>
      <rect class="cls-1" x="72.08" y="40.85" width="5.85" height="3.64"/>
      <rect class="cls-1" x="78.37" y="40.85" width="4.82" height="3.64"/>
      <rect class="cls-1" x="83.63" y="40.85" width="5.05" height="3.64"/>
      <rect class="cls-1" x="52.64" y="40.85" width="6.92" height="3.64"/>
      <path class="cls-5" d="m35.81,30.29c0,.94-.57,1.71-1.28,1.71h-1.87c-.7,0-1.28-.76-1.28-1.71h0c0-.94.57-1.71,1.28-1.71h1.87c.7,0,1.28.76,1.28,1.71h0Z"/>
      <path class="cls-5" d="m42.61,32.9h3.57c.94,0,2.12.61,2.68,1.42l3.53,5.09-2.94-7.59c-.31-.81-1.3-1.42-2.25-1.42h-3.57c-.94,0-1.7.61-1.7,1.42v1.22c.2-.08.42-.14.68-.14Z"/>
      <polygon class="cls-4" points="54.7 4.41 53.79 4.41 53.78 4.5 54.7 4.5 54.7 4.41"/>
      <polygon class="cls-4" points="54.76 6.04 53.67 6.04 53.67 6.15 54.77 6.15 54.76 6.04"/>
      <polygon class="cls-4" points="54.91 8.23 53.56 8.23 53.55 8.36 54.91 8.36 54.91 8.23"/>
      <polygon class="cls-4" points="54.85 8.42 53.29 11.29 53.29 11.47 54.87 8.55 54.85 8.42"/>
      <polygon class="cls-4" points="54.83 6.12 53.47 8.34 53.47 8.48 54.84 6.22 54.83 6.12"/>
      <polygon class="cls-4" points="54.68 4.51 53.68 6.07 53.68 6.18 54.69 4.6 54.68 4.51"/>
      <polygon class="cls-4" points="54.56 3.34 53.79 4.52 53.79 4.61 54.56 3.41 54.56 3.34"/>
      <polygon class="cls-4" points="53.85 3.34 54.63 4.52 54.63 4.61 53.85 3.41 53.85 3.34"/>
      <polygon class="cls-4" points="53.78 4.75 54.78 5.99 54.77 6.1 53.77 4.85 53.78 4.75"/>
      <polygon class="cls-4" points="53.72 6.14 54.99 8.38 54.98 8.51 53.71 6.24 53.72 6.14"/>
      <polygon class="cls-4" points="53.56 8.26 55.12 10.89 55.11 11.05 53.55 8.39 53.56 8.26"/>
      <polygon class="cls-4" points="53.27 13.75 53.05 13.75 53.85 2.1 53.97 2.1 53.27 13.75"/>
      <polygon class="cls-4" points="55.2 13.75 55.42 13.75 54.62 2.1 54.5 2.1 55.2 13.75"/>
      <rect class="cls-4" x="49.36" y="2.1" width="6.56" height=".38"/>
      <polygon class="cls-4" points="54.92 2.28 53.79 2.28 54.07 0 54.92 2.28"/>
      <polygon class="cls-4" points="66.1 18.29 62.2 18.29 62.63 20.96 65.84 19.24 66.1 19.11 66.1 18.29"/>
      <polygon class="cls-4" points="67.13 21.91 62.63 21.91 63.16 24.58 67.1 22.86 67.13 22.85 67.13 21.91"/>
      <rect class="cls-4" x="71.08" y="28.54" width="1.45" height="3.45"/>
      <polygon class="cls-6" points="120.31 57.66 113 51.76 113 50.84 120.31 56.75 120.31 57.66"/>
      <rect class="cls-6" x="117.51" y="49.94" width="7.48" height=".91"/>
    </g>
  </g>
</svg>