<?xml version="1.0" encoding="UTF-8"?>
<svg id="Layer_2" data-name="Layer 2" xmlns="http://www.w3.org/2000/svg" viewBox="0 0 279.88 80.06">
  <defs>
    <style>
      .cls-1 {
        fill: #162d38;
      }

      .cls-1, .cls-2, .cls-3, .cls-4, .cls-5, .cls-6 {
        stroke-width: 0px;
      }

      .cls-2 {
        fill: #e4355c;
      }

      .cls-3 {
        fill: #254254;
      }

      .cls-4 {
        fill: #008096;
      }

      .cls-5 {
        fill: #29516a;
      }

      .cls-6 {
        fill: #f2736d;
      }
    </style>
  </defs>
  <g id="Layer">
    <g>
      <path class="cls-3" d="m22.84,78.41c-.07.28-.34.51-.6.51H6.34c-.25,0-.46-.23-.46-.51v-19.28c0-.49.27-.89.62-.89h21.1c.34,0,.5.4.38.89,0,0-5.14,19.28-5.14,19.28Z"/>
      <path class="cls-3" d="m33.56,52.14c.49,3.04-.9,5.62-3.11,5.62h-12.01c-2.21,0-4,4-4,.97v-30.45c0-1.87,1.32-3.31,2.95-3.31h8.86c1.64,0,3.19,1.46,3.48,3.31,0,0,3.82,23.86,3.82,23.86Z"/>
      <path class="cls-4" d="m16.65,27.13h8.86c1.64,0,3.19,1.46,3.48,3.31l3.82,23.86c.11.71.13,1.39.04,2.03.67-1.04.95-2.55.7-4.2l-3.82-23.86c-.29-1.87-1.85-3.32-3.48-3.32h-8.86c-1.62,0-2.94,1.44-2.95,3.29.55-.69,1.33-1.11,2.21-1.11h0Z"/>
      <g>
        <path class="cls-5" d="m113.82,14.58c0,.8-.43,1.45-.98,1.45h0c-.55,0-.98-.65-.98-1.45V2.53c0-.8.43-1.45.98-1.45h0c.55,0,.98.65.98,1.45v12.06h0Z"/>
        <path class="cls-5" d="m118.77,18.2c0,.8-.43,1.45-.98,1.45h0c-.55,0-.98-.65-.98-1.45V6.15c0-.8.43-1.45.98-1.45h0c.55,0,.98.65.98,1.45v12.06h0Z"/>
        <path class="cls-5" d="m122.38,17c0,.8-.43,1.45-.98,1.45h0c-.55,0-.98-.65-.98-1.45V4.94c0-.8.43-1.45.98-1.45h0c.55,0,.98.65.98,1.45v12.06Z"/>
        <path class="cls-5" d="m138.85,13.17c0,.34-.2.62-.42.62h0c-.24,0-.42-.28-.42-.62V1.17c0-.34.2-.62.42-.62h0c.24,0,.42.28.42.62v12Z"/>
        <path class="cls-5" d="m141.32,12.63c0,.34-.2.62-.42.62h0c-.24,0-.42-.28-.42-.62V.62c0-.34.2-.62.42-.62h0c.24,0,.42.28.42.62v12h0Z"/>
      </g>
      <path class="cls-4" d="m146.68,31.95c0,2.51-1.43,4.58-3.18,4.58h-39.68c-1.51,0-2.55-1.91-2.29-4.23l1.78-17.01c.22-2.13,1.57-3.89,2.99-3.95l37.4-1.68c1.64-.07,2.98,1.7,2.98,3.98v18.32Z"/>
      <path class="cls-4" d="m279.86,58.59c0,11.85-6.53,21.46-14.59,21.46H84.63c-8.06,0-69.38-9.61-69.38-21.46h0c0-11.85,61.32-21.46,69.38-21.46h180.64c8.06,0,14.59,9.61,14.59,21.46h0Z"/>
      <path class="cls-3" d="m90.07,37.13c3.44,5.88,11.92,10.03,21.84,10.03h18.19c9.92,0,18.4-4.15,21.84-10.03h-61.89.01Z"/>
      <path class="cls-6" d="m21.31,52.02c-2.45,1.35-4.28,2.76-5.26,4.22h263.71c-.11-1.46-.32-2.87-.62-4.22H21.31Z"/>
      <path class="cls-6" d="m150.73,37.13c-.27-4.93-5.49-8.28-14.36-8.28h-18.05c-8.87,0-19.06,3.35-26.66,8.28h59.06Z"/>
      <path class="cls-5" d="m17.1,55.01c-1.18,1.17-1.83,2.36-1.83,3.59,0,11.85,61.32,21.46,69.38,21.46h180.64c8.06,0,14.59-9.61,14.59-21.46,0-1.22-.07-2.42-.21-3.59H17.1Z"/>
      <path class="cls-6" d="m146.24,11.55c-.52-1.18-1.47-1.95-2.56-1.9l-37.4,1.68c-1.06.05-2.07,1.02-2.62,2.39,0,0,42.58-2.17,42.58-2.17Z"/>
      <path class="cls-3" d="m268.41,45.46c0,.4-.22.72-.49.72h-23.12c-.27,0-.49-.32-.49-.72v-.9c0-.4.22-.72.49-.72h23.12c.27,0,.49.32.49.72v.9Z"/>
      <path class="cls-2" d="m265.88,46.24c0,.4-.22.72-.49.72h-8.73c-.27,0-.49-.32-.49-.72v-2.47c0-.4.22-.72.49-.72h8.73c.27,0,.49.32.49.72v2.47Z"/>
      <g>
        <path class="cls-3" d="m240.33,51.13c0,.27.15.49.34.49h3.33c.18,0,.34-.22.34-.49v-1.22c0-.27-.15-.49-.34-.49h-3.33c-.18,0-.34.22-.34.49v1.22Z"/>
        <path class="cls-3" d="m235.68,51.13c0,.27.15.49.34.49h3.33c.18,0,.34-.22.34-.49v-1.22c0-.27-.15-.49-.34-.49h-3.33c-.18,0-.34.22-.34.49v1.22Z"/>
        <path class="cls-3" d="m231.03,51.13c0,.27.15.49.34.49h3.33c.18,0,.34-.22.34-.49v-1.22c0-.27-.15-.49-.34-.49h-3.33c-.18,0-.34.22-.34.49v1.22Z"/>
        <path class="cls-3" d="m226.38,51.13c0,.27.15.49.34.49h3.33c.18,0,.34-.22.34-.49v-1.22c0-.27-.15-.49-.34-.49h-3.33c-.18,0-.34.22-.34.49v1.22Z"/>
        <path class="cls-3" d="m221.73,51.13c0,.27.15.49.34.49h3.33c.18,0,.34-.22.34-.49v-1.22c0-.27-.15-.49-.34-.49h-3.33c-.18,0-.34.22-.34.49v1.22Z"/>
        <path class="cls-3" d="m217.09,51.13c0,.27.15.49.34.49h3.33c.18,0,.34-.22.34-.49v-1.22c0-.27-.15-.49-.34-.49h-3.33c-.18,0-.34.22-.34.49v1.22Z"/>
      </g>
      <g>
        <path class="cls-3" d="m198.28,51.13c0,.27.15.49.34.49h3.33c.18,0,.34-.22.34-.49v-1.22c0-.27-.15-.49-.34-.49h-3.33c-.18,0-.34.22-.34.49v1.22Z"/>
        <path class="cls-3" d="m193.64,51.13c0,.27.15.49.34.49h3.33c.18,0,.34-.22.34-.49v-1.22c0-.27-.15-.49-.34-.49h-3.33c-.18,0-.34.22-.34.49v1.22Z"/>
        <path class="cls-3" d="m188.98,51.13c0,.27.15.49.34.49h3.33c.18,0,.34-.22.34-.49v-1.22c0-.27-.15-.49-.34-.49h-3.33c-.18,0-.34.22-.34.49v1.22Z"/>
        <path class="cls-3" d="m184.33,51.13c0,.27.15.49.34.49h3.33c.18,0,.34-.22.34-.49v-1.22c0-.27-.15-.49-.34-.49h-3.33c-.18,0-.34.22-.34.49v1.22Z"/>
        <path class="cls-3" d="m179.68,51.13c0,.27.15.49.34.49h3.33c.18,0,.34-.22.34-.49v-1.22c0-.27-.15-.49-.34-.49h-3.33c-.18,0-.34.22-.34.49v1.22Z"/>
        <path class="cls-3" d="m175.04,51.13c0,.27.15.49.34.49h3.33c.18,0,.34-.22.34-.49v-1.22c0-.27-.15-.49-.34-.49h-3.33c-.18,0-.34.22-.34.49v1.22Z"/>
      </g>
      <g>
        <path class="cls-3" d="m156.23,51.13c0,.27.15.49.34.49h3.33c.18,0,.34-.22.34-.49v-1.22c0-.27-.15-.49-.34-.49h-3.33c-.18,0-.34.22-.34.49v1.22Z"/>
        <path class="cls-3" d="m151.59,51.13c0,.27.15.49.34.49h3.33c.18,0,.34-.22.34-.49v-1.22c0-.27-.15-.49-.34-.49h-3.33c-.18,0-.34.22-.34.49v1.22Z"/>
        <path class="cls-3" d="m146.94,51.13c0,.27.15.49.34.49h3.33c.18,0,.34-.22.34-.49v-1.22c0-.27-.15-.49-.34-.49h-3.33c-.18,0-.34.22-.34.49v1.22Z"/>
        <path class="cls-3" d="m142.28,51.13c0,.27.15.49.34.49h3.33c.18,0,.34-.22.34-.49v-1.22c0-.27-.15-.49-.34-.49h-3.33c-.18,0-.34.22-.34.49v1.22Z"/>
        <path class="cls-3" d="m137.64,51.13c0,.27.15.49.34.49h3.33c.18,0,.34-.22.34-.49v-1.22c0-.27-.15-.49-.34-.49h-3.33c-.18,0-.34.22-.34.49v1.22Z"/>
        <path class="cls-3" d="m132.99,51.13c0,.27.15.49.34.49h3.33c.18,0,.34-.22.34-.49v-1.22c0-.27-.15-.49-.34-.49h-3.33c-.18,0-.34.22-.34.49v1.22Z"/>
      </g>
      <g>
        <path class="cls-1" d="m194.9,57.28c0,.27.15.49.34.49h3.33c.18,0,.34-.22.34-.49v-1.22c0-.27-.15-.49-.34-.49h-3.33c-.18,0-.34.22-.34.49v1.22Z"/>
        <path class="cls-1" d="m190.24,57.28c0,.27.15.49.34.49h3.33c.18,0,.34-.22.34-.49v-1.22c0-.27-.15-.49-.34-.49h-3.33c-.18,0-.34.22-.34.49v1.22Z"/>
        <path class="cls-1" d="m185.59,57.28c0,.27.15.49.34.49h3.33c.18,0,.34-.22.34-.49v-1.22c0-.27-.15-.49-.34-.49h-3.33c-.18,0-.34.22-.34.49v1.22Z"/>
        <path class="cls-1" d="m180.94,57.28c0,.27.15.49.34.49h3.33c.18,0,.34-.22.34-.49v-1.22c0-.27-.15-.49-.34-.49h-3.33c-.18,0-.34.22-.34.49v1.22Z"/>
        <path class="cls-1" d="m176.3,57.28c0,.27.15.49.34.49h3.33c.18,0,.34-.22.34-.49v-1.22c0-.27-.15-.49-.34-.49h-3.33c-.18,0-.34.22-.34.49,0,0,0,1.22,0,1.22Z"/>
        <path class="cls-1" d="m171.64,57.28c0,.27.15.49.34.49h3.33c.18,0,.34-.22.34-.49v-1.22c0-.27-.15-.49-.34-.49h-3.33c-.18,0-.34.22-.34.49v1.22Z"/>
      </g>
      <g>
        <path class="cls-1" d="m160.11,57.28c0,.27.15.49.34.49h3.33c.18,0,.34-.22.34-.49v-1.22c0-.27-.15-.49-.34-.49h-3.33c-.18,0-.34.22-.34.49v1.22Z"/>
        <path class="cls-1" d="m155.46,57.28c0,.27.15.49.34.49h3.33c.18,0,.34-.22.34-.49v-1.22c0-.27-.15-.49-.34-.49h-3.33c-.18,0-.34.22-.34.49v1.22Z"/>
        <path class="cls-1" d="m150.82,57.28c0,.27.15.49.34.49h3.33c.18,0,.34-.22.34-.49v-1.22c0-.27-.15-.49-.34-.49h-3.33c-.18,0-.34.22-.34.49v1.22Z"/>
        <path class="cls-1" d="m146.16,57.28c0,.27.15.49.34.49h3.33c.18,0,.34-.22.34-.49v-1.22c0-.27-.15-.49-.34-.49h-3.33c-.18,0-.34.22-.34.49v1.22Z"/>
        <path class="cls-1" d="m141.51,57.28c0,.27.15.49.34.49h3.33c.18,0,.34-.22.34-.49v-1.22c0-.27-.15-.49-.34-.49h-3.33c-.18,0-.34.22-.34.49v1.22Z"/>
        <path class="cls-1" d="m136.87,57.28c0,.27.15.49.34.49h3.33c.18,0,.34-.22.34-.49v-1.22c0-.27-.15-.49-.34-.49h-3.33c-.18,0-.34.22-.34.49v1.22Z"/>
      </g>
      <g>
        <path class="cls-1" d="m125.34,57.28c0,.27.15.49.34.49h3.33c.18,0,.34-.22.34-.49v-1.22c0-.27-.15-.49-.34-.49h-3.33c-.18,0-.34.22-.34.49v1.22Z"/>
        <path class="cls-1" d="m120.68,57.28c0,.27.15.49.34.49h3.33c.18,0,.34-.22.34-.49v-1.22c0-.27-.15-.49-.34-.49h-3.33c-.18,0-.34.22-.34.49v1.22Z"/>
        <path class="cls-1" d="m116.03,57.28c0,.27.15.49.34.49h3.33c.18,0,.34-.22.34-.49v-1.22c0-.27-.15-.49-.34-.49h-3.33c-.18,0-.34.22-.34.49v1.22Z"/>
        <path class="cls-1" d="m111.38,57.28c0,.27.15.49.34.49h3.33c.18,0,.34-.22.34-.49v-1.22c0-.27-.15-.49-.34-.49h-3.33c-.18,0-.34.22-.34.49v1.22Z"/>
        <path class="cls-1" d="m106.74,57.28c0,.27.15.49.34.49h3.33c.18,0,.34-.22.34-.49v-1.22c0-.27-.15-.49-.34-.49h-3.33c-.18,0-.34.22-.34.49v1.22Z"/>
        <path class="cls-1" d="m102.09,57.28c0,.27.15.49.34.49h3.33c.18,0,.34-.22.34-.49v-1.22c0-.27-.15-.49-.34-.49h-3.33c-.18,0-.34.22-.34.49v1.22Z"/>
      </g>
      <path class="cls-3" d="m267.88,70.3H70.3c-5.54,0-34.1-3.91-54.54-9.85,5.84,10.98,61.23,19.6,68.86,19.6h180.64c6.94,0,12.75-7.13,14.23-16.68-2.91,4.27-7.02,6.93-11.6,6.93h0Z"/>
      <g>
        <path class="cls-1" d="m92.24,57.28c0,.27.15.49.34.49h3.33c.18,0,.34-.22.34-.49v-1.22c0-.27-.15-.49-.34-.49h-3.33c-.18,0-.34.22-.34.49v1.22Z"/>
        <path class="cls-1" d="m87.6,57.28c0,.27.15.49.34.49h3.33c.18,0,.34-.22.34-.49v-1.22c0-.27-.15-.49-.34-.49h-3.33c-.18,0-.34.22-.34.49v1.22Z"/>
        <path class="cls-1" d="m82.95,57.28c0,.27.15.49.34.49h3.33c.18,0,.34-.22.34-.49v-1.22c0-.27-.15-.49-.34-.49h-3.33c-.18,0-.34.22-.34.49v1.22Z"/>
        <path class="cls-1" d="m78.31,57.28c0,.27.15.49.34.49h3.33c.18,0,.34-.22.34-.49v-1.22c0-.27-.15-.49-.34-.49h-3.33c-.18,0-.34.22-.34.49v1.22Z"/>
        <path class="cls-1" d="m73.65,57.28c0,.27.15.49.34.49h3.33c.18,0,.34-.22.34-.49v-1.22c0-.27-.15-.49-.34-.49h-3.33c-.18,0-.34.22-.34.49v1.22Z"/>
        <path class="cls-1" d="m69,57.28c0,.27.15.49.34.49h3.33c.18,0,.34-.22.34-.49v-1.22c0-.27-.15-.49-.34-.49h-3.33c-.18,0-.34.22-.34.49v1.22Z"/>
      </g>
      <g>
        <path class="cls-1" d="m58.13,57.28c0,.27.15.49.34.49h3.33c.18,0,.34-.22.34-.49v-1.22c0-.27-.15-.49-.34-.49h-3.33c-.18,0-.34.22-.34.49v1.22Z"/>
        <path class="cls-1" d="m53.48,57.28c0,.27.15.49.34.49h3.33c.18,0,.34-.22.34-.49v-1.22c0-.27-.15-.49-.34-.49h-3.33c-.18,0-.34.22-.34.49v1.22Z"/>
        <path class="cls-1" d="m48.82,57.28c0,.27.15.49.34.49h3.33c.18,0,.34-.22.34-.49v-1.22c0-.27-.15-.49-.34-.49h-3.33c-.18,0-.34.22-.34.49v1.22Z"/>
        <path class="cls-1" d="m44.18,57.28c0,.27.15.49.34.49h3.33c.18,0,.34-.22.34-.49v-1.22c0-.27-.15-.49-.34-.49h-3.33c-.18,0-.34.22-.34.49,0,0,0,1.22,0,1.22Z"/>
        <path class="cls-1" d="m39.53,57.28c0,.27.15.49.34.49h3.33c.18,0,.34-.22.34-.49v-1.22c0-.27-.15-.49-.34-.49h-3.33c-.18,0-.34.22-.34.49,0,0,0,1.22,0,1.22Z"/>
        <path class="cls-1" d="m34.88,57.28c0,.27.15.49.34.49h3.33c.18,0,.34-.22.34-.49v-1.22c0-.27-.15-.49-.34-.49h-3.33c-.18,0-.34.22-.34.49,0,0,0,1.22,0,1.22Z"/>
      </g>
      <path class="cls-4" d="m28.85,56.19H8.21c-1.05,0-8.21,1.25-8.21,2.79s7.16,2.79,8.21,2.79h20.64s0-5.57,0-5.57Z"/>
      <path class="cls-2" d="m90.23,38.94c0,.4-.22.72-.49.72h-6.27c-.27,0-.49-.32-.49-.72v-.37c0-.4.22-.72.49-.72h6.27c.27,0,.49.32.49.72v.37Z"/>
      <path class="cls-2" d="m82.56,39c0,.4-.22.72-.49.72h-1.82c-.27,0-.49-.32-.49-.72v-.37c0-.4.22-.72.49-.72h1.82c.27,0,.49.32.49.72v.37Z"/>
      <path class="cls-2" d="m163.06,38.94c0,.4-.22.72-.49.72h-6.27c-.27,0-.49-.32-.49-.72v-.37c0-.4.22-.72.49-.72h6.27c.27,0,.49.32.49.72v.37Z"/>
      <path class="cls-2" d="m155.39,39c0,.4-.22.72-.49.72h-1.82c-.27,0-.49-.32-.49-.72v-.37c0-.4.22-.72.49-.72h1.82c.27,0,.49.32.49.72v.37Z"/>
      <path class="cls-2" d="m174.38,38.94c0,.4-.22.72-.49.72h-6.27c-.27,0-.49-.32-.49-.72v-.37c0-.4.22-.72.49-.72h6.27c.27,0,.49.32.49.72v.37Z"/>
      <path class="cls-2" d="m166.71,39c0,.4-.22.72-.49.72h-1.82c-.27,0-.49-.32-.49-.72v-.37c0-.4.22-.72.49-.72h1.82c.27,0,.49.32.49.72v.37Z"/>
      <path class="cls-2" d="m185.7,38.94c0,.4-.22.72-.49.72h-6.27c-.27,0-.49-.32-.49-.72v-.37c0-.4.22-.72.49-.72h6.27c.27,0,.49.32.49.72v.37Z"/>
      <path class="cls-2" d="m178.03,39c0,.4-.22.72-.49.72h-1.82c-.27,0-.49-.32-.49-.72v-.37c0-.4.22-.72.49-.72h1.82c.27,0,.49.32.49.72v.37Z"/>
      <path class="cls-2" d="m197.02,38.94c0,.4-.22.72-.49.72h-6.27c-.27,0-.49-.32-.49-.72v-.37c0-.4.22-.72.49-.72h6.27c.27,0,.49.32.49.72v.37Z"/>
      <path class="cls-2" d="m189.35,39c0,.4-.22.72-.49.72h-1.82c-.27,0-.49-.32-.49-.72v-.37c0-.4.22-.72.49-.72h1.82c.27,0,.49.32.49.72v.37Z"/>
    </g>
  </g>
</svg>